<svg version="1.1" xmlns="http://www.w3.org/2000/svg" xmlns:xlink="http://www.w3.org/1999/xlink" x="0px" y="0px" viewBox="0 0 25 24" style="enable-background:new 0 0 25 24;" xml:space="preserve">
<path d="M25,9.1c-0.1-0.3-0.3-0.5-0.7-0.6l-7.6-1.2l-3.5-6.9C13,0,12.5-0.1,12.1,0.1
	c-0.2,0.1-0.3,0.2-0.4,0.4L8.3,7.3L0.7,8.5C0.2,8.6-0.1,9,0,9.5C0,9.7,0.1,9.8,0.2,10l5.4,5.5L4.5,23c0,0.3,0.1,0.6,0.3,0.8
	C5.1,24,5.4,24,5.7,23.9l6.8-3.5l6.8,3.5c0.1,0.1,0.2,0.1,0.4,0.1c0.2,0,0.3-0.1,0.5-0.2c0.3-0.2,0.4-0.5,0.3-0.8l-1.2-7.6l5.4-5.5
	C25,9.7,25.1,9.4,25,9.1z"/>
<g>
	<path fill="currentColor" d="M25,9.1c-0.1-0.3-0.4-0.5-0.7-0.6l-7.6-1.2l-3.5-6.9C13,0,12.5-0.1,12.1,0.1c-0.2,0.1-0.3,0.2-0.4,0.4L8.3,7.3
		L0.7,8.5C0.2,8.6-0.1,9,0,9.5C0,9.7,0.1,9.8,0.2,10l5.4,5.5L4.5,23c0,0.3,0.1,0.6,0.3,0.8C5.1,24,5.4,24,5.7,23.9l6.8-3.5l6.8,3.5
		c0.1,0.1,0.2,0.1,0.4,0.1s0.3-0.1,0.5-0.2c0.3-0.2,0.4-0.5,0.3-0.8l-1.2-7.6l5.4-5.5C25,9.7,25.1,9.4,25,9.1z M6.6,15.1L1,9.4V9.4
		L8.8,8l3.6-7.1L16.1,8l8.1,1.3l-5.7,5.7l1.2,8l-7.1-3.6l-7.1,3.6L6.6,15.1z M12.4,0.9c0,0-0.1,0-0.1,0L12.4,0.9L12.4,0.9z
		 M24.2,9.5L24.2,9.5l0.1,0.1L24.2,9.5z"/>
</g>
</svg>
