<svg xmlns="http://www.w3.org/2000/svg" xmlns:xlink="http://www.w3.org/1999/xlink" preserveAspectRatio="xMidYMid" width="19.41" height="19.438" viewBox="0 0 19.41 19.438">
  <path d="M0.676,10.413 C0.294,10.413 -0.010,10.099 -0.010,9.717 C-0.010,9.334 0.294,9.031 0.676,9.031 L8.999,9.031 L8.999,0.709 C8.999,0.327 9.313,0.013 9.695,0.013 C10.078,0.013 10.381,0.327 10.381,0.709 L10.381,9.031 L18.704,9.031 C19.086,9.031 19.400,9.334 19.400,9.717 C19.400,10.099 19.086,10.413 18.704,10.413 L10.381,10.413 L10.381,18.734 C10.381,19.116 10.078,19.430 9.695,19.430 C9.313,19.430 8.999,19.116 8.999,18.734 L8.999,10.413 L0.676,10.413 Z" class="cls-1"/>
</svg>
