<svg xmlns="http://www.w3.org/2000/svg" xmlns:xlink="http://www.w3.org/1999/xlink" preserveAspectRatio="xMidYMid" width="8" height="12" viewBox="0 0 8 12">
  <defs>
    <style>
      .cls-1 {
        fill: #9fc44d;
        fill-rule: evenodd;
      }
    </style>
  </defs>
  <path d="M4.000,-0.002 C1.794,-0.002 -0.000,1.779 -0.000,3.968 C-0.000,4.849 0.567,6.286 1.734,8.361 C2.559,9.829 3.371,11.052 3.405,11.104 L4.000,11.998 L4.594,11.104 C4.628,11.052 5.440,9.829 6.266,8.361 C7.432,6.286 8.000,4.849 8.000,3.968 C8.000,1.779 6.205,-0.002 4.000,-0.002 ZM4.000,5.998 C2.855,5.998 1.926,5.077 1.926,3.941 C1.926,2.804 2.855,1.883 4.000,1.883 C5.145,1.883 6.073,2.804 6.073,3.941 C6.073,5.077 5.145,5.998 4.000,5.998 Z" class="cls-1"/>
</svg>
