<svg width="36" height="36" viewBox="0 0 36 36" fill="none" xmlns="http://www.w3.org/2000/svg">
<g clip-path="url(#clip0)">
<path d="M35.3001 3.80005H3.8001C3.4001 3.80005 3.1001 4.10005 3.1001 4.50005V8.00005C3.1001 8.40005 3.4001 8.70005 3.8001 8.70005C4.2001 8.70005 4.5001 8.40005 4.5001 8.00005V5.20005H8.8001V7.50005C8.8001 7.90005 9.1001 8.20005 9.5001 8.20005C9.9001 8.20005 10.2001 7.90005 10.2001 7.50005V5.20005H13.1001V7.50005C13.1001 7.90005 13.4001 8.20005 13.8001 8.20005C14.2001 8.20005 14.5001 7.90005 14.5001 7.50005V5.20005H17.4001V28.5C17.4001 28.9 17.7001 29.2001 18.1001 29.2001C18.5001 29.2001 18.8001 28.9 18.8001 28.5V5.20005H21.7001V25.5C21.7001 25.9 22.0001 26.2001 22.4001 26.2001C22.8001 26.2001 23.1001 25.9 23.1001 25.5V5.20005H26.0001V28.5C26.0001 28.9 26.3001 29.2001 26.7001 29.2001C27.1001 29.2001 27.4001 28.9 27.4001 28.5V5.20005H30.4001V25.5C30.4001 25.9 30.7001 26.2001 31.1001 26.2001C31.5001 26.2001 31.8001 25.9 31.8001 25.5V5.20005H34.7001V30.8H14.5001V28.5C14.5001 28.1 14.2001 27.8 13.8001 27.8C13.4001 27.8 13.1001 28.1 13.1001 28.5V30.8H10.2001V28.5C10.2001 28.1 9.9001 27.8 9.5001 27.8C9.1001 27.8 8.8001 28.1 8.8001 28.5V30.8H4.5001V28C4.5001 27.6 4.2001 27.3 3.8001 27.3C3.4001 27.3 3.1001 27.6 3.1001 28V31.5C3.1001 31.9 3.4001 32.2001 3.8001 32.2001H35.3001C35.7001 32.2001 36.0001 31.9 36.0001 31.5V4.50005C36.0001 4.10005 35.7001 3.80005 35.3001 3.80005Z" fill="#99AEC9"/>
<path d="M15.4 17.5L14 16.1C13.7 15.8 13.3 15.8 13 16.1C12.7 16.4 12.7 16.8 13 17.1L13.2 17.3H13C12.3 17.3 11.6 17.5 10.9 17.8C10 18.3 8.90004 18.3 8.00004 17.8C6.70004 17.1 5.20004 17.1 3.90004 17.8C3.00004 18.3 1.90004 18.3 1.00004 17.8C0.700037 17.6 0.200037 17.8 0.100037 18.1C-0.0999626 18.4 0.100037 18.9 0.400037 19C1.70004 19.7 3.20004 19.7 4.50004 19C5.40004 18.5 6.50004 18.5 7.40004 19C8.00004 19.3 8.80004 19.5 9.50004 19.5C10.2 19.5 10.9 19.3 11.6 19C12 18.8 12.5 18.7 13 18.7H13.2L13 18.9C12.7 19.2 12.7 19.6 13 19.9C13.1 20 13.3 20.1 13.5 20.1C13.7 20.1 13.9 20 14 19.9L15.4 18.5C15.7 18.2 15.7 17.8 15.4 17.5Z" fill="#414141"/>
<path d="M15.4 23.1001L14 21.7001C13.7 21.4001 13.3 21.4001 13 21.7001C12.7 22.0001 12.7 22.4001 13 22.7001L13.2 22.9001H13C12.3 22.9001 11.6 23.1001 10.9 23.4001C10 23.9001 8.90004 23.9001 8.00004 23.4001C6.70004 22.7001 5.20004 22.7001 3.90004 23.4001C3.00004 23.9001 1.90004 23.9001 1.00004 23.4001C0.700037 23.2001 0.200037 23.4001 0.100037 23.7001C-0.0999626 24.0001 0.100037 24.5001 0.400037 24.6001C1.70004 25.3001 3.20004 25.3001 4.50004 24.6001C5.40004 24.1001 6.50004 24.1001 7.40004 24.6001C8.00004 25.0001 8.80004 25.2001 9.50004 25.2001C10.2 25.2001 10.9 25.0001 11.6 24.7001C12 24.5001 12.5 24.4001 13 24.4001H13.2L13 24.6001C12.7 24.9001 12.7 25.3001 13 25.6001C13.1 25.7001 13.3 25.8001 13.5 25.8001C13.7 25.8001 13.9 25.7001 14 25.6001L15.4 24.2001C15.7 23.9001 15.7 23.4001 15.4 23.1001Z" fill="#414141"/>
<path d="M15.4 11.8L14 10.4C13.7 10.1 13.3 10.1 13 10.4C12.7 10.7 12.7 11.1 13 11.4L13.2 11.6H13C12.3 11.6 11.6 11.8 10.9 12.1C10 12.6 8.90004 12.6 8.00004 12.1C6.70004 11.4 5.20004 11.4 3.90004 12.1C3.00004 12.6 1.90004 12.6 1.00004 12.1C0.700037 11.9 0.200037 12.1 0.100037 12.4C-0.0999626 12.7 0.100037 13.2 0.400037 13.3C1.70004 14 3.20004 14 4.50004 13.3C5.40004 12.8 6.50004 12.8 7.40004 13.3C8.00004 13.6 8.80004 13.8 9.50004 13.8C10.2 13.8 10.9 13.6 11.6 13.3C12 13.1 12.5 13 13 13H13.2L13 13.2C12.7 13.5 12.7 13.9 13 14.2C13.1 14.3 13.3 14.4 13.5 14.4C13.7 14.4 13.9 14.3 14 14.2L15.4 12.8C15.7 12.5 15.7 12.1 15.4 11.8Z" fill="#414141"/>
<path d="M31.5 28C31.4 27.9 31.2 27.8 31 27.8C30.8 27.8 30.6 27.9 30.5 28C30.4 28.1 30.3 28.3 30.3 28.5C30.3 28.7 30.4 28.9 30.5 29C30.6 29.1 30.8 29.2001 31 29.2001C31.2 29.2001 31.4 29.1 31.5 29C31.6 28.9 31.7001 28.7 31.7001 28.5C31.7001 28.3 31.6 28.1 31.5 28Z" fill="#414141"/>
<path d="M22.9001 28C22.8001 27.9 22.6001 27.8 22.4001 27.8C22.2001 27.8 22.0001 27.9 21.9001 28C21.8001 28.1 21.7001 28.3 21.7001 28.5C21.7001 28.7 21.8001 28.9 21.9001 29C22.0001 29.1 22.2001 29.2001 22.4001 29.2001C22.6001 29.2001 22.8001 29.1 22.9001 29C23.0001 28.9 23.1001 28.7 23.1001 28.5C23.1001 28.3 23.0001 28.1 22.9001 28Z" fill="#414141"/>
</g>
<defs>
<clipPath id="clip0">
<rect width="36" height="36" fill="white"/>
</clipPath>
</defs>
</svg>
