<svg xmlns="http://www.w3.org/2000/svg" xmlns:xlink="http://www.w3.org/1999/xlink" preserveAspectRatio="xMidYMid" width="16" height="16" viewBox="0 0 16 16">
  <path d="M15.519,5.122 C15.857,5.541 16.018,5.989 15.998,6.450 C15.977,6.959 15.743,7.357 15.550,7.602 C15.774,8.144 15.860,8.997 15.113,9.659 C14.566,10.144 13.637,10.362 12.349,10.302 C11.444,10.262 10.687,10.098 10.656,10.091 L10.653,10.091 C10.480,10.061 10.298,10.024 10.112,9.984 C10.098,10.198 10.136,10.730 10.542,11.928 C11.024,13.353 10.997,14.444 10.453,15.173 C9.882,15.940 8.969,16.000 8.701,16.000 C8.443,16.000 8.205,15.896 8.037,15.705 C7.655,15.274 7.699,14.477 7.748,14.109 C7.293,12.925 6.020,10.020 4.942,9.214 C4.922,9.201 4.905,9.184 4.887,9.167 C4.571,8.843 4.357,8.492 4.213,8.184 C4.010,8.291 3.779,8.351 3.531,8.351 L1.432,8.351 C0.640,8.351 -0.000,7.725 -0.000,6.959 L-0.000,1.522 C-0.000,0.752 0.643,0.130 1.432,0.130 L3.531,0.130 C3.838,0.130 4.123,0.224 4.357,0.384 L5.166,0.291 C5.290,0.274 7.493,0.003 9.754,0.046 C10.164,0.016 10.549,-0.000 10.907,-0.000 C11.523,-0.000 12.060,0.046 12.508,0.140 C13.561,0.358 14.280,0.792 14.645,1.432 C14.924,1.920 14.924,2.405 14.879,2.713 C15.564,3.316 15.685,3.981 15.660,4.450 C15.647,4.721 15.585,4.952 15.519,5.122 ZM1.432,1.034 C1.153,1.034 0.929,1.255 0.929,1.522 L0.929,6.962 C0.929,7.234 1.156,7.451 1.432,7.451 L3.531,7.451 C3.810,7.451 4.034,7.230 4.034,6.962 L4.034,1.525 C4.034,1.255 3.807,1.037 3.531,1.037 L1.432,1.037 L1.432,1.034 ZM14.638,5.514 C14.494,5.366 14.466,5.142 14.576,4.968 C14.576,4.965 14.717,4.731 14.735,4.410 C14.759,3.971 14.542,3.583 14.088,3.252 C13.926,3.131 13.860,2.924 13.929,2.737 C13.929,2.733 14.077,2.292 13.836,1.873 C13.606,1.472 13.093,1.184 12.315,1.024 C11.692,0.893 10.845,0.869 9.806,0.950 C9.792,0.950 9.775,0.950 9.758,0.950 C7.545,0.903 5.307,1.184 5.283,1.187 L5.280,1.187 L4.932,1.227 C4.953,1.321 4.963,1.422 4.963,1.522 L4.963,6.962 C4.963,7.106 4.939,7.247 4.898,7.378 C4.960,7.602 5.132,8.100 5.538,8.525 C7.083,9.716 8.594,13.735 8.660,13.908 C8.687,13.979 8.694,14.056 8.680,14.133 C8.622,14.507 8.642,14.966 8.725,15.103 C8.907,15.099 9.400,15.050 9.696,14.651 C10.047,14.180 10.033,13.336 9.654,12.219 C9.076,10.516 9.028,9.619 9.486,9.224 C9.713,9.027 10.016,9.017 10.236,9.094 C10.446,9.141 10.646,9.181 10.835,9.211 C10.849,9.214 10.866,9.217 10.880,9.221 C11.936,9.445 13.829,9.582 14.487,9.000 C15.044,8.505 14.649,7.849 14.604,7.779 C14.476,7.592 14.514,7.347 14.686,7.197 C14.690,7.193 15.051,6.862 15.069,6.417 C15.082,6.119 14.938,5.815 14.638,5.514 Z" class="cls-1"/>
</svg>
