<svg version="1.1" xmlns="http://www.w3.org/2000/svg" xmlns:xlink="http://www.w3.org/1999/xlink" x="0px" y="0px"
	 viewBox="0 0 510.6 424.1" style="enable-background:new 0 0 510.6 424.1;" xml:space="preserve">
<g>
	<path d="M0,13.8C3.2,3.4,10.2-0.2,20.3,0c24.3,0.4,48.6,0.1,73,0.1c10.1,0,15.5,4,18.1,13.5c18.4,68.1,36.8,136.2,55.2,204.3
		c4.7,17.4,9.4,34.8,14.1,52.2c0.3,1.2,0.9,2.4,1.5,3.9c2,0,4,0,6,0c79.3,0,158.6,0,237.8,0.1c4.2,0,5.9-1.1,7-5.3
		c15.7-58.6,31.8-117,47.3-175.7c3.8-14.3,16.7-17.4,24.2-10.8c2.3,2,3.6,4.9,5.3,7.6c0.2,1.8,0.5,4.2,0.8,6
		c-4.7,16.7-9.4,33.4-14,50.2c-13.1,48.3-26.1,96.7-39.2,145c-2.2,7.9-7.7,12-16.1,12c-89.8,0-179.6,0-269.4,0
		c-8.5,0-13.8-4.1-16.1-12.6c-13.1-48.5-26.2-97-39.3-145.5c-10-37.2-20.1-74.3-30.1-111.5c-0.8-3-2.2-4.2-5.5-4.2
		c-20.5,0.2-41,0.1-61.5,0.1c-12,0-14.8-2.2-19.3-13.5C0.1,15.2,0,14.5,0,13.8z"/>
	<path d="M400.5,424.1c-8.6-2-16.9-4.6-23.7-10.6c-13.3-11.6-18.4-26.5-14.8-43.5c3.9-18.1,15.5-29.9,33.7-33.9
		c25.2-5.5,49.2,10.1,53.4,35.2c4.8,28.6-15.2,48.7-36.4,51.8c-0.8,0.1-1.5,0.6-2.2,0.9C407.2,424.1,403.9,424.1,400.5,424.1z"/>
	<path d="M202.6,424.1c-4.2-1.3-8.6-2.3-12.6-4c-19.2-8.4-29.6-28.1-25.9-47.9c4.2-22.7,21.7-36.7,43.4-37.2
		c22.5-0.5,45.1,17.7,45,45.2c0,21.5-16.2,39.7-37.6,43.1c-0.8,0.1-1.5,0.6-2.3,0.9C209.2,424.1,205.9,424.1,202.6,424.1z"/>
	<path d="M307,114.5c36,0,72,0,108,0c7.2,0,13.2,1.9,16.3,9c4.4,9.8-2.9,20.4-14.3,20.6c-9.3,0.2-18.7,0-28,0
		c-63.6,0-127.3,0-190.9,0c-9.2,0-14.8-3.9-16.8-11.7c-2-7.7,3-15.9,10.8-17.3c2.9-0.5,6-0.6,8.9-0.6
		C236.4,114.5,271.7,114.5,307,114.5C307,114.5,307,114.5,307,114.5z"/>
	<path d="M306.6,223.4c-31,0-61.9,0-92.9,0c-9.9,0-16.1-5.5-16.2-14.2c-0.1-8.2,5.8-14.6,14.1-15c3.5-0.2,7,0,10.5,0
		c59.3,0,118.5,0,177.8,0c6.4,0,11.5,2.4,14.4,8c2.7,5.2,2.3,10.6-1.2,15.5c-3.3,4.6-8.1,5.8-13.6,5.8c-23.5-0.1-47,0-70.4,0
		C321.6,223.4,314.1,223.4,306.6,223.4z"/>
</g>
</svg>
