<svg width="36" height="36" viewBox="0 0 36 36" fill="none" xmlns="http://www.w3.org/2000/svg">
<path d="M18 6.1001C17.6 6.1001 17.3 6.4001 17.3 6.8001C17.3 7.2001 17.6 7.5001 18 7.5001C18.4 7.5001 18.7001 7.2001 18.7001 6.8001C18.7001 6.4001 18.4 6.1001 18 6.1001Z" fill="#99AEC9"/>
<path d="M35.3 29.2001H34.5V8.2001C34.5 7.0001 33.6 6.1001 32.4 6.1001H31.5V3.3001C31.5 2.9001 31.2 2.6001 30.8 2.6001H24C23.6 2.6001 23.3 2.9001 23.3 3.3001V6.1001H21.1C20.7 6.1001 20.4 6.4001 20.4 6.8001C20.4 7.2001 20.7 7.5001 21.1 7.5001H32.4C32.8 7.5001 33.1 7.8001 33.1 8.2001V29.2001H22C21.6 29.2001 21.3 29.5001 21.3 29.9001C21.3 30.3001 21.6 30.6001 22 30.6001H34.6V32.0001H1.4V30.6001H14.3C14.7 30.6001 15 30.3001 15 29.9001C15 29.5001 14.7 29.2001 14.3 29.2001H3V8.2001C3 7.8001 3.3 7.5001 3.7 7.5001H15C15.4 7.5001 15.7 7.2001 15.7 6.8001C15.7 6.4001 15.4 6.1001 15 6.1001H12.8V3.3001C12.8 2.9001 12.5 2.6001 12.1 2.6001H5.3C4.9 2.6001 4.6 2.9001 4.6 3.3001V6.1001H3.7C2.5 6.1001 1.6 7.0001 1.6 8.2001V29.2001H0.7C0.3 29.2001 0 29.5001 0 29.9001V32.7001C0 33.1001 0.3 33.4001 0.7 33.4001H35.3C35.7 33.4001 36 33.1001 36 32.7001V29.9001C36 29.5001 35.7 29.2001 35.3 29.2001ZM30 6.1001H24.7V4.0001H30V6.1001ZM6 4.0001H11.3V6.1001H6V4.0001Z" fill="#99AEC9"/>
<path d="M18.5 29.4002C18.4 29.3002 18.2 29.2002 18 29.2002C17.8 29.2002 17.6 29.3002 17.5 29.4002C17.4 29.5002 17.3 29.7002 17.3 29.9002C17.3 30.1002 17.4 30.3002 17.5 30.4002C17.6 30.5002 17.8 30.6002 18 30.6002C18.2 30.6002 18.4 30.5002 18.5 30.4002C18.6 30.3002 18.7001 30.1002 18.7001 29.9002C18.7001 29.7002 18.6 29.5002 18.5 29.4002Z" fill="#99AEC9"/>
<path d="M10.7 10.6001H9.40002V9.3001C9.40002 8.9001 9.10002 8.6001 8.70002 8.6001C8.30002 8.6001 8.00002 8.9001 8.00002 9.3001V10.6001H6.60002C6.20002 10.6001 5.90002 10.9001 5.90002 11.3001C5.90002 11.7001 6.20002 12.0001 6.60002 12.0001H7.90002V13.3001C7.90002 13.7001 8.20002 14.0001 8.60002 14.0001C9.00002 14.0001 9.30002 13.7001 9.30002 13.3001V12.0001H10.6C11 12.0001 11.3 11.7001 11.3 11.3001C11.3 10.9001 11.1 10.6001 10.7 10.6001Z" fill="#414141"/>
<path d="M29.4 10.6001H25.3C24.9 10.6001 24.6 10.9001 24.6 11.3001C24.6 11.7001 24.9 12.0001 25.3 12.0001H29.4C29.8 12.0001 30.1 11.7001 30.1 11.3001C30.1 10.9001 29.8 10.6001 29.4 10.6001Z" fill="#414141"/>
<path d="M24.5 17.1001C24.4 16.9001 24.1 16.7001 23.9 16.7001H19.2L21.5 11.6001C21.6 11.4001 21.6 11.1001 21.4 10.9001C21.3 10.7001 21 10.6001 20.8 10.6001H16.4C16.1 10.6001 15.9 10.8001 15.7 11.0001L11.9 20.2001C12 20.5001 12 20.8001 12.2 21.0001C12.3 21.2001 12.5 21.3001 12.8 21.3001H17.9L16.2 26.9001C16.1 27.2001 16.3 27.6001 16.6 27.7001C16.7 27.7001 16.8 27.8001 16.9 27.8001C17.1 27.8001 17.3 27.7001 17.5 27.5001L24.6 17.8001C24.6 17.6001 24.6 17.3001 24.5 17.1001ZM18.7 23.4001L19.5 20.8001C19.6 20.6001 19.5 20.4001 19.4 20.2001C19.3 20.0001 19.1 19.9001 18.8 19.9001H13.8L17 12.0001H19.8L17.5 17.1001C17.4 17.3001 17.4 17.6001 17.6 17.8001C17.7 18.0001 18 18.1001 18.2 18.1001H22.6L18.7 23.4001Z" fill="#414141"/>
</svg>
