<svg width="36" height="36" viewBox="0 0 36 36" fill="none" xmlns="http://www.w3.org/2000/svg">
<path d="M5.70005 3.30005C4.40005 3.30005 3.30005 4.40005 3.30005 5.70005C3.30005 7.00005 4.40005 8.10005 5.70005 8.10005C7.00005 8.10005 8.10005 7.00005 8.10005 5.70005C8.10005 4.40005 7.00005 3.30005 5.70005 3.30005ZM5.70005 6.70005C5.20005 6.70005 4.70005 6.30005 4.70005 5.70005C4.70005 5.10005 5.10005 4.70005 5.70005 4.70005C6.30005 4.70005 6.70005 5.10005 6.70005 5.70005C6.70005 6.30005 6.20005 6.70005 5.70005 6.70005Z" fill="#414141"/>
<path d="M6.40003 18.9001C6.20003 18.5001 5.80003 18.3001 5.50003 18.5001C5.10003 18.6001 5.00003 19.0001 5.10003 19.4001V19.5001C5.20003 19.8001 5.50003 19.9001 5.80003 19.9001C5.90003 19.9001 6.00003 19.9001 6.10003 19.8001C6.40003 19.7001 6.60003 19.3001 6.40003 18.9001Z" fill="#414141"/>
<path d="M19.1 6.3L9.6 1.5C8.6 0.6 7.2 0 5.7 0C2.6 0 0 2.6 0 5.7C0 6.6 0.2 7.5 0.6 8.2L4 16.7C4.1 17 4.4 17.1 4.7 17.1C4.8 17.1 4.9 17.1 5 17C5.4 16.9 5.5 16.4 5.4 16.1L3.2 10.7C4 11.1 4.8 11.3 5.7 11.3C8.8 11.3 11.4 8.7 11.4 5.6C11.4 5 11.3 4.3 11.1 3.8L18.5 7.5C18.6 7.6 18.7 7.6 18.8 7.6C19.1 7.6 19.3 7.5 19.4 7.2C19.6 6.9 19.5 6.5 19.1 6.3ZM5.7 10C3.3 10 1.4 8.1 1.4 5.7C1.4 3.3 3.3 1.4 5.7 1.4C8.1 1.4 10 3.3 10 5.7C10 8.1 8.1 10 5.7 10Z" fill="#99AEC9"/>
<path d="M34.3999 13.9999C34.2999 13.9999 34.2999 13.9999 34.3999 13.9999L24.8999 9.19989C24.5999 8.99989 24.0999 9.19989 23.9999 9.49989C23.7999 9.79989 23.9999 10.2999 24.2999 10.3999L31.3999 13.9999C30.4999 14.4999 29.8999 15.4999 29.8999 16.6999C29.8999 18.2999 31.1999 19.6999 32.7999 19.7999L27.1999 27.4999C27.1999 27.2999 27.1999 27.0999 27.1999 26.8999C27.1999 21.8999 23.0999 17.7999 18.0999 17.7999C13.5999 17.7999 9.89993 21.0999 9.09993 25.2999L7.59993 21.4999C7.49993 21.0999 6.99993 20.9999 6.69993 21.0999C6.19993 21.1999 5.99993 21.6999 6.19993 21.9999L9.59993 30.2999C10.9999 33.6999 14.1999 35.9999 17.9999 35.9999C20.8999 35.9999 23.3999 34.6999 25.0999 32.5999V32.4999C25.1999 32.2999 25.3999 32.0999 25.4999 31.8999L35.1999 18.5999C35.2999 18.4999 35.2999 18.3999 35.3999 18.2999C35.3999 18.2999 35.3999 18.2999 35.3999 18.1999C35.6999 17.6999 35.8999 17.1999 35.8999 16.5999C35.9999 15.5999 35.2999 14.4999 34.3999 13.9999ZM24.3999 31.0999L23.9999 31.6999C22.5999 33.4999 20.3999 34.5999 17.9999 34.5999C13.6999 34.5999 10.2999 31.0999 10.2999 26.8999C10.2999 22.6999 13.7999 19.1999 17.9999 19.1999C22.1999 19.1999 25.6999 22.6999 25.6999 26.8999C25.6999 28.3999 25.1999 29.8999 24.3999 31.0999ZM34.2999 17.5999L34.0999 17.7999C33.7999 18.1999 33.2999 18.3999 32.7999 18.3999C31.8999 18.3999 31.0999 17.5999 31.0999 16.6999C31.0999 15.7999 31.8999 14.9999 32.7999 14.9999C33.6999 14.9999 34.4999 15.7999 34.4999 16.6999C34.5999 17.0999 34.4999 17.3999 34.2999 17.5999Z" fill="#99AEC9"/>
<path d="M21.9001 7.79999C21.5001 7.59999 21.1001 7.79999 20.9001 8.09999C20.7001 8.39999 20.9001 8.89999 21.2001 8.99999C21.3001 9.09999 21.4001 9.09999 21.5001 9.09999C21.8001 9.09999 22.0001 8.99999 22.1001 8.69999C22.4001 8.29999 22.3001 7.89999 21.9001 7.79999Z" fill="#414141"/>
<path d="M18 24.6001C16.8 24.6001 15.8 25.6001 15.8 26.8001C15.8 28.0001 16.8 29.0001 18 29.0001C19.2 29.0001 20.2 28.0001 20.2 26.8001C20.2 25.6001 19.2 24.6001 18 24.6001ZM18 27.7001C17.5 27.7001 17.2 27.3001 17.2 26.9001C17.2 26.4001 17.6 26.1001 18 26.1001C18.5 26.1001 18.8 26.5001 18.8 26.9001C18.8 27.3001 18.4 27.7001 18 27.7001Z" fill="#414141"/>
<path d="M23.5999 25.4L22.9999 25.2L22.6999 24.5L22.9999 23.9C23.1999 23.6 23.0999 23.3 22.8999 23L21.6999 21.8C21.4999 21.6 21.0999 21.5 20.7999 21.7L20.1999 22L19.4999 21.7L19.2999 21C19.1999 20.7 18.8999 20.5 18.5999 20.5H16.8999C16.5999 20.5 16.2999 20.7 16.1999 21L15.9999 21.7L15.2999 22L14.6999 21.7C14.3999 21.5 14.0999 21.6 13.7999 21.8L12.9999 23.1C12.7999 23.3 12.6999 23.7 12.8999 24L13.1999 24.6L12.9999 25.2L12.3999 25.4C12.0999 25.5 11.8999 25.8 11.8999 26.1V27.8C11.8999 28.1 12.0999 28.4 12.3999 28.5L12.9999 28.7L13.2999 29.4L12.9999 30C12.7999 30.3 12.8999 30.6 13.0999 30.9L14.2999 32.1C14.4999 32.3 14.8999 32.4 15.1999 32.2L15.7999 31.9L16.4999 32.2L16.6999 32.8C16.7999 33.1 17.0999 33.3 17.3999 33.3H19.0999C19.3999 33.3 19.6999 33.1 19.7999 32.8L19.9999 32.2L20.6999 31.9L21.1999 32.2C21.4999 32.4 21.7999 32.3 22.0999 32.1L23.2999 30.9C23.4999 30.7 23.5999 30.3 23.3999 30L23.0999 29.4L23.3999 28.7L23.9999 28.5C24.2999 28.4 24.4999 28.1 24.4999 27.8V26.1C24.1999 25.7 23.9999 25.4 23.5999 25.4ZM22.7999 27.2L22.2999 27.3C22.0999 27.4 21.8999 27.5 21.7999 27.7L21.2999 29C21.1999 29.2 21.1999 29.4 21.2999 29.6L21.4999 30L21.0999 30.4L20.6999 30.2C20.4999 30.1 20.2999 30.1 20.0999 30.2L18.7999 30.8C18.5999 30.9 18.3999 31.1 18.3999 31.3L18.2999 31.7H17.6999L17.5999 31.3C17.4999 31.1 17.3999 30.9 17.1999 30.8L15.8999 30.2C15.6999 30.1 15.4999 30.1 15.2999 30.2L14.8999 30.4L14.3999 30L14.5999 29.6C14.6999 29.4 14.6999 29.2 14.5999 29L13.9999 27.7C13.8999 27.5 13.6999 27.3 13.4999 27.3L12.9999 27.2V26.6L13.4999 26.5C13.6999 26.4 13.8999 26.3 13.9999 26.1L14.5999 24.8C14.6999 24.6 14.6999 24.4 14.5999 24.2L14.3999 23.8L14.7999 23.4L15.1999 23.6C15.3999 23.7 15.5999 23.7 15.7999 23.6L17.0999 23C17.2999 22.9 17.4999 22.7 17.4999 22.5L17.5999 22H18.1999L18.2999 22.5C18.3999 22.7 18.4999 22.9 18.6999 23L19.9999 23.6C20.1999 23.7 20.3999 23.7 20.5999 23.6L20.9999 23.4L21.3999 23.8L21.1999 24.2C21.0999 24.4 21.0999 24.6 21.1999 24.8L21.7999 26.1C21.8999 26.3 22.0999 26.5 22.2999 26.5L22.7999 26.6V27.2Z" fill="#414141"/>
</svg>
