<svg width="36" height="36" viewBox="0 0 36 36" fill="none" xmlns="http://www.w3.org/2000/svg">
<g clip-path="url(#clip0)">
<path d="M35.6 16.0001C34.6 11.7001 32.1 8.10006 28.4 5.70006C26.1 4.20006 23.5 3.40006 20.8 3.20006C20.8 2.90006 20.7 2.70006 20.6 2.40006C20.2 1.20006 19.2 0.500058 18 0.300058L15 5.82822e-05C13.4 -0.199942 11.8 0.400058 10.6 1.60006L1.59999 10.6001C0.399992 11.8001 -0.100008 13.4001 -8.4471e-06 15.0001L0.299992 18.0001C0.399992 19.2001 1.19999 20.2001 2.39999 20.6001C2.69999 20.7001 2.89999 20.7001 3.19999 20.8001C3.59999 26.0001 6.39999 30.6001 10.8 33.4001C13.5 35.1001 16.6 36.0001 19.6 36.0001C25 36.0001 30.4 33.3001 33.5 28.4001C35.8 24.7001 36.6 20.3001 35.6 16.0001ZM7.09999 18.5001L10.8 14.8001C10.9 14.9001 11 14.9001 11.1 14.9001C11.3 14.9001 11.6 14.8001 11.7 14.6001C11.9 14.4001 11.9 14.1001 11.7 13.8001L14.1 11.4001C14.2 11.5001 14.4 11.6001 14.6 11.6001C14.7 11.6001 14.9 11.6001 15 11.5001C15.4 11.3001 15.5 10.8001 15.3 10.5001C15.3 10.5001 15.3 10.4001 15.2 10.4001L18.5 7.10006C21.3 6.90006 24 7.50006 26.3 9.00006C32.1 12.7001 33.8 20.4001 30.1 26.3001C28.3 29.1001 25.5 31.1001 22.3 31.8001C19 32.5001 15.7 31.9001 12.9 30.1001C10.9 28.8001 9.29999 27.0001 8.29999 24.9001C7.29999 22.9001 6.89999 20.7001 7.09999 18.5001ZM1.79999 17.9001L1.49999 14.9001C1.39999 13.7001 1.79999 12.5001 2.59999 11.7001L11.6 2.70006C12.4 1.90006 13.6 1.40006 14.8 1.60006L17.8 1.90006C18.4 2.00006 19 2.40006 19.2 3.00006C19.4 3.60006 19.3 4.30006 18.8 4.70006L4.59999 18.9001C4.09999 19.4001 3.49999 19.5001 2.89999 19.3001C2.29999 19.0001 1.89999 18.5001 1.79999 17.9001ZM32.2 27.6001C29.4 32.1001 24.5 34.5001 19.6 34.5001C16.9 34.5001 14.1 33.7001 11.6 32.2001C7.59999 29.6001 4.99999 25.3001 4.69999 20.6001C4.99999 20.5001 5.29999 20.3001 5.59999 20.0001C5.69999 21.9001 6.09999 23.8001 6.89999 25.5001C7.99999 27.9001 9.79999 29.9001 12.1 31.4001C14.4 32.8001 17 33.6001 19.6 33.6001C20.6 33.6001 21.7 33.5001 22.7 33.3001C26.3 32.5001 29.5 30.3001 31.5 27.1001C35.6 20.6001 33.7 11.9001 27.2 7.80006C25 6.40006 22.5 5.70006 20 5.60006C20.2 5.30006 20.4 5.00006 20.6 4.70006C23.1 4.90006 25.5 5.70006 27.6 7.00006C31 9.10006 33.3 12.5001 34.2 16.3001C35 20.2001 34.3 24.2001 32.2 27.6001Z" fill="#99AEC9"/>
<path d="M15.5 25.8999C16.7 26.6999 18.1 27.0999 19.5 27.0999C20 27.0999 20.6 26.9999 21.1 26.8999C23.1 26.4999 24.7 25.2999 25.8 23.5999C26.9 21.8999 27.2 19.8999 26.8 17.8999C26.4 15.8999 25.2 14.2999 23.5 13.1999C20 10.9999 15.4 11.9999 13.1 15.4999C11 18.9999 12 23.6999 15.5 25.8999ZM14.5 16.3999C15.6 14.5999 17.6 13.5999 19.6 13.5999C20.7 13.5999 21.8 13.8999 22.8 14.4999C24.2 15.3999 25.1 16.6999 25.4 18.2999C25.7 19.8999 25.5 21.4999 24.6 22.7999C23.7 24.1999 22.4 25.0999 20.8 25.3999C19.2 25.6999 17.6 25.4999 16.3 24.5999C13.5 22.8999 12.7 19.1999 14.5 16.3999Z" fill="#414141"/>
<path d="M28.7999 23.5999C28.8999 23.5999 29 23.5999 29 23.5999C29.3 23.5999 29.6 23.3999 29.7 23.0999C29.8 22.6999 29.6 22.2999 29.2 22.0999C28.8 21.9999 28.4 22.1999 28.2 22.5999C28.2 22.9999 28.3999 23.3999 28.7999 23.5999Z" fill="#99AEC9"/>
<path d="M27.6999 14.4001C27.8999 14.4001 27.9999 14.4001 28.0999 14.3001C28.3999 14.1001 28.4999 13.6001 28.2999 13.3001C28.0999 13.0001 27.5999 12.9001 27.2999 13.1001C26.9999 13.3001 26.8999 13.8001 27.0999 14.1001C27.1999 14.3001 27.3999 14.4001 27.6999 14.4001Z" fill="#99AEC9"/>
<path d="M29.5 18.8001H29.6C30 18.7001 30.3 18.4001 30.2 17.9001C30.1 17.5001 29.8 17.2001 29.3 17.3001C28.9 17.4001 28.6 17.7001 28.7 18.2001C28.8 18.5001 29.1 18.8001 29.5 18.8001Z" fill="#99AEC9"/>
<path d="M17.6 28.7C17.2 28.6 16.8 28.9 16.7 29.3C16.6 29.7 16.9 30.1 17.3 30.2C17.4 30.2 17.4 30.2 17.5 30.2C17.8 30.2 18.2 30 18.2 29.6C18.3 29.1 18 28.7 17.6 28.7Z" fill="#99AEC9"/>
<path d="M22.0999 28.5001C21.6999 28.6001 21.4999 29.0001 21.5999 29.4001C21.6999 29.7001 21.9999 29.9001 22.2999 29.9001C22.3999 29.9001 22.3999 29.9001 22.4999 29.9001C22.8999 29.8001 23.0999 29.4001 22.9999 29.0001C22.8999 28.6001 22.4999 28.4001 22.0999 28.5001Z" fill="#99AEC9"/>
<path d="M25.9 26.2999C25.6 26.5999 25.6 27.0999 25.9 27.3999C26 27.5999 26.2 27.5999 26.4 27.5999C26.6 27.5999 26.8 27.4999 26.9 27.3999C27.2 27.0999 27.2 26.5999 26.9 26.2999C26.7 26.0999 26.2 26.0999 25.9 26.2999Z" fill="#99AEC9"/>
<path d="M13.6 26.7002C13.3 26.4002 12.8 26.5002 12.5 26.8002C12.2 27.1002 12.3 27.6002 12.6 27.9002C12.8 28.0002 13 28.0002 13.2 28.0002C13.4 28.0002 13.6 27.9002 13.8 27.7002C14 27.5002 14 27.0002 13.6 26.7002Z" fill="#99AEC9"/>
<path d="M23.6 11.2001C23.7 11.3001 23.8 11.3001 23.9 11.3001C24.2 11.3001 24.4 11.1001 24.6 10.9001C24.8 10.5001 24.6 10.1001 24.3 9.90009C23.9 9.70009 23.5 9.90009 23.3 10.2001C23.1 10.6001 23.3 11.0001 23.6 11.2001Z" fill="#99AEC9"/>
<path d="M9.99995 22.7001C9.59995 22.9001 9.39995 23.3001 9.59995 23.7001C9.69995 24.0001 9.99995 24.2001 10.2999 24.2001C10.3999 24.2001 10.4999 24.2001 10.5999 24.1001C10.9999 23.9001 11.1999 23.5001 10.9999 23.1001C10.7999 22.8001 10.3999 22.6001 9.99995 22.7001Z" fill="#99AEC9"/>
<path d="M9.50005 19.4001C9.50005 19.4001 9.60005 19.4001 9.50005 19.4001C10 19.4001 10.3 19.1001 10.3 18.7001C10.3 18.3001 10 17.9001 9.60005 17.9001C9.20005 17.9001 8.80005 18.2001 8.80005 18.6001C8.80005 19.0001 9.10005 19.4001 9.50005 19.4001Z" fill="#99AEC9"/>
<path d="M19.3 10.3C19.7 10.3 20.1 9.90005 20 9.50005C20 9.10005 19.6 8.80005 19.2 8.80005C18.8 8.80005 18.5 9.20005 18.5 9.60005C18.5 10 18.9 10.3 19.3 10.3Z" fill="#99AEC9"/>
<path d="M16.8001 23.9C17.6001 24.4 18.6001 24.7 19.5001 24.7C19.9001 24.7 20.3001 24.7 20.6001 24.6C21.9001 24.3 23.1001 23.5 23.8001 22.3C24.5001 21.1 24.8001 19.8 24.5001 18.4C24.2001 17.1 23.4001 15.9 22.2001 15.2C19.8001 13.7 16.6001 14.4 15.1001 16.8C13.7001 19.2 14.4001 22.4 16.8001 23.9ZM16.5001 17.6C17.2001 16.5 18.4001 15.9 19.6001 15.9C20.3001 15.9 20.9001 16.1 21.6001 16.5C22.4001 17 23.0001 17.8 23.2001 18.8C23.4001 19.8 23.2001 20.7 22.7001 21.6C22.2001 22.4 21.4001 23 20.4001 23.2C19.4001 23.4 18.5001 23.2 17.6001 22.7C15.9001 21.6 15.4001 19.3 16.5001 17.6Z" fill="#414141"/>
<path d="M5.6001 15.2C6.1001 15.2 6.6001 15 7.0001 14.6C7.4001 14.2 7.6001 13.7 7.6001 13.2C7.6001 12.7 7.4001 12.2 7.0001 11.8C6.6001 11.4 6.1001 11.2 5.6001 11.2C5.1001 11.2 4.6001 11.4 4.2001 11.8C3.8001 12.2 3.6001 12.7 3.6001 13.2C3.6001 13.7 3.8001 14.2 4.2001 14.6C4.6001 15 5.1001 15.2 5.6001 15.2ZM5.3001 13C5.4001 12.9 5.5001 12.9 5.6001 12.9C5.7001 12.9 5.8001 12.9 5.9001 13C6.0001 13.1 6.0001 13.2 6.0001 13.3C6.0001 13.4 6.0001 13.5 5.9001 13.6C5.8001 13.7 5.7001 13.7 5.6001 13.7C5.5001 13.7 5.4001 13.7 5.3001 13.6C5.2001 13.5 5.2001 13.4 5.2001 13.3C5.2001 13.2 5.2001 13.1 5.3001 13Z" fill="#414141"/>
<path d="M13.3 7.5C13.8 7.5 14.3 7.3 14.7 6.9C15.1 6.5 15.3 6 15.3 5.5C15.3 5 15.1 4.5 14.7 4.1C14.3 3.7 13.8 3.5 13.3 3.5C12.8 3.5 12.3 3.7 11.9 4.1C11.5 4.5 11.3 5 11.3 5.5C11.3 6 11.5 6.5 11.9 6.9C12.3 7.3 12.8 7.5 13.3 7.5ZM13 5.3C13.1 5.2 13.2 5.2 13.3 5.2C13.4 5.2 13.5 5.2 13.6 5.3C13.7 5.4 13.7 5.5 13.7 5.6C13.7 5.7 13.7 5.8 13.6 5.9C13.5 6 13.4 6 13.3 6C13.2 6 13.1 6 13 5.9C12.9 5.8 12.9 5.7 12.9 5.6C12.9 5.5 12.9 5.4 13 5.3Z" fill="#414141"/>
</g>
<defs>
<clipPath id="clip0">
<rect width="36" height="36" fill="white"/>
</clipPath>
</defs>
</svg>
