<svg xmlns="http://www.w3.org/2000/svg" xmlns:xlink="http://www.w3.org/1999/xlink" preserveAspectRatio="xMidYMid" width="16" height="16" viewBox="0 0 16 16">
  <path d="M15.481,16.000 L11.925,16.000 C11.638,16.000 11.406,15.761 11.406,15.463 L11.406,7.665 C11.406,7.368 11.638,7.128 11.925,7.128 L15.481,7.128 C15.768,7.128 16.000,7.368 16.000,7.665 L16.000,15.463 C16.000,15.761 15.768,16.000 15.481,16.000 ZM12.445,8.201 L12.445,9.035 L13.252,8.201 L12.445,8.201 ZM14.075,8.205 L12.445,9.890 L12.445,10.741 L14.899,8.205 L14.075,8.205 ZM14.961,8.987 L12.445,11.588 L12.445,12.439 L14.961,9.838 L14.961,8.987 ZM14.961,10.689 L12.445,13.290 L12.445,14.141 L14.961,11.540 L14.961,10.689 ZM14.958,13.239 L14.958,12.391 L12.504,14.927 L13.328,14.927 L14.961,13.239 L14.958,13.239 ZM14.961,14.090 L14.151,14.927 L14.961,14.927 L14.961,14.090 ZM9.776,16.000 L6.221,16.000 C5.933,16.000 5.701,15.761 5.701,15.463 L5.701,0.536 C5.701,0.239 5.933,-0.000 6.221,-0.000 L9.779,-0.000 C10.067,-0.000 10.298,0.239 10.295,0.536 L10.295,15.463 C10.295,15.761 10.063,16.000 9.776,16.000 ZM4.074,16.000 L0.519,16.000 C0.231,16.000 -0.000,15.761 -0.000,15.463 L-0.000,4.849 C-0.000,4.552 0.231,4.312 0.519,4.312 L4.074,4.312 C4.362,4.312 4.597,4.552 4.593,4.849 L4.593,15.463 C4.593,15.761 4.362,16.000 4.074,16.000 ZM3.555,5.386 L1.038,5.386 L1.038,14.927 L3.555,14.927 L3.555,5.386 Z" class="cls-1"/>
</svg>
