<svg width="36" height="36" viewBox="0 0 36 36" fill="none" xmlns="http://www.w3.org/2000/svg">
<g clip-path="url(#clip0)">
<path d="M23.2 7.5H10.5C4.7 7.5 0 12.2 0 18C0 23.8 4.7 28.5 10.5 28.5H23.2C23.6 28.5 23.9 28.2 23.9 27.8V8.2C23.9 7.8 23.6 7.5 23.2 7.5ZM22.5 27.2H10.5C5.5 27.2 1.4 23.1 1.4 18.1C1.4 13.1 5.5 9 10.5 9H17.3V21.8C17.3 22.2 17.6 22.5 18 22.5C18.4 22.5 18.7 22.2 18.7 21.8V8.9H22.5V27.2Z" fill="#99AEC9"/>
<path d="M18.5 24.5C18.4 24.4 18.2 24.3 18 24.3C17.8 24.3 17.6 24.4 17.5 24.5C17.4 24.6 17.3 24.8 17.3 25C17.3 25.2 17.4 25.4 17.5 25.5C17.6 25.6 17.8 25.7001 18 25.7001C18.2 25.7001 18.4 25.6 18.5 25.5C18.6 25.4 18.7001 25.2 18.7001 25C18.7001 24.8 18.7 24.7 18.5 24.5Z" fill="#414141"/>
<path d="M35.3 17.3H27C26.6 17.3 26.3 17.6 26.3 18C26.3 18.4 26.6 18.7001 27 18.7001H35.3C35.7 18.7001 36 18.4 36 18C36 17.6 35.7 17.3 35.3 17.3Z" fill="#414141"/>
<path d="M35.9999 12.7C35.8999 12.3 35.4999 12.1 35.0999 12.2L26.7999 14.4C26.3999 14.5 26.1999 14.9 26.2999 15.3C26.3999 15.6 26.6999 15.8 26.9999 15.8C27.0999 15.8 27.0999 15.8 27.1999 15.8L35.4999 13.6C35.8999 13.5 36.0999 13.1 35.9999 12.7Z" fill="#414141"/>
<path d="M35.9 6.70009C35.7 6.40009 35.3 6.20009 34.9 6.40009L26.6 11.2001C26.3 11.4001 26.1 11.8001 26.3 12.2001C26.4 12.4001 26.7 12.6001 26.9 12.6001C27 12.6001 27.1 12.6001 27.3 12.5001L35.6 7.70009C36 7.40009 36.1 7.00009 35.9 6.70009Z" fill="#414141"/>
<path d="M35.4999 22.4L27.1999 20.2C26.7999 20.1 26.3999 20.3 26.2999 20.7C26.1999 21.1 26.3999 21.5 26.7999 21.6L35.0999 23.8C35.1999 23.8 35.1999 23.8 35.2999 23.8C35.5999 23.8 35.8999 23.6 35.9999 23.3C36.0999 22.9 35.8999 22.5 35.4999 22.4Z" fill="#414141"/>
<path d="M35.5999 28.4L27.3 23.6C27 23.4 26.5 23.5 26.3 23.9C26.1 24.2 26.2 24.7 26.6 24.9L34.9 29.7C35 29.8 35.1 29.8 35.3 29.8C35.5 29.8 35.8 29.7 35.9 29.4C36.1 29 35.9999 28.6 35.5999 28.4Z" fill="#414141"/>
</g>
<defs>
<clipPath id="clip0">
<rect width="36" height="36" fill="white"/>
</clipPath>
</defs>
</svg>
