<svg xmlns="http://www.w3.org/2000/svg" xmlns:xlink="http://www.w3.org/1999/xlink" preserveAspectRatio="xMidYMid" width="30.03" height="20" viewBox="0 0 30.03 20">
  <path d="M29.821,7.847 C29.749,8.060 29.496,8.227 29.285,8.227 C28.371,8.227 27.457,8.227 26.544,8.227 C26.543,8.263 26.541,8.298 26.537,8.332 C27.115,8.513 27.536,9.066 27.536,9.720 L27.536,15.807 L27.536,16.169 L27.536,19.302 C27.536,19.687 27.233,19.999 26.859,19.999 L23.453,19.999 C23.079,19.999 22.776,19.687 22.776,19.302 L22.776,17.619 L22.225,17.619 L21.050,14.678 C20.995,14.539 20.864,14.449 20.718,14.449 L9.285,14.449 C9.140,14.449 9.009,14.539 8.953,14.678 L7.778,17.619 L7.227,17.619 L7.227,19.302 C7.227,19.687 6.924,19.999 6.550,19.999 L3.144,19.999 C2.770,19.999 2.467,19.687 2.467,19.302 L2.467,16.169 L2.467,15.807 L2.467,9.720 C2.467,9.066 2.888,8.513 3.466,8.332 C3.462,8.298 3.460,8.263 3.460,8.227 C2.546,8.227 1.632,8.227 0.718,8.227 C0.507,8.227 0.254,8.060 0.182,7.847 C-0.096,7.012 -0.096,6.535 0.182,5.701 C0.254,5.487 0.507,5.320 0.718,5.320 C1.634,5.320 2.549,5.320 3.465,5.320 C3.676,5.320 3.929,5.487 4.001,5.701 C4.099,5.996 4.162,6.245 4.191,6.482 C5.399,4.086 6.736,1.421 6.736,1.421 C6.868,1.042 7.186,0.765 7.570,0.693 C10.045,0.232 12.546,-0.001 15.002,-0.001 C17.459,-0.001 19.959,0.232 22.434,0.693 C22.818,0.765 23.135,1.042 23.267,1.421 C23.267,1.421 24.604,4.086 25.812,6.482 C25.841,6.245 25.904,5.996 26.002,5.701 C26.074,5.487 26.327,5.320 26.538,5.320 C27.454,5.320 28.369,5.320 29.285,5.320 C29.496,5.320 29.749,5.487 29.821,5.701 C30.099,6.535 30.099,7.012 29.821,7.847 ZM5.262,12.599 L10.627,12.599 L9.398,10.632 L5.262,10.632 L5.262,12.599 ZM21.757,2.242 C21.757,2.242 20.121,1.814 15.002,1.814 C9.882,1.814 8.246,2.242 8.246,2.242 L5.845,8.227 L24.158,8.227 L21.757,2.242 ZM24.741,10.632 L20.605,10.632 L19.376,12.599 L24.741,12.599 L24.741,10.632 ZM9.525,15.188 L20.478,15.188 L21.449,17.619 L21.618,18.040 L19.506,18.040 C19.509,18.021 19.512,18.002 19.512,17.983 L19.512,17.619 L19.512,16.928 C19.512,16.724 19.351,16.558 19.153,16.558 C18.955,16.558 18.794,16.724 18.794,16.928 L18.794,17.619 L18.794,17.983 C18.794,18.002 18.797,18.021 18.800,18.040 L15.355,18.040 C15.358,18.021 15.360,18.002 15.360,17.983 L15.360,17.619 L15.360,16.928 C15.360,16.724 15.200,16.558 15.002,16.558 C14.803,16.558 14.643,16.724 14.643,16.928 L14.643,17.619 L14.643,17.983 C14.643,18.002 14.645,18.021 14.648,18.040 L11.204,18.040 C11.206,18.021 11.209,18.002 11.209,17.983 L11.209,17.619 L11.209,16.928 C11.209,16.724 11.049,16.558 10.850,16.558 C10.652,16.558 10.492,16.724 10.492,16.928 L10.492,17.619 L10.492,17.983 C10.492,18.002 10.494,18.021 10.497,18.040 L8.385,18.040 L8.554,17.619 L9.525,15.188 Z" class="cls-1"/>
</svg>
