<svg xmlns="http://www.w3.org/2000/svg" xmlns:xlink="http://www.w3.org/1999/xlink" preserveAspectRatio="xMidYMid" width="24" height="24" viewBox="0 0 24 24">
  <defs>
    <style>
      .cls-1 {
        fill: #fff;
        fill-rule: evenodd;
      }
    </style>
  </defs>
  <path d="M10.843,11.998 L0.214,22.698 C-0.081,22.995 -0.081,23.477 0.214,23.774 C0.361,23.923 0.555,23.997 0.748,23.997 C0.942,23.997 1.135,23.923 1.283,23.774 L11.992,12.993 L22.701,23.774 C22.849,23.923 23.042,23.997 23.235,23.997 C23.429,23.997 23.622,23.923 23.770,23.774 C24.065,23.477 24.065,22.995 23.770,22.698 L13.141,11.998 L23.777,1.291 C24.072,0.993 24.072,0.512 23.777,0.215 C23.482,-0.082 23.003,-0.082 22.708,0.215 L11.992,11.002 L1.275,0.215 C0.980,-0.082 0.502,-0.082 0.206,0.215 C-0.089,0.512 -0.089,0.994 0.206,1.291 L10.843,11.998 Z" class="cls-1"/>
</svg>
