<svg xmlns="http://www.w3.org/2000/svg" xmlns:xlink="http://www.w3.org/1999/xlink" preserveAspectRatio="xMidYMid" width="22" height="12" viewBox="0 0 22 12">
  <path d="M21.622,6.481 C21.578,6.538 20.512,7.885 18.684,9.237 C16.242,11.044 13.585,12.000 11.000,12.000 C8.415,12.000 5.758,11.044 3.316,9.237 C1.488,7.885 0.422,6.538 0.378,6.481 L-0.000,6.000 L0.378,5.518 C0.422,5.461 1.488,4.114 3.316,2.762 C5.758,0.955 8.415,-0.001 11.000,-0.001 C13.585,-0.001 16.242,0.955 18.684,2.762 C20.512,4.114 21.578,5.461 21.622,5.518 L22.000,6.000 L21.622,6.481 ZM11.000,1.796 C9.899,1.796 8.897,2.228 8.150,2.932 L7.511,2.206 C6.208,2.691 5.100,3.372 4.263,3.987 C3.227,4.750 2.450,5.520 2.007,6.000 C2.450,6.478 3.227,7.249 4.263,8.012 C5.100,8.627 6.208,9.308 7.511,9.792 C6.499,8.847 5.864,7.497 5.864,6.000 C5.864,5.582 5.913,5.175 6.007,4.786 L6.959,4.947 C6.873,5.284 6.827,5.636 6.827,6.000 C6.827,8.317 8.699,10.203 11.000,10.203 C13.301,10.203 15.173,8.317 15.173,6.000 C15.173,3.682 13.301,1.796 11.000,1.796 ZM17.737,3.987 C16.900,3.372 15.792,2.691 14.489,2.206 C15.501,3.152 16.136,4.502 16.136,5.999 C16.136,7.497 15.501,8.847 14.489,9.792 C15.792,9.308 16.900,8.627 17.737,8.012 C18.773,7.249 19.549,6.478 19.992,5.999 C19.549,5.521 18.773,4.750 17.737,3.987 ZM11.000,8.796 C9.467,8.796 8.224,7.544 8.224,6.000 C8.224,5.715 8.266,5.441 8.344,5.183 L10.446,5.539 L9.077,3.984 C9.576,3.501 10.253,3.203 11.000,3.203 C12.533,3.203 13.776,4.455 13.776,6.000 C13.776,7.544 12.533,8.796 11.000,8.796 Z" class="cls-1"/>
</svg>
