<svg xmlns="http://www.w3.org/2000/svg" xmlns:xlink="http://www.w3.org/1999/xlink" preserveAspectRatio="xMidYMid" width="50" height="50" viewBox="0 0 50 50">
  <path d="M49.984,26.181 C49.717,31.405 47.998,36.110 44.796,40.257 C42.359,43.414 39.326,45.846 35.724,47.565 C33.650,48.554 31.482,49.252 29.212,49.611 C28.312,49.753 27.401,49.829 26.493,49.918 C26.106,49.956 25.715,49.948 25.326,49.965 C25.242,49.968 25.160,49.988 25.077,50.000 C25.020,50.000 24.964,50.000 24.907,50.000 C24.819,49.988 24.730,49.969 24.641,49.964 C23.898,49.924 23.151,49.917 22.411,49.842 C20.214,49.619 18.080,49.115 16.018,48.318 C12.484,46.952 9.407,44.898 6.808,42.146 C3.728,38.883 1.666,35.065 0.631,30.698 C0.394,29.695 0.234,28.680 0.116,27.656 C-0.028,26.403 -0.059,25.146 -0.003,23.890 C0.142,20.602 0.900,17.456 2.295,14.470 C3.792,11.264 5.875,8.494 8.543,6.170 C11.728,3.396 15.388,1.537 19.513,0.615 C20.428,0.411 21.364,0.292 22.295,0.163 C23.585,-0.017 24.888,-0.031 26.184,0.036 C31.361,0.305 36.035,1.986 40.162,5.127 C43.607,7.750 46.196,11.055 47.939,15.016 C48.728,16.812 49.304,18.675 49.622,20.612 C49.755,21.415 49.873,22.226 49.922,23.037 C49.985,24.083 50.037,25.136 49.984,26.181 ZM25.005,1.655 C12.135,1.655 1.687,12.041 1.623,24.866 C1.558,37.903 12.155,48.350 24.991,48.321 C37.859,48.343 48.255,37.936 48.365,25.211 C48.478,12.160 37.894,1.656 25.005,1.655 ZM27.664,44.439 C27.155,44.507 26.644,44.555 26.134,44.612 C25.474,44.612 24.814,44.612 24.155,44.612 C23.634,44.554 23.112,44.506 22.593,44.437 C18.522,43.900 14.960,42.250 11.935,39.484 C8.608,36.444 6.515,32.691 5.817,28.245 C4.840,22.023 6.457,16.498 10.676,11.801 C13.603,8.541 17.280,6.546 21.590,5.734 C22.336,5.594 23.100,5.548 23.856,5.456 C23.956,5.444 24.055,5.421 24.155,5.403 C24.794,5.403 25.433,5.403 26.072,5.403 C26.172,5.420 26.272,5.442 26.373,5.454 C27.140,5.546 27.915,5.589 28.671,5.732 C33.193,6.587 36.978,8.749 39.984,12.227 C42.562,15.209 44.091,18.671 44.577,22.584 C44.648,23.153 44.694,23.726 44.751,24.297 C44.751,24.771 44.751,25.244 44.751,25.718 C44.686,26.371 44.646,27.027 44.553,27.677 C43.956,31.865 42.216,35.514 39.279,38.565 C36.099,41.869 32.220,43.831 27.664,44.439 ZM26.072,21.140 C26.074,20.596 26.252,20.417 26.793,20.415 C27.201,20.413 27.609,20.415 28.029,20.415 C28.029,19.655 28.029,18.939 28.029,18.175 C27.261,18.175 26.520,18.145 25.782,18.182 C24.735,18.235 23.983,18.757 23.655,19.766 C23.521,20.178 23.489,20.629 23.457,21.066 C23.425,21.513 23.450,21.964 23.450,22.445 C23.012,22.445 22.615,22.445 22.212,22.445 C22.212,23.232 22.212,23.985 22.212,24.778 C22.630,24.778 23.026,24.778 23.455,24.778 C23.455,26.992 23.455,29.167 23.455,31.359 C24.341,31.359 25.191,31.359 26.077,31.359 C26.077,29.158 26.077,26.974 26.077,24.770 C26.462,24.770 26.811,24.770 27.161,24.770 C27.824,24.770 27.831,24.770 27.906,24.113 C27.968,23.566 28.010,23.017 28.064,22.433 C27.380,22.433 26.736,22.433 26.072,22.433 C26.072,21.980 26.071,21.560 26.072,21.140 Z" class="cls-1"/>
</svg>
