<svg xmlns="http://www.w3.org/2000/svg" xmlns:xlink="http://www.w3.org/1999/xlink" preserveAspectRatio="xMidYMid" width="39.719" height="40" viewBox="0 0 39.719 40">
  <path d="M19.852,40.000 C8.888,40.000 -0.000,31.045 -0.000,20.000 C-0.000,8.954 8.888,-0.000 19.852,-0.000 C30.817,-0.000 39.705,8.954 39.705,20.000 C39.705,31.045 30.817,40.000 19.852,40.000 ZM19.852,0.857 C9.632,0.857 0.851,9.704 0.851,20.000 C0.851,30.296 9.632,39.142 19.852,39.142 C30.073,39.142 38.854,30.296 38.854,20.000 C38.854,9.704 30.073,0.857 19.852,0.857 ZM23.108,17.498 L22.865,20.006 L20.984,20.006 C20.984,23.187 20.984,27.104 20.984,27.104 L18.195,27.104 C18.195,27.104 18.195,23.225 18.195,20.006 L16.869,20.006 L16.869,17.498 L18.195,17.498 L18.195,15.876 C18.195,14.714 18.717,12.899 21.009,12.899 L23.074,12.907 L23.074,15.341 C23.074,15.341 21.818,15.341 21.575,15.341 C21.330,15.341 20.984,15.471 20.984,16.024 L20.984,17.498 L23.108,17.498 Z" class="cls-1"/>
</svg>
