<svg xmlns="http://www.w3.org/2000/svg" xmlns:xlink="http://www.w3.org/1999/xlink" preserveAspectRatio="xMidYMid" width="16" height="16" viewBox="0 0 16 16">
  <path d="M15.519,10.877 C15.857,10.459 16.018,10.011 15.998,9.549 C15.977,9.040 15.743,8.642 15.550,8.398 C15.774,7.856 15.860,7.003 15.113,6.340 C14.566,5.855 13.637,5.638 12.349,5.698 C11.444,5.738 10.687,5.902 10.656,5.909 L10.653,5.909 C10.480,5.939 10.298,5.976 10.112,6.016 C10.098,5.802 10.136,5.270 10.542,4.072 C11.024,2.646 10.997,1.556 10.453,0.826 C9.882,0.060 8.969,-0.000 8.701,-0.000 C8.443,-0.000 8.205,0.103 8.037,0.294 C7.655,0.726 7.699,1.522 7.748,1.890 C7.293,3.075 6.020,5.979 4.942,6.785 C4.922,6.799 4.904,6.815 4.887,6.832 C4.571,7.157 4.357,7.508 4.213,7.816 C4.010,7.708 3.779,7.649 3.531,7.649 L1.432,7.649 C0.640,7.649 -0.000,8.274 -0.000,9.040 L-0.000,14.477 C-0.000,15.247 0.643,15.869 1.432,15.869 L3.531,15.869 C3.838,15.869 4.123,15.776 4.357,15.615 L5.166,15.709 C5.290,15.725 7.493,15.996 9.754,15.953 C10.164,15.983 10.549,16.000 10.907,16.000 C11.523,16.000 12.060,15.953 12.508,15.859 C13.561,15.642 14.280,15.207 14.645,14.568 C14.924,14.079 14.924,13.594 14.879,13.286 C15.564,12.684 15.685,12.018 15.660,11.550 C15.647,11.279 15.585,11.048 15.519,10.877 ZM1.432,14.966 C1.153,14.966 0.929,14.745 0.929,14.477 L0.929,9.037 C0.929,8.766 1.156,8.549 1.432,8.549 L3.531,8.549 C3.810,8.549 4.034,8.769 4.034,9.037 L4.034,14.474 C4.034,14.745 3.807,14.963 3.531,14.963 L1.432,14.963 L1.432,14.966 ZM14.638,10.486 C14.494,10.633 14.466,10.857 14.576,11.031 C14.576,11.035 14.717,11.268 14.735,11.590 C14.759,12.028 14.542,12.416 14.087,12.748 C13.926,12.868 13.860,13.075 13.929,13.263 C13.929,13.266 14.077,13.708 13.836,14.126 C13.606,14.527 13.093,14.815 12.315,14.976 C11.692,15.106 10.845,15.130 9.806,15.049 C9.792,15.049 9.775,15.049 9.758,15.049 C7.544,15.096 5.307,14.815 5.283,14.812 L5.280,14.812 L4.932,14.772 C4.953,14.678 4.963,14.578 4.963,14.477 L4.963,9.037 C4.963,8.893 4.939,8.753 4.898,8.622 C4.960,8.398 5.132,7.899 5.538,7.475 C7.083,6.283 8.594,2.265 8.660,2.091 C8.687,2.020 8.694,1.944 8.680,1.867 C8.622,1.492 8.642,1.034 8.725,0.896 C8.907,0.900 9.400,0.950 9.696,1.348 C10.047,1.820 10.033,2.663 9.654,3.780 C9.076,5.484 9.028,6.380 9.486,6.775 C9.713,6.972 10.016,6.983 10.236,6.906 C10.446,6.859 10.646,6.818 10.835,6.789 C10.849,6.785 10.866,6.782 10.880,6.778 C11.936,6.554 13.829,6.417 14.487,6.999 C15.044,7.494 14.649,8.150 14.604,8.221 C14.476,8.408 14.514,8.652 14.686,8.803 C14.690,8.806 15.051,9.137 15.068,9.582 C15.082,9.880 14.938,10.185 14.638,10.486 Z" class="cls-1"/>
</svg>
