<svg xmlns="http://www.w3.org/2000/svg" xmlns:xlink="http://www.w3.org/1999/xlink" preserveAspectRatio="xMidYMid" width="39.687" height="40" viewBox="0 0 39.687 40">
  <path d="M19.849,40.000 C8.885,40.000 -0.003,31.045 -0.003,20.000 C-0.003,8.954 8.885,-0.000 19.849,-0.000 C30.814,-0.000 39.702,8.954 39.702,20.000 C39.702,31.045 30.814,40.000 19.849,40.000 ZM19.849,0.857 C9.629,0.857 0.848,9.704 0.848,20.000 C0.848,30.296 9.629,39.142 19.849,39.142 C30.070,39.142 38.851,30.296 38.851,20.000 C38.851,9.704 30.070,0.857 19.849,0.857 ZM22.757,27.105 L16.993,27.105 C15.810,27.105 14.788,26.715 14.038,25.978 C13.265,25.218 12.856,24.160 12.856,22.917 L12.856,17.048 C12.856,14.563 14.506,12.893 16.960,12.893 L22.789,12.893 C23.988,12.893 25.016,13.295 25.762,14.057 C26.502,14.812 26.893,15.846 26.893,17.048 L26.893,22.950 C26.893,24.184 26.493,25.232 25.737,25.980 C24.992,26.716 23.962,27.105 22.757,27.105 ZM25.601,17.048 C25.601,16.199 25.340,15.483 24.844,14.978 C24.346,14.470 23.636,14.201 22.789,14.201 L16.960,14.201 C16.109,14.201 15.398,14.464 14.905,14.960 C14.410,15.458 14.148,16.181 14.148,17.048 L14.148,22.917 C14.148,23.798 14.421,24.531 14.938,25.039 C15.442,25.535 16.153,25.797 16.993,25.797 L22.757,25.797 C23.618,25.797 24.336,25.537 24.834,25.045 C25.336,24.548 25.601,23.824 25.601,22.950 L25.601,17.048 ZM23.622,17.044 C23.169,17.044 22.802,16.672 22.802,16.214 C22.802,15.755 23.169,15.383 23.622,15.383 C24.075,15.383 24.442,15.755 24.442,16.214 C24.442,16.672 24.075,17.044 23.622,17.044 ZM19.875,23.615 C17.883,23.615 16.264,21.975 16.264,19.959 C16.264,17.943 17.883,16.303 19.875,16.303 C21.866,16.303 23.486,17.943 23.486,19.959 C23.486,21.975 21.866,23.615 19.875,23.615 ZM19.875,17.611 C18.596,17.611 17.556,18.664 17.556,19.959 C17.556,21.254 18.596,22.307 19.875,22.307 C21.154,22.307 22.194,21.254 22.194,19.959 C22.194,18.664 21.154,17.611 19.875,17.611 Z" class="cls-1"/>
</svg>
