<svg version="1.1" xmlns="http://www.w3.org/2000/svg" xmlns:xlink="http://www.w3.org/1999/xlink" x="0px" y="0px" viewBox="0 0 1474.8 1476.3" xml:space="preserve" width="54" height="54">
 <g>
   <linearGradient id="inst-hover_1_" gradientUnits="userSpaceOnUse" x1="246.5112" y1="1282.8043" x2="1230.5111" y2="190.8043">
     <stop offset="0" style="stop-color:#FDD955"></stop>
     <stop offset="0.2463" style="stop-color:#F89832"></stop>
     <stop offset="0.3793" style="stop-color:#FD361C"></stop>
     <stop offset="0.5394" style="stop-color:#DE234D"></stop>
     <stop offset="0.6995" style="stop-color:#C01278"></stop>
     <stop offset="0.9122" style="stop-color:#6E3E97"></stop>
     <stop offset="0.9852" style="stop-color:#504BA0"></stop>
   </linearGradient>
   <path fill="url(#inst-hover_1_)" d="M1472.3,680.2c-1.5-24-4.9-47.9-8.8-71.6c-9.4-57.2-26.4-112.2-49.6-165.2
c-51.4-117-127.7-214.5-229.2-292C1063,58.7,925.3,9,772.7,1.1c-38.2-2-76.6-1.6-114.6,3.7c-27.4,3.8-55,7.3-82,13.4
c-121.6,27.2-229.5,82.1-323.3,164c-78.7,68.6-140,150.4-184.2,245C27.4,515.4,5,608.3,0.8,705.4c-1.6,37.1-0.7,74.2,3.5,111.2
c3.5,30.2,8.2,60.2,15.2,89.8c30.5,128.9,91.3,241.7,182.1,338c76.6,81.3,167.3,141.9,271.5,182.2c60.8,23.5,123.7,38.4,188.4,45
c21.8,2.2,43.8,2.4,65.7,3.6c2.6,0.1,5.2,0.7,7.8,1.1c1.7,0,3.3,0,5,0c2.4-0.4,4.9-0.9,7.3-1c11.5-0.5,23-0.2,34.4-1.4
c26.8-2.6,53.6-4.9,80.1-9.1c66.9-10.6,130.8-31.2,191.9-60.4c106.2-50.7,195.6-122.5,267.4-215.7
c94.4-122.5,145-261.4,152.9-415.6C1475.7,742.2,1474.2,711.1,1472.3,680.2z M1426.4,744.4c-3.3,375.7-309.7,683-689,682.3
c-378.3,0.9-690.7-307.6-688.8-692.5C50.6,355.5,358.5,48.9,737.9,48.9C1117.8,48.9,1429.8,359.1,1426.4,744.4z"></path>
   <linearGradient id="inst-hover_2_" gradientUnits="userSpaceOnUse" x1="248.1803" y1="1284.3083" x2="1232.1803" y2="192.3084">
     <stop offset="0" style="stop-color:#FDD955"></stop>
     <stop offset="0.2463" style="stop-color:#F89832"></stop>
     <stop offset="0.3793" style="stop-color:#FD361C"></stop>
     <stop offset="0.5394" style="stop-color:#DE234D"></stop>
     <stop offset="0.6995" style="stop-color:#C01278"></stop>
     <stop offset="0.9122" style="stop-color:#6E3E97"></stop>
     <stop offset="0.9852" style="stop-color:#504BA0"></stop>
   </linearGradient>
   <path fill="url(#inst-hover_2_)" d="M953.7,737.3c0-37.4,0.5-74.8-0.1-112.2c-0.9-59.7-41.2-99.9-100.8-100.3
c-74.2-0.5-148.3-0.5-222.5,0c-60.4,0.4-100.2,39.4-100.9,99.7c-0.8,74.5-0.9,149,0,223.5c0.7,59.7,39.8,99.8,99.4,100.8
c75.1,1.3,150.3,1.2,225.5,0c40.4-0.7,74-16.7,90.1-56.5c5.8-14.5,8.5-31,9-46.7C954.6,809.4,953.8,773.3,953.7,737.3
C953.7,737.3,953.7,737.3,953.7,737.3z M875,740.3c-4.4,75.5-66.2,132.5-139.6,128.7c-73.1-3.7-131.3-66.7-127.4-137.9
c2.3-74.5,66.6-134.5,145.1-128.9C821.2,607,879,671.3,875,740.3z M880.7,628.7c-16.7,0.3-30.8-13.6-30.8-30.2
c0-16.7,13.9-30.3,30.8-30.1c16.6,0.2,29.5,13.3,29.5,30.1C910.2,615.1,897.3,628.4,880.7,628.7z"></path>
   <linearGradient id="inst-hover_3_" gradientUnits="userSpaceOnUse" x1="248.1115" y1="1284.2465" x2="1232.1115" y2="192.2464">
     <stop offset="0" style="stop-color:#FDD955"></stop>
     <stop offset="0.2463" style="stop-color:#F89832"></stop>
     <stop offset="0.3793" style="stop-color:#FD361C"></stop>
     <stop offset="0.5394" style="stop-color:#DE234D"></stop>
     <stop offset="0.6995" style="stop-color:#C01278"></stop>
     <stop offset="0.9122" style="stop-color:#6E3E97"></stop>
     <stop offset="0.9852" style="stop-color:#504BA0"></stop>
   </linearGradient>
   <path fill="url(#inst-hover_3_)" d="M840.7,168.3c-19.3-3.5-39-4.7-58.6-7c-2.9-0.3-5.8-1.1-8.6-1.7c-21.4,0-42.8,0-64.2,0
c-15.5,1.9-31,3.5-46.4,5.7c-116.7,16-219.1,63.4-306.6,142c-98.9,88.9-159.9,199.5-183.5,330.4c-3.5,19.3-4.7,39-7,58.6
c-0.3,2.9-1.1,5.8-1.7,8.7c0,21.4,0,42.8,0,64.2c1.9,15.8,3.6,31.7,5.8,47.5c15,108.8,57.6,205.6,128.1,289.7
c90.5,107.9,205.6,174.2,344.1,199.4c19.3,3.5,39,4.7,58.6,7c3.6,0.4,7.2,1.1,10.8,1.7c20,0,40.1,0,60.1,0
c20.8-2.6,41.7-4.4,62.4-7.8c128.8-21.1,238.3-79.4,327.8-174.2c82.3-87.1,132-190.6,150.5-308.9c2.9-18.7,4.4-37.6,6.6-56.4
c0-20,0-40.1,0-60.1c-1.9-16.1-3.5-32.3-5.7-48.4c-15-109.9-58.1-207.6-129.5-292.2C1093.2,259.1,978.5,193.3,840.7,168.3z
M999.9,862.6c-3.4,72.6-60.5,130.6-133.1,132.5c-83.1,2.2-166.3,2.2-249.4,0.1c-73.2-1.9-132.5-61.5-134.4-134.9
c-2.1-82.4-2.1-165,0-247.4c1.9-74.3,59.9-132.4,134.2-134.4c82.8-2.2,165.6-2.1,248.4,0c73,1.9,130.7,60,134.2,132.7
c2,42,0.4,84.1,0.4,126.2C1000.3,779.2,1001.8,821,999.9,862.6z"></path>
   <linearGradient id="inst-hover_4_" gradientUnits="userSpaceOnUse" x1="247.4635" y1="1283.6625" x2="1231.4635" y2="191.6625">
     <stop offset="0" style="stop-color:#FDD955"></stop>
     <stop offset="0.2463" style="stop-color:#F89832"></stop>
     <stop offset="0.3793" style="stop-color:#FD361C"></stop>
     <stop offset="0.5394" style="stop-color:#DE234D"></stop>
     <stop offset="0.6995" style="stop-color:#C01278"></stop>
     <stop offset="0.9122" style="stop-color:#6E3E97"></stop>
     <stop offset="0.9852" style="stop-color:#504BA0"></stop>
   </linearGradient>
   <path fill="url(#inst-hover_4_)" d="M741.6,649.3c-47.1-0.1-86.2,38.9-86.2,86c0,47.4,38.5,85.9,86,85.9c47.6,0,85.9-38.1,86.2-85.7
C827.7,688.5,788.8,649.4,741.6,649.3z"></path>
 </g>
</svg>
