<svg xmlns="http://www.w3.org/2000/svg" xmlns:xlink="http://www.w3.org/1999/xlink" preserveAspectRatio="xMidYMid" width="32" height="19.97" viewBox="0 0 32 19.97">
  <path d="M31.547,15.575 L26.453,4.299 C27.383,3.946 27.867,3.332 28.219,2.798 C28.572,2.258 28.758,1.748 28.890,1.334 C29.142,0.495 29.162,0.004 29.162,0.004 C29.162,0.004 28.924,0.439 28.426,1.094 C28.182,1.421 27.852,1.793 27.457,2.144 C27.068,2.488 26.529,2.788 26.080,2.835 L25.933,2.855 L25.656,2.849 L25.515,2.846 C25.619,2.841 25.463,2.835 25.449,2.831 L25.164,2.798 C24.779,2.765 24.383,2.732 23.975,2.696 C23.160,2.630 22.297,2.550 21.408,2.519 C19.985,2.437 18.485,2.395 16.974,2.379 C16.817,1.612 16.517,1.032 16.149,0.804 C16.149,0.795 16.151,0.787 16.151,0.778 C16.151,0.351 15.998,0.003 15.808,0.003 C15.618,0.003 15.463,0.351 15.463,0.778 C15.463,0.788 15.465,0.796 15.465,0.806 C15.100,1.035 14.798,1.614 14.643,2.379 C13.143,2.399 11.651,2.443 10.242,2.522 C9.353,2.554 8.491,2.637 7.673,2.699 C6.786,2.761 6.244,2.859 5.678,2.715 C4.540,2.440 3.665,1.589 3.118,0.997 C2.568,0.388 2.257,-0.026 2.239,0.004 C2.239,0.004 2.299,0.114 2.356,0.329 C2.424,0.546 2.506,0.877 2.680,1.274 C2.850,1.672 3.076,2.165 3.458,2.674 C3.833,3.180 4.361,3.740 5.137,4.119 C5.267,4.184 5.413,4.238 5.557,4.293 L0.668,15.575 L-0.000,15.575 C-0.000,15.575 0.382,19.964 6.169,19.964 C11.959,19.964 12.340,15.575 12.340,15.575 L11.888,15.575 L6.930,4.599 C7.180,4.621 7.403,4.630 7.674,4.659 C8.491,4.723 9.353,4.805 10.244,4.836 C11.669,4.916 13.175,4.961 14.691,4.981 C14.911,5.869 15.327,6.479 15.810,6.479 C16.292,6.479 16.707,5.871 16.928,4.982 C18.455,4.965 19.973,4.923 21.406,4.840 C22.297,4.808 23.158,4.730 23.973,4.663 C24.358,4.630 24.733,4.598 25.097,4.566 L20.326,15.575 L19.660,15.575 C19.660,15.575 20.041,19.964 25.830,19.964 C31.619,19.964 32.000,15.575 32.000,15.575 L31.547,15.575 ZM5.679,6.485 L5.679,15.575 L1.740,15.575 L5.679,6.485 ZM6.662,15.575 L6.662,6.393 L10.808,15.575 L6.662,15.575 ZM26.319,6.393 L30.467,15.575 L26.319,15.575 L26.319,6.393 ZM25.338,6.485 L25.338,15.575 L21.398,15.575 L25.338,6.485 Z" class="cls-1"/>
</svg>
