<svg xmlns="http://www.w3.org/2000/svg" width="394.531" height="551" viewBox="0 0 394.531 551">
  <path class="cls-1" d="M197.5,0C76.609,0,0,98.715,0,220.21a223.5,223.5,0,0,0,4.267,43.662c0,0.95.474,1.9,0.474,3.323,24.178,108.681,172.374,271.94,179.486,278.584A18.192,18.192,0,0,0,197.5,551a20.361,20.361,0,0,0,13.274-5.221c7.112-7.119,154.359-169.9,178.538-276.211,0-.95.474-1.9,0.474-2.848a218.166,218.166,0,0,0,4.741-46.51C395,98.715,318.391,0,197.5,0ZM351.859,259.6v1.424C333.844,339.807,237.8,464.15,197.5,504.49,157.2,464.15,60.682,339.807,42.667,259.127a4.28,4.28,0,0,0-.474-2.373A196.188,196.188,0,0,1,38.4,219.736c0-99.664,59.068-181.294,158.626-181.294s159.1,81.155,159.1,181.294A183.4,183.4,0,0,1,351.859,259.6ZM197.5,123.868a73.586,73.586,0,0,0-73.483,73.562c0,40.34,33.186,73.561,73.483,73.561A73.562,73.562,0,0,0,197.5,123.868Zm0,108.682a35.12,35.12,0,1,1,35.082-35.12A35.022,35.022,0,0,1,197.5,232.55Z"/>
</svg>
