<svg xmlns="http://www.w3.org/2000/svg" xmlns:xlink="http://www.w3.org/1999/xlink" preserveAspectRatio="xMidYMid" width="8.6" height="15.03" viewBox="0 0 8.6 15.03">
  <path d="M8.061,9.969 C7.371,10.408 6.621,10.720 5.843,10.899 L7.979,13.064 C8.416,13.506 8.416,14.225 7.979,14.668 C7.541,15.111 6.833,15.111 6.396,14.668 L4.297,12.541 L2.199,14.668 C1.980,14.889 1.694,15.000 1.407,15.000 C1.121,15.000 0.835,14.889 0.616,14.668 C0.179,14.225 0.179,13.507 0.616,13.064 L2.751,10.899 C1.974,10.720 1.224,10.408 0.533,9.969 C0.011,9.635 -0.147,8.935 0.183,8.404 C0.511,7.873 1.202,7.714 1.726,8.048 C3.289,9.045 5.304,9.045 6.869,8.048 C7.392,7.714 8.083,7.873 8.412,8.404 C8.741,8.934 8.584,9.635 8.061,9.969 ZM4.297,7.742 C2.191,7.742 0.477,6.006 0.477,3.871 C0.477,1.736 2.191,-0.000 4.297,-0.000 C6.404,-0.000 8.117,1.736 8.117,3.871 C8.117,6.006 6.404,7.742 4.297,7.742 ZM4.297,2.268 C3.426,2.268 2.716,2.987 2.716,3.871 C2.716,4.755 3.426,5.474 4.297,5.474 C5.170,5.474 5.879,4.755 5.879,3.871 C5.879,2.987 5.170,2.268 4.297,2.268 Z" class="cls-1"/>
</svg>
