<svg xmlns="http://www.w3.org/2000/svg" xmlns:xlink="http://www.w3.org/1999/xlink" preserveAspectRatio="xMidYMid" width="39.719" height="40" viewBox="0 0 39.719 40">
  <path d="M19.866,40.000 C8.902,40.000 0.014,31.045 0.014,20.000 C0.014,8.954 8.902,-0.000 19.866,-0.000 C30.831,-0.000 39.719,8.954 39.719,20.000 C39.719,31.045 30.831,40.000 19.866,40.000 ZM19.866,0.857 C9.646,0.857 0.865,9.704 0.865,20.000 C0.865,30.296 9.646,39.142 19.866,39.142 C30.086,39.142 38.868,30.296 38.868,20.000 C38.868,9.704 30.086,0.857 19.866,0.857 ZM23.810,22.469 C23.120,22.908 22.370,23.220 21.592,23.400 L23.728,25.564 C24.165,26.007 24.165,26.725 23.728,27.168 C23.291,27.611 22.582,27.611 22.145,27.168 L20.046,25.041 L17.948,27.168 C17.730,27.389 17.443,27.500 17.156,27.500 C16.870,27.500 16.584,27.389 16.365,27.168 C15.928,26.725 15.928,26.007 16.365,25.564 L18.501,23.400 C17.723,23.220 16.973,22.908 16.282,22.469 C15.760,22.135 15.602,21.435 15.932,20.905 C16.261,20.373 16.951,20.214 17.475,20.548 C19.038,21.545 21.053,21.545 22.618,20.548 C23.141,20.214 23.832,20.373 24.161,20.905 C24.491,21.434 24.333,22.135 23.810,22.469 ZM20.046,20.242 C17.940,20.242 16.226,18.506 16.226,16.371 C16.226,14.236 17.940,12.500 20.046,12.500 C22.154,12.500 23.866,14.236 23.866,16.371 C23.866,18.506 22.154,20.242 20.046,20.242 ZM20.046,14.768 C19.175,14.768 18.465,15.488 18.465,16.371 C18.465,17.255 19.175,17.974 20.046,17.974 C20.919,17.974 21.628,17.255 21.628,16.371 C21.628,15.488 20.919,14.768 20.046,14.768 Z" class="cls-1"/>
</svg>
