<svg width="36" height="36" viewBox="0 0 36 36" fill="none" xmlns="http://www.w3.org/2000/svg">
<path d="M24.8 14.5H15.5C15.2 14.5 14.9 14.8 14.9 15.1C14.9 15.4 15.2 15.7 15.5 15.7H24.2V31.5H11.8V15.7H13.3C13.6 15.7 13.9 15.4 13.9 15.1C13.9 14.8 13.6 14.5 13.3 14.5H11.3C11 14.5 10.7 14.8 10.7 15.1V32.1C10.7 32.4 11 32.7 11.3 32.7H24.9C25.2 32.7 25.5 32.4 25.5 32.1V15.1C25.4 14.8 25.1 14.5 24.8 14.5Z" fill="#414141"/>
<path d="M20.1 20.5C19.3 18.9 18.5 17.9 18.4 17.9C18.3 17.8 18.1 17.7 18 17.7C17.9 17.7 17.7 17.8 17.6 17.9C17.5 18 15 21 14.6 24.5C14.6 24.8 14.8 25.1 15.1 25.1C15.4 25.1 15.7 24.9 15.7 24.6C15.9 22.3 17.2 20.1 17.9 19.1C18.2 19.5 18.6 20.2 19 21C19.7 22.3 20.4 24.3 20.1 26.1C19.8 27.6 19.2 28.1 17.9 28.1C16.7 28.1 16.2 27.7 15.8 26.6C15.7 26.3 15.4 26.1 15.1 26.2C14.8 26.3 14.6 26.5999 14.7 26.9C15.2 28.4 16.2 29.2 17.9 29.2C20.3 29.2 21 27.5999 21.2 26.2999C21.6 24.5999 21.2 22.6 20.1 20.5Z" fill="#414141"/>
<path d="M27.8 12.6L23.8 10.2C23.5 10 23.2 10.1 23 10.4C22.8 10.7 22.9 11 23.2 11.2L27.2 13.6C27.3 13.7 27.4 13.8 27.4 14V34.4C27.4 34.7 27.2 34.9 26.9 34.9H9.00001C8.70001 34.9 8.50001 34.7 8.50001 34.4V11.2C8.50001 11.1 8.50001 11 8.60001 10.9L10.3 8.9C10.4 8.8 10.5 8.7 10.7 8.7C11.6 8.7 12.3 8 12.3 7.1V5H16.8V7.1C16.8 8 17.5 8.7 18.4 8.7H18.8C18.9 8.7 19 8.7 19 8.8L21.1 10C21.4 10.2 21.7 10.1 21.9 9.8C22.1 9.5 22 9.2 21.8 9L19.7 7.8C19.5 7.7 19.2 7.6 18.9 7.6H18.5C18.2 7.6 18 7.4 18 7.1V5H18.5C18.7 5 19 4.7 19 4.4V2.2C19 1 18 0 16.8 0H12.4C11.2 0 10.2 1 10.2 2.2V4.4C10.2 4.7 10.5 5 10.8 5H11.3V7.1C11.3 7.4 11.1 7.6 10.8 7.6C10.3 7.6 9.90001 7.8 9.60001 8.2L7.90001 10.2C7.70001 10.5 7.50001 10.9 7.50001 11.2V34.4C7.40001 35.3 8.10001 36 9.00001 36H27C27.9 36 28.6 35.3 28.6 34.4V14C28.6 13.4 28.3 12.9 27.8 12.6ZM12.4 1.1H16.8C17.4 1.1 17.9 1.6 17.9 2.2V3.8H17.4H11.8H11.3V2.2C11.3 1.6 11.8 1.1 12.4 1.1Z" fill="#99AEC9"/>
</svg>
