<svg xmlns="http://www.w3.org/2000/svg" xmlns:xlink="http://www.w3.org/1999/xlink" preserveAspectRatio="xMidYMid" width="8" height="8" viewBox="0 0 8 8">
  <path d="M4.951,4.000 L7.803,1.147 C8.065,0.885 8.065,0.459 7.803,0.197 C7.540,-0.066 7.115,-0.066 6.852,0.197 L4.000,3.049 L1.147,0.197 C0.885,-0.066 0.459,-0.066 0.197,0.197 C-0.066,0.459 -0.066,0.885 0.197,1.147 L3.049,4.000 L0.197,6.852 C-0.066,7.115 -0.066,7.540 0.197,7.803 C0.459,8.065 0.885,8.065 1.147,7.803 L4.000,4.950 L6.852,7.803 C7.114,8.065 7.540,8.065 7.803,7.803 C8.065,7.540 8.065,7.115 7.803,6.852 L4.951,4.000 Z" class="cls-1"/>
</svg>
