<svg xmlns="http://www.w3.org/2000/svg" xmlns:xlink="http://www.w3.org/1999/xlink" preserveAspectRatio="xMidYMid" width="48.031" height="43.938" viewBox="0 0 48.031 43.938">
  <path d="M36.836,43.946 L18.199,43.946 L7.018,43.946 L7.018,33.176 L7.018,31.381 L7.018,20.610 L18.199,20.610 L36.836,20.610 L48.017,20.610 L48.017,31.381 L48.017,33.176 L48.017,43.946 L36.836,43.946 ZM45.036,28.510 L43.819,27.338 C43.664,27.367 43.522,27.426 43.358,27.426 C42.022,27.426 40.939,26.385 40.939,25.098 C40.939,24.940 41.001,24.802 41.032,24.653 L39.817,23.482 L15.218,23.482 L14.001,24.655 C14.032,24.804 14.094,24.940 14.094,25.098 C14.094,26.385 13.013,27.428 11.677,27.428 C11.513,27.428 11.369,27.369 11.215,27.338 L10.000,28.509 L10.000,36.047 L11.216,37.218 C11.371,37.190 11.513,37.131 11.677,37.131 C13.013,37.131 14.096,38.172 14.096,39.459 C14.096,39.615 14.034,39.755 14.003,39.904 L15.218,41.074 L39.817,41.074 L41.034,39.902 C41.003,39.753 40.941,39.617 40.941,39.459 C40.941,38.172 42.022,37.129 43.358,37.129 C43.522,37.129 43.666,37.188 43.820,37.218 L45.036,36.048 L45.036,28.510 ZM39.631,34.608 C38.295,34.608 37.212,33.565 37.212,32.278 C37.212,30.992 38.295,29.948 39.631,29.948 C40.967,29.948 42.050,30.992 42.050,32.278 C42.050,33.565 40.967,34.608 39.631,34.608 ZM27.518,38.407 C23.477,38.407 20.201,35.663 20.201,32.278 C20.201,28.894 23.477,26.150 27.518,26.150 C31.558,26.150 34.834,28.894 34.834,32.278 C34.834,35.663 31.558,38.407 27.518,38.407 ZM15.404,34.607 C14.069,34.607 12.987,33.564 12.987,32.278 C12.987,30.993 14.069,29.950 15.404,29.950 C16.739,29.950 17.821,30.993 17.821,32.278 C17.821,33.564 16.739,34.607 15.404,34.607 ZM34.417,11.779 C35.752,11.779 36.834,12.821 36.834,14.107 C36.834,15.393 35.752,16.435 34.417,16.435 C33.082,16.435 31.999,15.393 31.999,14.107 C31.999,12.821 33.082,11.779 34.417,11.779 ZM30.209,16.329 C30.496,16.834 30.658,17.370 30.766,17.918 L17.286,17.918 C17.942,16.489 19.111,15.193 20.734,14.338 C24.279,12.470 28.518,13.360 30.209,16.329 ZM39.003,17.918 C39.195,17.395 39.558,16.925 40.104,16.638 C40.248,16.562 40.404,16.546 40.552,16.503 L41.034,14.913 L37.275,8.303 L35.622,7.837 C35.505,7.935 35.408,8.052 35.266,8.127 C34.092,8.745 32.624,8.334 31.983,7.203 C31.903,7.065 31.886,6.914 31.839,6.770 L30.190,6.307 L8.615,17.688 L8.546,17.918 L7.018,17.918 C5.475,17.918 4.222,19.124 4.222,20.610 L4.222,26.407 L-0.010,18.962 L9.798,13.789 L26.144,5.167 L26.142,5.167 L35.952,-0.006 L41.325,9.440 L41.323,9.440 L46.142,17.918 L39.003,17.918 Z" class="cls-1"/>
</svg>
