<svg xmlns="http://www.w3.org/2000/svg" xmlns:xlink="http://www.w3.org/1999/xlink" preserveAspectRatio="xMidYMid" width="39" height="39" viewBox="0 0 39 39">
  <path d="M20.025,38.991 L20.025,34.960 C20.025,24.354 14.646,18.972 4.045,18.972 L0.014,18.972 L0.014,-0.000 L38.990,-0.000 L38.990,38.991 L20.025,38.991 ZM30.933,8.061 C25.753,8.061 13.252,8.061 8.073,8.061 C8.073,9.513 8.073,9.763 8.073,11.174 C19.376,12.516 26.485,19.620 27.825,30.930 C29.231,30.930 29.483,30.930 30.933,30.930 C30.933,25.747 30.933,13.242 30.933,8.061 ZM15.236,38.986 L-0.003,38.986 L-0.003,23.742 L15.236,23.742 L15.236,38.986 Z" class="cls-1"/>
</svg>
