<svg xmlns="http://www.w3.org/2000/svg" xmlns:xlink="http://www.w3.org/1999/xlink" preserveAspectRatio="xMidYMid" width="154.06" height="40" viewBox="0 0 154.06 40">
  <path d="M153.999,11.475 L153.999,20.268 L151.801,20.268 L151.801,11.025 C151.801,9.862 151.292,9.034 151.271,8.999 C151.249,8.958 150.530,7.660 148.040,7.660 C147.075,7.660 145.232,7.888 144.396,8.498 L144.175,8.659 L144.366,8.855 C144.804,9.306 144.897,11.294 144.853,12.441 L144.852,20.268 L142.655,20.268 L142.655,11.025 C142.655,9.948 142.218,9.158 142.136,9.019 C142.052,8.814 141.467,7.660 139.033,7.660 C136.529,7.660 135.949,8.188 135.891,8.248 L135.825,8.316 L135.825,20.268 L133.628,20.268 L133.628,6.872 C134.341,6.528 136.142,5.738 139.250,5.738 C142.002,5.738 143.223,6.724 143.236,6.734 L143.350,6.828 L143.486,6.768 C143.508,6.758 145.767,5.750 148.139,5.750 C148.298,5.750 148.457,5.747 148.615,5.744 C148.773,5.741 148.930,5.738 149.089,5.738 C149.886,5.738 150.596,5.816 151.469,6.195 C154.060,7.379 154.000,11.434 153.999,11.475 ZM123.117,20.654 L123.073,20.654 C122.314,20.654 120.005,20.654 118.169,18.881 C117.130,17.878 116.760,15.322 116.760,13.265 C116.760,10.428 117.290,8.449 118.337,7.370 C119.100,6.582 120.980,5.785 123.095,5.785 C125.023,5.785 127.137,6.466 128.013,7.370 C129.059,8.450 129.589,10.428 129.589,13.249 C129.589,15.322 129.219,17.878 128.181,18.881 C126.962,20.058 125.258,20.654 123.117,20.654 ZM126.557,8.628 C126.458,8.514 125.528,7.517 123.175,7.517 C121.260,7.517 120.125,8.244 119.793,8.628 C119.002,9.541 118.891,11.990 118.894,13.369 C118.897,14.901 119.056,16.903 119.793,17.747 C120.543,18.605 122.313,18.962 123.095,18.962 C123.914,18.962 125.879,18.532 126.557,17.746 C127.156,17.051 127.450,15.619 127.456,13.369 C127.459,11.990 127.347,9.541 126.557,8.628 ZM109.648,18.783 C111.082,18.783 112.434,18.308 112.973,18.093 L113.607,20.002 C113.001,20.208 111.226,20.760 109.648,20.760 C108.235,20.760 105.647,20.479 104.199,18.599 C103.352,17.499 102.922,15.650 102.922,13.103 C102.922,11.941 103.095,9.059 104.697,7.389 C106.270,5.750 108.724,5.750 109.648,5.750 C111.324,5.750 113.009,6.286 113.599,6.494 L112.933,8.250 C112.448,8.002 111.290,7.522 109.648,7.522 C107.425,7.522 106.601,8.134 106.088,8.733 C105.589,9.314 105.080,10.292 105.080,13.142 C105.080,15.920 105.501,16.851 105.955,17.443 C106.467,18.111 107.807,18.783 109.648,18.783 ZM87.126,26.206 C80.565,26.206 75.247,20.889 75.247,14.330 C75.247,7.771 80.565,2.455 87.126,2.455 C93.686,2.455 99.004,7.771 99.004,14.330 C99.004,20.889 93.686,26.206 87.126,26.206 ZM87.199,11.110 C88.070,11.110 88.205,11.724 88.216,11.790 L88.269,12.093 L92.244,12.093 L92.027,11.593 C91.190,9.667 89.318,9.255 88.525,9.168 L88.525,8.071 L85.664,8.071 L85.664,9.092 C84.253,9.269 82.417,10.434 82.417,12.122 C82.417,13.972 84.477,14.646 84.740,14.725 C85.235,14.934 85.719,15.102 86.147,15.250 C87.243,15.629 87.914,15.884 87.914,16.321 C87.914,16.513 87.914,16.964 86.886,16.964 C86.121,16.964 85.972,16.254 85.958,16.176 L85.902,15.877 L82.007,15.877 L82.113,16.318 C82.647,18.531 84.844,19.242 85.664,19.432 L85.664,20.569 L88.168,20.569 L88.525,20.553 L88.525,19.456 C91.434,18.920 92.056,17.364 92.056,16.130 C92.056,14.610 90.912,13.561 88.559,12.925 C86.447,12.354 86.447,11.970 86.447,11.691 C86.447,11.426 86.577,11.110 87.199,11.110 ZM76.434,33.487 C76.937,33.487 77.321,33.638 77.586,33.941 C77.850,34.245 77.983,34.681 77.983,35.252 L77.983,38.278 L77.198,38.278 L77.198,35.624 C77.198,35.409 77.185,35.208 77.160,35.021 C77.135,34.832 77.089,34.686 77.022,34.580 C76.953,34.463 76.853,34.376 76.722,34.319 C76.591,34.262 76.421,34.233 76.212,34.233 C75.998,34.233 75.774,34.287 75.540,34.392 C75.306,34.498 75.082,34.633 74.868,34.797 L74.868,38.278 L74.083,38.278 L74.083,33.616 L74.868,33.616 L74.868,34.133 C75.113,33.930 75.366,33.772 75.628,33.658 C75.889,33.544 76.158,33.487 76.434,33.487 ZM65.308,25.742 L62.766,25.742 C64.548,22.581 65.001,21.142 65.020,21.080 L65.041,21.011 L65.021,20.942 C65.011,20.909 64.024,17.625 62.939,14.461 C62.008,11.745 60.455,7.417 60.023,6.215 L62.199,6.215 C62.447,6.812 63.411,9.172 64.330,11.883 C65.392,15.011 66.217,18.245 66.226,18.278 L66.406,18.987 L66.677,18.307 C66.691,18.271 68.115,14.693 69.087,11.702 C69.914,9.157 70.514,6.862 70.679,6.215 L72.865,6.215 C72.616,7.204 71.682,10.681 69.590,16.146 C67.368,21.945 65.660,25.111 65.308,25.742 ZM60.699,33.687 C60.921,33.820 61.085,34.005 61.194,34.242 C61.511,33.975 61.801,33.782 62.062,33.664 C62.324,33.546 62.604,33.487 62.902,33.487 C63.414,33.487 63.791,33.641 64.035,33.952 C64.279,34.262 64.400,34.696 64.400,35.252 L64.400,38.278 L63.615,38.278 L63.615,35.624 C63.615,35.423 63.606,35.230 63.588,35.044 C63.570,34.857 63.532,34.708 63.474,34.597 C63.409,34.477 63.318,34.387 63.198,34.325 C63.078,34.265 62.906,34.233 62.680,34.233 C62.461,34.233 62.240,34.289 62.021,34.398 C61.801,34.509 61.581,34.648 61.361,34.818 C61.369,34.882 61.376,34.957 61.382,35.041 C61.387,35.126 61.390,35.211 61.390,35.294 L61.390,38.278 L60.605,38.278 L60.605,35.624 C60.605,35.418 60.596,35.222 60.578,35.037 C60.560,34.852 60.522,34.704 60.463,34.593 C60.399,34.473 60.308,34.383 60.188,34.323 C60.068,34.264 59.896,34.233 59.670,34.233 C59.456,34.233 59.241,34.287 59.025,34.392 C58.810,34.498 58.595,34.633 58.380,34.797 L58.380,38.278 L57.595,38.278 L57.595,33.616 L58.380,33.616 L58.380,34.133 C58.625,33.930 58.869,33.772 59.113,33.658 C59.356,33.544 59.616,33.487 59.891,33.487 C60.209,33.487 60.478,33.553 60.699,33.687 ZM51.258,20.684 C49.985,20.684 48.197,20.442 46.993,19.764 C45.601,18.980 45.530,16.336 45.530,15.814 C45.530,15.440 45.599,13.521 46.958,12.523 C47.845,11.870 49.453,11.480 51.258,11.480 C52.768,11.480 54.566,11.886 54.584,11.889 L54.818,11.943 L54.869,11.708 C54.891,11.606 55.399,9.178 54.054,8.089 C53.724,7.822 53.242,7.561 51.331,7.561 C49.726,7.561 47.556,8.019 46.874,8.172 L46.288,6.464 C46.913,6.269 48.805,5.750 51.258,5.750 C54.456,5.750 55.493,6.501 56.137,7.313 C57.127,8.559 57.131,10.137 57.131,10.153 L57.131,19.539 C56.480,19.777 53.824,20.684 51.258,20.684 ZM54.993,13.415 L54.793,13.383 C54.695,13.367 52.386,13.004 51.258,13.004 C50.035,13.004 48.969,13.241 48.478,13.623 C47.782,14.164 47.728,15.619 47.728,16.052 C47.728,17.289 48.003,18.011 48.647,18.466 C49.197,18.855 49.979,19.021 51.258,19.021 C53.335,19.021 54.788,18.414 54.849,18.389 L54.993,18.327 L54.993,13.415 ZM46.842,33.584 C47.085,33.639 47.296,33.732 47.474,33.862 C47.650,33.990 47.783,34.156 47.875,34.359 C47.967,34.562 48.013,34.814 48.013,35.114 L48.013,38.278 L47.232,38.278 L47.232,37.781 C47.163,37.829 47.069,37.895 46.951,37.979 C46.832,38.065 46.718,38.132 46.606,38.182 C46.475,38.246 46.325,38.299 46.155,38.343 C45.985,38.386 45.786,38.408 45.558,38.408 C45.138,38.408 44.782,38.268 44.489,37.990 C44.197,37.712 44.051,37.357 44.051,36.926 C44.051,36.572 44.127,36.287 44.279,36.068 C44.430,35.850 44.646,35.678 44.928,35.552 C45.212,35.427 45.552,35.342 45.951,35.298 C46.349,35.254 46.776,35.220 47.232,35.198 L47.232,35.077 C47.232,34.899 47.201,34.751 47.138,34.634 C47.076,34.517 46.986,34.425 46.869,34.359 C46.758,34.295 46.624,34.252 46.468,34.230 C46.312,34.207 46.150,34.196 45.980,34.196 C45.774,34.196 45.544,34.224 45.291,34.278 C45.038,34.332 44.776,34.411 44.506,34.513 L44.464,34.513 L44.464,33.716 C44.617,33.674 44.839,33.628 45.128,33.578 C45.418,33.528 45.703,33.503 45.984,33.503 C46.312,33.503 46.598,33.530 46.842,33.584 ZM46.387,35.895 C46.063,35.923 45.806,35.963 45.616,36.016 C45.391,36.080 45.209,36.179 45.070,36.314 C44.930,36.449 44.861,36.635 44.861,36.872 C44.861,37.138 44.942,37.340 45.103,37.474 C45.264,37.610 45.511,37.677 45.842,37.677 C46.118,37.677 46.369,37.623 46.598,37.517 C46.826,37.409 47.037,37.281 47.232,37.130 L47.232,35.833 C46.993,35.846 46.711,35.867 46.387,35.895 ZM40.987,18.535 C40.136,19.923 38.390,20.639 35.797,20.664 C33.302,20.664 32.205,19.633 32.194,19.623 L31.792,19.234 L31.791,25.742 L29.594,25.742 L29.594,6.876 C30.098,6.632 32.154,5.750 35.473,5.750 C39.238,5.750 40.672,7.651 40.685,7.671 C40.707,7.697 42.006,9.343 42.006,13.113 C42.006,16.887 41.289,18.046 41.019,18.483 L40.987,18.535 ZM38.807,8.579 C38.143,7.926 37.103,7.581 35.800,7.581 C34.069,7.581 32.040,8.237 31.955,8.265 L31.791,8.319 L31.791,17.279 L31.838,17.341 C31.878,17.396 32.863,18.680 35.800,18.680 C37.190,18.680 38.177,18.337 38.817,17.632 C39.655,16.708 39.809,15.429 39.809,13.241 C39.809,10.904 39.444,9.205 38.807,8.579 ZM29.894,31.783 L29.894,38.278 L29.110,38.278 L29.110,37.790 C28.884,37.984 28.649,38.136 28.404,38.245 C28.159,38.354 27.893,38.408 27.607,38.408 C27.050,38.408 26.608,38.193 26.281,37.765 C25.954,37.336 25.791,36.742 25.791,35.983 C25.791,35.587 25.847,35.235 25.960,34.927 C26.072,34.617 26.225,34.355 26.417,34.138 C26.606,33.926 26.827,33.764 27.079,33.653 C27.330,33.542 27.591,33.487 27.861,33.487 C28.106,33.487 28.323,33.512 28.513,33.564 C28.702,33.615 28.901,33.695 29.110,33.804 L29.110,31.783 L29.894,31.783 ZM28.542,34.259 C28.375,34.222 28.192,34.204 27.995,34.204 C27.555,34.204 27.213,34.358 26.968,34.663 C26.723,34.970 26.600,35.404 26.600,35.966 C26.600,36.520 26.695,36.941 26.884,37.228 C27.074,37.517 27.377,37.660 27.794,37.660 C28.017,37.660 28.242,37.611 28.471,37.512 C28.699,37.414 28.912,37.286 29.110,37.130 L29.110,34.455 C28.898,34.360 28.709,34.295 28.542,34.259 ZM23.635,19.226 L23.231,19.623 C23.220,19.633 22.124,20.664 19.626,20.664 C17.036,20.639 15.290,19.923 14.438,18.535 L14.406,18.483 C14.136,18.046 13.419,16.887 13.419,13.113 C13.419,9.343 14.718,7.697 14.732,7.682 C14.754,7.651 16.188,5.750 19.952,5.750 C23.271,5.750 25.328,6.632 25.832,6.876 L25.832,25.742 L23.635,25.742 L23.635,19.226 ZM23.635,8.319 L23.471,8.265 C23.385,8.237 21.356,7.581 19.626,7.581 C18.323,7.581 17.283,7.926 16.618,8.579 C15.982,9.205 15.617,10.904 15.617,13.241 C15.617,15.429 15.770,16.708 16.609,17.632 C17.249,18.337 18.236,18.680 19.626,18.680 C22.562,18.680 23.547,17.396 23.588,17.341 L23.635,17.279 L23.635,8.319 ZM11.408,37.752 C11.166,37.961 10.925,38.116 10.686,38.217 C10.447,38.319 10.188,38.370 9.910,38.370 C9.356,38.370 8.914,38.157 8.584,37.729 C8.255,37.302 8.090,36.713 8.090,35.962 C8.090,35.561 8.147,35.207 8.263,34.899 C8.378,34.592 8.531,34.334 8.720,34.125 C8.904,33.922 9.119,33.764 9.367,33.653 C9.615,33.542 9.876,33.487 10.152,33.487 C10.402,33.487 10.624,33.515 10.818,33.570 C11.011,33.626 11.208,33.708 11.408,33.816 L11.459,33.616 L12.193,33.616 L12.193,39.998 L11.408,39.998 L11.408,37.752 ZM11.408,34.455 C11.192,34.358 10.999,34.289 10.832,34.250 C10.665,34.212 10.484,34.192 10.290,34.192 C9.836,34.192 9.491,34.346 9.254,34.653 C9.018,34.960 8.899,35.384 8.899,35.924 C8.899,36.469 8.995,36.889 9.185,37.182 C9.376,37.476 9.676,37.623 10.085,37.623 C10.313,37.623 10.542,37.573 10.770,37.474 C10.998,37.376 11.211,37.248 11.408,37.092 L11.408,34.455 ZM8.846,2.910 L7.342,2.910 C7.102,2.910 6.906,2.714 6.906,2.474 L6.906,1.049 C6.906,0.809 7.102,0.614 7.342,0.614 L8.846,0.614 C9.086,0.614 9.282,0.809 9.282,1.049 L9.282,2.474 C9.282,2.714 9.086,2.910 8.846,2.910 ZM4.484,32.021 L5.369,32.021 L5.369,32.835 L4.484,32.835 L4.484,32.021 ZM1.563,20.701 C1.171,20.336 -0.000,19.096 -0.000,17.299 L-0.000,0.000 L2.218,0.000 L2.218,17.299 C2.214,17.343 2.116,18.709 3.126,19.687 L1.563,20.701 ZM1.434,38.278 L0.649,38.278 L0.649,31.783 L1.434,31.783 L1.434,38.278 ZM5.319,38.278 L4.534,38.278 L4.534,33.616 L5.319,33.616 L5.319,38.278 ZM9.202,20.268 L7.005,20.268 L7.005,6.215 L9.202,6.215 L9.202,20.268 ZM16.029,36.271 C16.029,36.507 16.039,36.710 16.062,36.878 C16.084,37.046 16.131,37.190 16.204,37.310 C16.279,37.432 16.376,37.521 16.496,37.577 C16.616,37.633 16.790,37.660 17.018,37.660 C17.221,37.660 17.443,37.607 17.684,37.502 C17.925,37.396 18.149,37.261 18.358,37.097 L18.358,33.616 L19.143,33.616 L19.143,38.278 L18.358,38.278 L18.358,37.761 C18.093,37.969 17.840,38.129 17.598,38.240 C17.356,38.352 17.089,38.408 16.797,38.408 C16.307,38.408 15.925,38.258 15.653,37.959 C15.380,37.660 15.244,37.221 15.244,36.642 L15.244,33.616 L16.029,33.616 L16.029,36.271 ZM23.070,32.835 L22.185,32.835 L22.185,32.021 L23.070,32.021 L23.070,32.835 ZM23.020,38.278 L22.235,38.278 L22.235,33.616 L23.020,33.616 L23.020,38.278 ZM38.308,34.104 C38.517,33.929 38.751,33.782 39.011,33.664 C39.272,33.546 39.549,33.487 39.844,33.487 C40.406,33.487 40.844,33.699 41.157,34.123 C41.470,34.547 41.627,35.137 41.627,35.891 C41.627,36.269 41.573,36.615 41.464,36.928 C41.355,37.241 41.202,37.506 41.005,37.723 C40.821,37.929 40.605,38.088 40.356,38.201 C40.106,38.314 39.843,38.370 39.565,38.370 C39.322,38.370 39.103,38.344 38.907,38.291 C38.711,38.238 38.511,38.156 38.308,38.044 L38.308,39.998 L37.523,39.998 L37.523,33.616 L38.308,33.616 L38.308,34.104 ZM38.308,37.405 C38.531,37.506 38.722,37.574 38.882,37.611 C39.042,37.647 39.223,37.665 39.427,37.665 C39.863,37.665 40.205,37.517 40.450,37.222 C40.695,36.927 40.817,36.490 40.817,35.911 C40.817,35.350 40.721,34.929 40.529,34.651 C40.337,34.373 40.042,34.233 39.644,34.233 C39.418,34.233 39.191,34.283 38.963,34.379 C38.735,34.477 38.517,34.605 38.308,34.764 L38.308,37.405 ZM51.330,33.616 L52.762,37.072 L54.207,33.616 L55.029,33.616 L52.308,39.998 L51.468,39.998 L52.337,38.053 L50.479,33.616 L51.330,33.616 ZM69.388,33.487 C70.017,33.487 70.502,33.670 70.843,34.038 C71.184,34.405 71.354,34.927 71.354,35.603 L71.354,36.028 L67.918,36.028 C67.918,36.315 67.961,36.565 68.048,36.777 C68.134,36.990 68.252,37.165 68.403,37.301 C68.547,37.435 68.719,37.535 68.918,37.602 C69.117,37.669 69.336,37.702 69.575,37.702 C69.893,37.702 70.213,37.639 70.534,37.512 C70.855,37.386 71.084,37.261 71.221,37.138 L71.262,37.138 L71.262,37.994 C70.998,38.106 70.728,38.199 70.452,38.274 C70.177,38.349 69.887,38.386 69.584,38.386 C68.810,38.386 68.206,38.177 67.772,37.758 C67.338,37.340 67.121,36.745 67.121,35.974 C67.121,35.212 67.329,34.606 67.745,34.158 C68.161,33.710 68.709,33.487 69.388,33.487 ZM70.590,35.427 C70.587,35.016 70.484,34.697 70.279,34.471 C70.074,34.246 69.764,34.133 69.346,34.133 C68.926,34.133 68.591,34.257 68.342,34.505 C68.093,34.753 67.952,35.060 67.918,35.427 L70.590,35.427 ZM81.049,32.276 L81.834,32.276 L81.834,33.616 L83.454,33.616 L83.454,34.276 L81.834,34.276 L81.834,36.400 C81.834,36.644 81.840,36.836 81.851,36.974 C81.862,37.112 81.901,37.240 81.968,37.360 C82.029,37.471 82.113,37.553 82.221,37.604 C82.328,37.656 82.491,37.681 82.711,37.681 C82.839,37.681 82.972,37.663 83.112,37.625 C83.251,37.587 83.351,37.556 83.412,37.531 L83.454,37.531 L83.454,38.236 C83.306,38.275 83.146,38.308 82.972,38.332 C82.798,38.357 82.642,38.370 82.506,38.370 C82.030,38.370 81.668,38.242 81.421,37.986 C81.173,37.730 81.049,37.320 81.049,36.754 L81.049,34.276 L80.519,34.276 L80.519,33.616 L81.049,33.616 L81.049,32.276 ZM86.496,37.562 C86.799,37.672 87.090,37.727 87.369,37.727 C87.714,37.727 87.984,37.671 88.178,37.560 C88.373,37.449 88.470,37.274 88.470,37.034 C88.470,36.851 88.418,36.712 88.312,36.617 C88.206,36.522 88.003,36.441 87.702,36.375 C87.591,36.350 87.446,36.321 87.266,36.287 C87.087,36.254 86.923,36.218 86.776,36.179 C86.366,36.070 86.076,35.911 85.905,35.701 C85.734,35.491 85.648,35.232 85.648,34.927 C85.648,34.734 85.688,34.553 85.767,34.384 C85.847,34.214 85.967,34.063 86.128,33.929 C86.284,33.798 86.483,33.694 86.724,33.618 C86.964,33.541 87.233,33.503 87.532,33.503 C87.810,33.503 88.091,33.538 88.377,33.605 C88.662,33.674 88.899,33.756 89.089,33.854 L89.089,34.693 L89.047,34.693 C88.846,34.545 88.603,34.421 88.316,34.319 C88.030,34.218 87.748,34.167 87.473,34.167 C87.186,34.167 86.944,34.222 86.747,34.332 C86.548,34.442 86.450,34.605 86.450,34.822 C86.450,35.014 86.510,35.159 86.629,35.256 C86.747,35.354 86.936,35.433 87.197,35.494 C87.342,35.527 87.504,35.561 87.684,35.595 C87.863,35.627 88.013,35.659 88.132,35.686 C88.497,35.770 88.778,35.913 88.976,36.116 C89.173,36.322 89.272,36.595 89.272,36.934 C89.272,37.360 89.096,37.709 88.744,37.982 C88.392,38.255 87.911,38.391 87.302,38.391 C86.957,38.391 86.640,38.350 86.352,38.268 C86.064,38.186 85.822,38.096 85.628,37.998 L85.628,37.118 L85.669,37.118 C85.917,37.304 86.192,37.453 86.496,37.562 Z" class="cls-1"/>
</svg>
