<svg xmlns="http://www.w3.org/2000/svg" xmlns:xlink="http://www.w3.org/1999/xlink" preserveAspectRatio="xMidYMid" width="58" height="44" viewBox="0 0 58 44">
  <path d="M52.692,44.000 L22.572,44.000 C19.656,44.000 17.266,41.589 17.266,38.647 L17.266,19.405 C17.266,16.463 19.656,14.051 22.572,14.051 L52.692,14.051 C55.609,14.051 58.011,16.451 57.999,19.405 L57.999,38.647 C57.999,41.589 55.609,44.000 52.692,44.000 ZM55.142,19.344 C55.142,18.271 54.270,17.403 53.218,17.403 L22.513,17.403 C21.449,17.403 20.588,18.283 20.588,19.344 L20.588,20.080 L55.142,20.080 L55.142,19.344 ZM55.142,25.180 L20.588,25.180 L20.588,38.719 C20.588,39.792 21.461,40.660 22.513,40.660 L53.218,40.660 C54.282,40.660 55.142,39.780 55.142,38.719 L55.142,25.180 ZM31.238,38.575 C30.198,38.575 29.266,38.104 28.632,37.357 C28.011,38.104 27.067,38.575 26.027,38.575 C24.126,38.575 22.584,37.019 22.584,35.102 C22.584,33.185 24.126,31.630 26.027,31.630 C27.067,31.630 27.999,32.100 28.632,32.848 C29.254,32.100 30.198,31.630 31.238,31.630 C33.138,31.630 34.680,33.185 34.680,35.102 C34.680,37.019 33.138,38.575 31.238,38.575 ZM14.051,18.971 L14.051,37.116 C14.051,38.623 14.457,40.033 15.174,41.251 C12.772,41.914 10.154,40.781 9.019,38.454 L0.556,21.201 C-0.746,18.549 0.329,15.329 2.959,14.015 L29.947,0.560 C32.577,-0.754 35.768,0.331 37.071,2.983 L40.871,10.748 L22.190,10.748 C17.708,10.748 14.039,14.449 14.051,18.971 Z" class="cls-1"/>
</svg>
