<svg xmlns="http://www.w3.org/2000/svg" xmlns:xlink="http://www.w3.org/1999/xlink" preserveAspectRatio="xMidYMid" width="11" height="11.031" viewBox="0 0 11 11.031">
  <defs>
    <style>
      .cls-1 {
        fill: #fff;
        fill-rule: evenodd;
      }
    </style>
  </defs>
  <path d="M8.937,7.585 L8.250,7.585 C7.490,7.585 6.875,6.967 6.875,6.207 L6.875,5.764 C7.179,5.401 7.397,4.973 7.533,4.520 C7.547,4.443 7.620,4.406 7.669,4.354 C7.932,4.089 7.984,3.645 7.786,3.327 C7.760,3.279 7.711,3.237 7.714,3.178 C7.714,2.774 7.716,2.370 7.713,1.966 C7.703,1.477 7.564,0.971 7.223,0.610 C6.947,0.318 6.569,0.144 6.179,0.070 C5.686,-0.024 5.171,-0.019 4.683,0.105 C4.260,0.213 3.862,0.460 3.617,0.828 C3.399,1.148 3.304,1.537 3.288,1.919 C3.282,2.331 3.286,2.743 3.285,3.155 C3.294,3.238 3.224,3.293 3.193,3.362 C3.007,3.700 3.089,4.160 3.388,4.406 C3.463,4.459 3.477,4.555 3.505,4.637 C3.635,5.044 3.852,5.421 4.125,5.749 L4.125,6.207 C4.125,6.967 3.509,7.585 2.750,7.585 L2.062,7.585 C2.062,7.585 0.816,7.929 -0.000,9.651 L-0.000,10.340 C-0.000,10.721 0.307,11.030 0.687,11.030 L10.312,11.030 C10.692,11.030 11.000,10.721 11.000,10.340 L11.000,9.651 C10.183,7.929 8.937,7.585 8.937,7.585 Z" class="cls-1"/>
</svg>
