<svg xmlns="http://www.w3.org/2000/svg" xmlns:xlink="http://www.w3.org/1999/xlink" preserveAspectRatio="xMidYMid" width="20" height="20.062" viewBox="0 0 20 20.062">
  <path d="M10.000,20.055 C4.486,20.055 -0.000,15.556 -0.000,10.026 C-0.000,4.497 4.486,-0.003 10.000,-0.003 C15.514,-0.003 20.000,4.497 20.000,10.026 C20.000,15.556 15.514,20.055 10.000,20.055 ZM10.000,1.821 C5.488,1.821 1.818,5.502 1.818,10.026 C1.818,14.551 5.488,18.232 10.000,18.232 C14.511,18.232 18.182,14.551 18.182,10.026 C18.182,5.502 14.511,1.821 10.000,1.821 ZM10.000,6.684 C9.332,6.684 8.788,6.138 8.788,5.468 C8.788,4.798 9.332,4.252 10.000,4.252 C10.668,4.252 11.212,4.798 11.212,5.468 C11.212,6.138 10.668,6.684 10.000,6.684 ZM10.000,8.507 C10.502,8.507 10.909,8.915 10.909,9.419 L10.909,14.889 C10.909,15.392 10.502,15.801 10.000,15.801 C9.498,15.801 9.091,15.392 9.091,14.889 L9.091,9.419 C9.091,8.915 9.498,8.507 10.000,8.507 Z" class="cls-1"/>
</svg>
