<svg xmlns="http://www.w3.org/2000/svg" xmlns:xlink="http://www.w3.org/1999/xlink" preserveAspectRatio="xMidYMid" width="20" height="20" viewBox="0 0 20 20">
  <path d="M19.826,18.979 L14.965,14.119 C16.269,12.620 17.059,10.664 17.059,8.527 C17.059,3.822 13.231,-0.001 8.529,-0.001 C3.823,-0.001 -0.000,3.826 -0.000,8.527 C-0.000,13.228 3.828,17.055 8.529,17.055 C10.667,17.055 12.623,16.265 14.122,14.962 L18.984,19.822 C19.099,19.937 19.254,19.999 19.405,19.999 C19.556,19.999 19.711,19.942 19.826,19.822 C20.057,19.591 20.057,19.210 19.826,18.979 ZM1.193,8.527 C1.193,4.483 4.484,1.197 8.525,1.197 C12.570,1.197 15.857,4.487 15.857,8.527 C15.857,12.567 12.570,15.862 8.525,15.862 C4.484,15.862 1.193,12.571 1.193,8.527 Z" class="cls-1"/>
</svg>
