<svg xmlns="http://www.w3.org/2000/svg" xmlns:xlink="http://www.w3.org/1999/xlink" preserveAspectRatio="xMidYMid" width="15" height="15" viewBox="0 0 15 15">
  <path d="M14.950,0.724 L11.969,12.036 C11.802,12.674 11.661,13.195 11.658,13.194 C11.655,13.193 11.652,13.182 11.652,13.178 C11.651,13.175 11.166,12.967 10.572,12.718 L8.616,11.896 C8.023,11.646 7.048,11.246 6.451,11.008 L6.245,10.924 C5.649,10.685 5.518,10.094 5.956,9.612 L12.009,2.921 C12.447,2.438 12.393,2.377 11.889,2.787 L4.233,9.021 C3.728,9.429 2.825,9.561 2.231,9.318 L0.468,8.598 C-0.128,8.354 -0.151,7.904 0.417,7.596 L14.224,0.120 C14.792,-0.186 15.118,0.084 14.950,0.724 ZM4.667,11.111 L6.020,11.683 C6.612,11.933 6.812,12.593 6.461,13.147 C6.461,13.147 5.220,15.110 5.257,15.001 C5.291,14.891 4.036,11.767 4.035,11.767 C3.790,11.155 4.074,10.861 4.667,11.111 Z" class="cls-1"/>
</svg>
