<svg xmlns="http://www.w3.org/2000/svg" xmlns:xlink="http://www.w3.org/1999/xlink" preserveAspectRatio="xMidYMid" width="37" height="54" viewBox="0 0 37 54">
  <path d="M20.235,53.202 C19.773,53.707 19.144,53.985 18.462,53.985 C17.781,53.985 17.150,53.707 16.687,53.202 C12.227,48.341 1.686,35.555 0.128,21.836 C-0.522,16.119 1.255,10.403 5.004,6.153 C8.454,2.241 13.158,0.055 18.243,-0.004 L18.462,-0.004 C28.676,-0.004 36.986,8.308 36.986,18.527 C36.986,33.760 24.165,48.919 20.235,53.202 ZM18.465,1.628 L18.256,1.629 C13.644,1.682 9.369,3.672 6.227,7.233 C2.783,11.137 1.151,16.392 1.750,21.651 C3.254,34.894 13.537,47.354 17.888,52.098 C18.194,52.431 18.728,52.431 19.034,52.099 C22.862,47.925 35.355,33.171 35.355,18.527 C35.355,9.210 27.777,1.629 18.465,1.628 ZM27.500,14.454 L27.450,14.552 L27.352,14.601 L24.677,15.986 L21.354,19.310 L20.844,19.815 L23.556,22.529 C23.958,22.406 24.351,22.347 24.751,22.347 L25.045,22.374 C27.248,22.526 28.982,24.374 28.982,26.580 C28.982,27.205 28.841,27.817 28.562,28.402 L28.502,28.530 L28.509,29.057 L28.129,28.677 L25.246,25.797 C25.166,25.713 25.061,25.649 24.919,25.594 C24.813,25.553 24.705,25.532 24.597,25.532 C24.367,25.532 24.146,25.626 23.976,25.797 C23.729,26.038 23.650,26.412 23.771,26.752 C23.804,26.825 23.871,26.964 23.969,27.058 L26.853,29.944 L27.228,30.320 L26.751,30.553 L26.612,30.621 C25.972,30.934 25.375,30.821 24.751,30.821 C22.542,30.821 20.691,29.086 20.538,26.870 L20.515,26.621 C20.513,26.198 20.573,25.801 20.695,25.393 L18.636,23.333 L18.147,23.858 L18.075,23.929 L11.860,30.154 C11.416,30.595 10.827,30.839 10.200,30.839 C9.585,30.839 8.983,30.589 8.549,30.154 C8.105,29.711 7.861,29.122 7.863,28.498 C7.863,27.874 8.107,27.288 8.549,26.846 L14.842,20.548 L15.328,20.024 L13.305,18.002 C12.896,18.124 12.506,18.184 12.119,18.184 L11.817,18.157 C9.614,18.005 7.881,16.154 7.881,13.943 C7.881,13.319 8.025,12.707 8.308,12.126 L8.370,11.999 L8.365,11.464 L8.741,11.840 L11.618,14.720 C11.699,14.804 11.799,14.864 11.948,14.920 C12.052,14.963 12.152,14.982 12.256,14.982 C12.489,14.982 12.720,14.886 12.890,14.718 C13.134,14.477 13.211,14.106 13.086,13.771 C13.041,13.640 12.975,13.535 12.894,13.456 L10.009,10.562 L9.629,10.182 L10.172,10.190 L10.301,10.129 C10.886,9.851 11.498,9.710 12.119,9.710 C14.325,9.710 16.173,11.445 16.326,13.660 L16.349,13.902 C16.350,14.330 16.289,14.738 16.169,15.138 L18.876,17.846 L19.389,17.339 L19.461,17.269 L22.710,14.017 L24.092,11.341 L24.142,11.243 L24.240,11.193 L27.080,9.726 L27.306,9.609 L27.484,9.791 L28.904,11.213 L29.081,11.391 L28.967,11.614 L27.500,14.454 Z" class="cls-1"/>
</svg>
