<svg xmlns="http://www.w3.org/2000/svg" xmlns:xlink="http://www.w3.org/1999/xlink" preserveAspectRatio="xMidYMid" width="7" height="10" viewBox="0 0 7 10">
  <path d="M3.500,-0.001 C1.570,-0.001 -0.000,1.483 -0.000,3.307 C-0.000,4.041 0.496,5.239 1.517,6.968 C2.239,8.191 2.950,9.211 2.980,9.254 L3.500,9.999 L4.020,9.254 C4.050,9.211 4.760,8.191 5.482,6.968 C6.503,5.239 7.000,4.041 7.000,3.307 C7.000,1.483 5.430,-0.001 3.500,-0.001 ZM3.500,4.999 C2.498,4.999 1.686,4.231 1.686,3.284 C1.686,2.338 2.498,1.570 3.500,1.570 C4.502,1.570 5.314,2.338 5.314,3.284 C5.314,4.231 4.502,4.999 3.500,4.999 Z" class="cls-1"/>
</svg>
