<svg xmlns="http://www.w3.org/2000/svg" xmlns:xlink="http://www.w3.org/1999/xlink" preserveAspectRatio="xMidYMid" width="19.969" height="22" viewBox="0 0 19.969 22">
  <path d="M19.640,15.584 L17.170,14.211 L19.255,13.017 C19.590,12.862 19.694,12.429 19.503,12.111 C19.309,11.785 18.890,11.716 18.572,11.894 L15.792,13.460 L11.374,10.987 L15.792,8.541 L18.572,10.104 C18.659,10.165 18.771,10.201 18.895,10.201 C19.131,10.201 19.342,10.094 19.503,9.890 C19.690,9.567 19.590,9.139 19.255,8.984 L17.170,7.789 L19.640,6.417 C19.962,6.239 20.072,5.839 19.888,5.510 C19.712,5.195 19.277,5.085 18.945,5.271 L16.463,6.656 L16.425,4.268 C16.420,3.899 16.128,3.601 15.743,3.601 C15.358,3.601 15.057,3.922 15.060,4.268 L15.085,7.420 L10.692,9.867 L10.692,4.902 L13.459,3.384 C13.782,3.209 13.923,2.799 13.732,2.478 C13.538,2.152 13.140,2.055 12.801,2.238 L10.692,3.384 L10.692,0.675 C10.692,0.306 10.381,0.008 9.997,0.008 C9.612,0.008 9.314,0.306 9.314,0.675 L9.314,3.410 L7.130,2.238 C6.789,2.058 6.402,2.160 6.211,2.478 C6.017,2.804 6.138,3.203 6.472,3.384 L9.314,4.925 L9.314,9.842 L4.821,7.349 L4.846,4.268 C4.884,3.922 4.561,3.601 4.176,3.601 L4.151,3.601 C3.791,3.601 3.472,3.899 3.469,4.268 L3.444,6.585 L1.024,5.248 C0.686,5.060 0.269,5.172 0.093,5.485 C-0.092,5.816 0.004,6.206 0.341,6.394 L2.786,7.754 L0.651,8.984 C0.316,9.139 0.212,9.572 0.416,9.890 C0.547,10.096 0.738,10.201 0.999,10.201 C1.135,10.201 1.249,10.168 1.359,10.104 L4.151,8.518 L8.631,10.987 L4.151,13.483 L1.359,11.894 C1.023,11.706 0.591,11.795 0.416,12.111 C0.231,12.439 0.331,12.834 0.651,13.017 L2.786,14.234 L0.341,15.606 C0.005,15.795 -0.105,16.192 0.093,16.516 C0.231,16.739 0.416,16.849 0.676,16.849 C0.738,16.849 0.862,16.813 1.024,16.752 L3.444,15.415 L3.469,17.733 C3.472,18.102 3.791,18.387 4.151,18.387 L4.176,18.387 C4.561,18.387 4.849,18.079 4.846,17.707 L4.821,14.629 L9.314,12.159 L9.314,17.050 L6.472,18.591 C6.133,18.774 6.014,19.174 6.211,19.497 C6.349,19.724 6.534,19.833 6.795,19.833 C6.919,19.833 7.033,19.813 7.130,19.759 L9.314,18.568 L9.314,21.348 C9.314,21.718 9.612,22.005 9.997,22.005 C10.381,22.005 10.692,21.718 10.692,21.348 L10.692,18.614 L12.801,19.759 C12.898,19.813 13.012,19.833 13.124,19.833 C13.397,19.833 13.598,19.726 13.732,19.497 C13.921,19.176 13.799,18.774 13.459,18.591 L10.692,17.099 L10.692,12.133 L15.085,14.580 L15.060,17.707 C15.057,18.079 15.358,18.387 15.743,18.387 C16.128,18.387 16.420,18.102 16.425,17.733 L16.463,15.332 L18.945,16.729 C19.041,16.783 19.168,16.801 19.305,16.801 C19.565,16.801 19.756,16.696 19.888,16.490 C20.092,16.172 19.962,15.762 19.640,15.584 Z" class="cls-1"/>
</svg>
