<svg width="36" height="36" viewBox="0 0 36 36" fill="none" xmlns="http://www.w3.org/2000/svg">
<g clip-path="url(#clip0)">
<path d="M11.6 24.2997C11.3 23.9997 10.9 23.9997 10.6 24.2997C10.3 24.5997 10.3 24.9997 10.6 25.2997C10.7 25.3997 10.9 25.4997 11.1 25.4997C11.3 25.4997 11.5 25.3997 11.6 25.2997C11.9 24.9997 11.9 24.4997 11.6 24.2997Z" fill="#414141"/>
<path d="M30 9.0999C29.9 8.9999 29.7 8.8999 29.5 8.8999C29.3 8.8999 29.1 8.9999 29 9.0999C28.9 9.1999 28.8 9.3999 28.8 9.5999C28.8 9.7999 28.9 9.9999 29 10.0999C29.1 10.1999 29.3 10.2999 29.5 10.2999C29.7 10.2999 29.9 10.1999 30 10.0999C30.1 9.9999 30.2001 9.7999 30.2001 9.5999C30.2001 9.3999 30.1 9.2999 30 9.0999Z" fill="#414141"/>
<path d="M8.0001 31.9L6.1001 33.8L4.2001 31.9L2.3001 30L4.1001 28L3.1001 27L0.700098 29.4C0.400098 29.7 0.400098 30.1 0.700098 30.4L2.6001 32.3L0.200098 34.7C-0.0999023 35 -0.0999023 35.4 0.200098 35.7C0.300098 35.9 0.500098 36 0.700098 36C0.900098 36 1.1001 35.9 1.2001 35.8L3.6001 33.4L5.5001 35.3C5.6001 35.4 5.8001 35.5 6.0001 35.5C6.2001 35.5 6.4001 35.4 6.5001 35.3L9.0001 32.9L8.0001 31.9Z" fill="#414141"/>
<path d="M36 4.7999C36 4.4999 35.9 4.0999 35.6 3.8999L32.1 0.399902C31.6 -0.100098 30.8 -0.100098 30.3 0.399902L29.1 1.5999C28.4 1.1999 27.6 0.899902 26.8 0.899902C25.6 0.899902 24.5 1.3999 23.6 2.1999L14.6 11.1999L9.10005 16.6999C8.50005 16.1999 7.60005 16.1999 7.00005 16.7999L5.60005 18.1999C5.00005 18.7999 5.00005 19.6999 5.60005 20.2999L2.50005 23.3999C2.40005 23.4999 2.30005 23.6999 2.30005 23.8999C2.30005 24.0999 2.40005 24.2999 2.50005 24.3999L11.6 33.4999C11.7 33.5999 11.9 33.6999 12.1 33.6999C12.3 33.6999 12.5 33.5999 12.6 33.4999L15.7 30.3999C16 30.5999 16.3 30.7999 16.7 30.7999C17.1 30.7999 17.5 30.5999 17.8 30.3999L19.2001 28.9999C19.8001 28.3999 19.8001 27.4999 19.2001 26.8999L33.7001 12.3999C35.2001 10.8999 35.4001 8.5999 34.4001 6.8999L35.6 5.6999C35.9 5.3999 36 5.0999 36 4.7999ZM18.2 27.8999L16.8 29.2999H16.7L13.8 26.3999C13.5 26.0999 13.1 26.0999 12.8 26.3999C12.5 26.6999 12.5 27.0999 12.8 27.3999L14.8 29.3999L12.2 31.9999L10.6 30.3999L5.70005 25.4999L4.10005 23.8999L6.70005 21.2999L8.30005 22.9999C8.60005 23.2999 9.00005 23.2999 9.30005 22.9999C9.60005 22.6999 9.60005 22.2999 9.30005 21.9999L7.10005 19.7999L6.70005 19.3999V19.2999L8.10005 17.8999H8.20005L17.8 27.4999L18.2 27.8999C18.3 27.8999 18.3 27.7999 18.2 27.8999ZM18.3 25.7999L10.2 17.6999L11.1 16.7999L19.2001 24.8999L18.3 25.7999ZM20.2001 23.8999L12.1 15.7999L13.1 14.7999L21.2001 22.8999L20.2001 23.8999ZM22.1 21.9999L14 13.8999L15.1 12.7999L23.2001 20.8999L22.1 21.9999ZM32.8 11.2999L24.3 19.7999L16.2 11.6999L23.4 4.4999L26.8 7.8999C26.9 7.9999 27.1 8.0999 27.3 8.0999C27.5 8.0999 27.7 7.9999 27.8 7.8999C28.1 7.5999 28.1 7.1999 27.8 6.8999L24.4 3.4999L24.7001 3.1999C25.9001 1.9999 27.8 1.9999 29 3.1999L32.8 6.9999C33.4 7.5999 33.7001 8.2999 33.7001 9.1999C33.7001 9.9999 33.4 10.6999 32.8 11.2999ZM33.5 5.6999L30.2001 2.3999L31.2001 1.3999L34.5 4.6999L33.5 5.6999Z" fill="#99AEC9"/>
</g>
<defs>
<clipPath id="clip0">
<rect width="36" height="36" fill="white"/>
</clipPath>
</defs>
</svg>
