<svg xmlns="http://www.w3.org/2000/svg" xmlns:xlink="http://www.w3.org/1999/xlink" preserveAspectRatio="xMidYMid" width="24" height="22" viewBox="0 0 24 22">
  <path d="M23.933,8.359 C23.565,7.259 21.542,7.006 19.400,6.734 C18.225,6.588 16.891,6.418 16.488,6.135 C16.084,5.852 15.517,4.685 15.017,3.653 C14.107,1.778 13.248,0.009 12.043,0.004 L12.020,0.004 C10.826,0.023 9.956,1.770 9.031,3.625 C8.522,4.651 7.943,5.813 7.538,6.091 C7.129,6.373 5.795,6.529 4.617,6.667 C2.475,6.916 0.449,7.150 0.071,8.243 C-0.306,9.340 1.172,10.684 2.741,12.108 C3.600,12.890 4.575,13.775 4.728,14.231 C4.880,14.687 4.621,15.953 4.395,17.066 C3.979,19.093 3.587,21.012 4.558,21.697 C4.790,21.857 5.083,21.938 5.427,21.931 C6.417,21.914 7.842,21.177 9.220,20.462 C10.252,19.921 11.422,19.313 11.945,19.305 C12.447,19.307 13.622,19.933 14.658,20.484 C16.067,21.234 17.524,22.009 18.516,21.994 C18.825,21.988 19.090,21.912 19.305,21.764 C20.282,21.091 19.911,19.173 19.517,17.138 C19.302,16.023 19.060,14.756 19.214,14.300 C19.371,13.845 20.356,12.970 21.224,12.194 C22.805,10.785 24.298,9.458 23.933,8.359 ZM18.680,11.864 C18.052,12.426 17.338,13.061 17.224,13.390 C17.112,13.721 17.288,14.638 17.445,15.445 C17.728,16.919 17.998,18.309 17.290,18.795 C17.135,18.902 16.943,18.959 16.721,18.962 C15.999,18.973 14.944,18.411 13.923,17.870 C13.173,17.469 12.324,17.017 11.958,17.015 C11.582,17.021 10.733,17.461 9.986,17.852 C8.989,18.370 7.957,18.904 7.238,18.916 C6.988,18.920 6.778,18.863 6.609,18.748 C5.907,18.250 6.191,16.861 6.490,15.394 C6.656,14.586 6.843,13.671 6.731,13.340 C6.622,13.010 5.915,12.369 5.293,11.802 C4.157,10.773 3.087,9.799 3.360,9.004 C3.634,8.212 5.101,8.043 6.652,7.861 C7.505,7.764 8.472,7.650 8.767,7.446 C9.060,7.243 9.479,6.403 9.850,5.659 C10.518,4.316 11.149,3.050 12.013,3.037 L12.028,3.037 C12.904,3.040 13.526,4.321 14.183,5.679 C14.545,6.426 14.955,7.270 15.249,7.476 C15.540,7.681 16.507,7.803 17.357,7.911 C18.910,8.105 20.374,8.288 20.639,9.086 C20.905,9.882 19.825,10.843 18.680,11.864 Z" class="cls-1"/>
</svg>
