<svg version="1.1" xmlns="http://www.w3.org/2000/svg" xmlns:xlink="http://www.w3.org/1999/xlink" x="0px" y="0px" viewBox="0 0 44 44" enable-background="new 0 0 44 44" xml:space="preserve">
<circle fill="currentColor" cx="22" cy="22" r="22"/>
<path d="M9,29c0,0,0.375-3.714,2.125-3.714S17.25,28.714,19,28.714s2.625-2.571,4.375-2.571S26,28.714,27.75,28.714
	s2.625-2.571,5.25-2.571V19h-3v-4.48L31.24,13h-6.16L26,14.52V19H14v2H9v-3.84l3,2.64V17h12v-1.6l-1-0.88V11h10v3.52L32.12,15H31v2
	h4v16H12v-6l0,0L9,29z"/>
</svg>
