<svg version="1.1" id="Layer_1" xmlns="http://www.w3.org/2000/svg" xmlns:xlink="http://www.w3.org/1999/xlink" x="0px" y="0px" viewBox="0 0 44 44" enable-background="new 0 0 44 44" xml:space="preserve">
<circle fill="currentColor" cx="22" cy="22" r="22"/>
<g>
	<path d="M28.272,19.649c0.292-0.504,0.444-1.073,0.444-1.666v-3.819c0-1.842-1.498-3.34-3.34-3.34h-9.111
		c-1.842,0-3.34,1.498-3.34,3.34v3.819c0,0.593,0.153,1.161,0.444,1.666c-1.426,0.94-2.37,2.556-2.37,4.388l0,7.138h19.642v-7.138
		C30.642,22.205,29.698,20.589,28.272,19.649z M14.47,17.984v-3.819c0-0.99,0.805-1.795,1.795-1.795h9.111
		c0.99,0,1.795,0.805,1.795,1.795v3.819c0,0.365-0.108,0.713-0.312,1.012c-0.421-0.123-0.865-0.195-1.322-0.207v-0.742
		c0-1.526-1.241-2.767-2.767-2.767h-0.038c0.029-0.133,0.044-0.27,0.044-0.411c0-1.078-0.877-1.956-1.956-1.956
		s-1.956,0.877-1.956,1.956c0,0.141,0.015,0.279,0.044,0.411h-0.038c-1.526,0-2.767,1.241-2.767,2.767v0.742
		c-0.458,0.013-0.901,0.084-1.322,0.207C14.578,18.697,14.47,18.349,14.47,17.984z"/>
	<path d="M35.229,19.33c-1.481,0-2.168-0.207-3.229,0.67c0,1,0.186,2.839,0.186,4.038v4.389
		c1.396-0.805,2.338-2.312,2.338-4.036v0.118c0-0.942,0.764-1.709,1.703-1.709H37v-3.47H35.229z"/>
</g>
</svg>
