<svg version="1.1" xmlns="http://www.w3.org/2000/svg" xmlns:xlink="http://www.w3.org/1999/xlink" x="0px" y="0px"
	 viewBox="0 0 44 44" enable-background="new 0 0 44 44" xml:space="preserve">
<circle fill="currentColor" cx="22" cy="22" r="22"/>
<path d="M32.938,9.85l-10.52-3.102c-0.274-0.08-0.563-0.08-0.838,0L11.062,9.85C10.437,10.034,10,10.619,10,11.27
	v8.27c0,4.37,1.322,8.562,3.823,12.121c1.939,2.761,4.529,5.04,7.492,6.591c0.214,0.113,0.45,0.168,0.685,0.168
	c0.235,0,0.471-0.056,0.685-0.168c2.963-1.551,5.553-3.831,7.492-6.591C32.678,28.102,34,23.91,34,19.54v-8.27
	C34,10.619,33.563,10.034,32.938,9.85z M26.178,21.769c-0.57,0.571-1.329,0.885-2.137,0.885c-0.396,0-0.789-0.078-1.152-0.227
	l-4.162,4.161c-0.22,0.22-0.513,0.341-0.824,0.341c-0.311,0-0.604-0.121-0.824-0.341c-0.455-0.454-0.455-1.194,0-1.649l4.161-4.161
	c-0.458-1.115-0.211-2.422,0.657-3.29c0.605-0.604,1.429-0.92,2.288-0.88c0.194,0.01,0.363,0.132,0.432,0.312
	c0.07,0.18,0.027,0.386-0.11,0.522l-1.19,1.19c-0.055,0.055-0.062,0.118-0.062,0.15c0,0.033,0.008,0.095,0.062,0.15l1.418,1.418
	c0.054,0.054,0.117,0.062,0.15,0.062c0.032,0,0.096-0.008,0.15-0.062l1.19-1.189c0.137-0.138,0.341-0.181,0.521-0.111
	c0.181,0.07,0.303,0.24,0.312,0.432C27.1,20.335,26.779,21.169,26.178,21.769z"/>
</svg>
