<svg version="1.1" xmlns="http://www.w3.org/2000/svg" xmlns:xlink="http://www.w3.org/1999/xlink" x="0px" y="0px" viewBox="0 0 44 44" enable-background="new 0 0 44 44" xml:space="preserve">
<circle fill="currentColor" cx="22" cy="22" r="22"/>
<path d="M22,7.801C14.157,7.801,7.801,14.157,7.801,22c0,7.838,6.356,14.199,14.199,14.199
	c7.838,0,14.199-6.361,14.199-14.199C36.199,14.157,29.838,7.801,22,7.801L22,7.801z M22,11.349c4.619,0,8.522,2.977,9.995,7.102
	H12.004C13.477,14.326,17.377,11.349,22,11.349L22,11.349z M22,23.771c-0.984,0-1.777-0.792-1.777-1.771
	c0-0.984,0.793-1.777,1.777-1.777c0.979,0,1.771,0.793,1.771,1.777C23.771,22.979,22.979,23.771,22,23.771L22,23.771z M11.349,22
	c4.848,0,8.778,4.671,8.861,10.468C15.193,31.606,11.349,27.255,11.349,22L11.349,22z M23.789,32.468
	C23.871,26.671,27.797,22,32.645,22C32.645,27.255,28.807,31.606,23.789,32.468L23.789,32.468z M23.789,32.468"/>
</svg>
