<svg version="1.1" xmlns="http://www.w3.org/2000/svg" xmlns:xlink="http://www.w3.org/1999/xlink" x="0px" y="0px" viewBox="0 0 44 44" enable-background="new 0 0 44 44" xml:space="preserve">
<circle fill="currentColor" cx="22" cy="22" r="22"/>
<path d="M36.949,25.712c-0.027-0.224-0.288-0.395-0.512-0.395c-0.736,0-1.387-0.427-1.659-1.094
	c-0.277-0.683-0.096-1.478,0.448-1.979c0.171-0.155,0.192-0.421,0.048-0.603c-0.373-0.475-0.8-0.907-1.264-1.28
	c-0.187-0.144-0.453-0.123-0.608,0.048c-0.48,0.528-1.334,0.726-1.995,0.448c-0.688-0.288-1.126-0.987-1.083-1.734
	c0.016-0.235-0.155-0.437-0.389-0.469c-0.598-0.069-1.2-0.069-1.803,0c-0.229,0.021-0.4,0.224-0.395,0.453
	c0.027,0.742-0.411,1.43-1.094,1.707c-0.656,0.267-1.504,0.075-1.979-0.448c-0.16-0.176-0.421-0.197-0.603-0.053
	c-0.48,0.379-0.918,0.806-1.296,1.28c-0.149,0.181-0.123,0.448,0.048,0.608c0.555,0.501,0.736,1.307,0.448,1.995
	c-0.277,0.656-0.96,1.083-1.739,1.083c-0.256-0.011-0.438,0.16-0.464,0.389c-0.069,0.603-0.069,1.216-0.005,1.819
	c0.027,0.224,0.299,0.395,0.528,0.395c0.694-0.016,1.366,0.411,1.643,1.094c0.283,0.683,0.101,1.478-0.448,1.979
	c-0.171,0.16-0.192,0.421-0.048,0.603c0.373,0.475,0.8,0.902,1.264,1.28c0.187,0.149,0.453,0.128,0.608-0.048
	c0.48-0.528,1.339-0.726,1.995-0.448c0.694,0.288,1.126,0.987,1.083,1.734c-0.011,0.235,0.16,0.443,0.395,0.469
	c0.304,0.037,0.614,0.053,0.918,0.053c0.293,0,0.587-0.016,0.88-0.048c0.229-0.027,0.405-0.229,0.395-0.459
	c-0.027-0.742,0.416-1.43,1.094-1.707c0.661-0.267,1.504-0.069,1.985,0.453c0.155,0.171,0.416,0.192,0.603,0.048
	c0.475-0.373,0.912-0.806,1.291-1.28c0.149-0.181,0.128-0.448-0.048-0.608c-0.555-0.501-0.736-1.302-0.448-1.995
	c0.272-0.646,0.928-1.083,1.638-1.083l0.101,0.005c0.229,0.016,0.438-0.16,0.464-0.395C37.018,26.928,37.018,26.32,36.949,25.712z
	 M29,29c-1.381,0-2.5-1.119-2.5-2.5c0-1.381,1.119-2.5,2.5-2.5s2.5,1.119,2.5,2.5C31.5,27.881,30.381,29,29,29z"/>
<path d="M21.185,21.797c-0.555-0.501-0.736-1.302-0.448-1.995c0.272-0.646,0.928-1.083,1.638-1.083l0.101,0.005
	c0.229,0.016,0.437-0.16,0.464-0.395c0.075-0.603,0.075-1.211,0.005-1.819c-0.027-0.224-0.288-0.395-0.512-0.395
	c-0.736,0-1.387-0.427-1.659-1.094c-0.277-0.683-0.096-1.478,0.448-1.979c0.171-0.155,0.192-0.421,0.048-0.603
	c-0.373-0.475-0.8-0.907-1.264-1.28c-0.187-0.144-0.453-0.123-0.608,0.048c-0.48,0.528-1.334,0.726-1.995,0.448
	c-0.688-0.288-1.126-0.987-1.083-1.734c0.016-0.235-0.155-0.437-0.389-0.469c-0.598-0.069-1.2-0.069-1.803,0
	c-0.229,0.021-0.4,0.224-0.395,0.453c0.027,0.742-0.411,1.43-1.094,1.707c-0.656,0.267-1.504,0.075-1.979-0.448
	c-0.16-0.176-0.421-0.197-0.603-0.053c-0.48,0.379-0.918,0.806-1.296,1.28C8.61,12.573,8.637,12.84,8.808,13
	c0.555,0.501,0.736,1.307,0.448,1.995c-0.277,0.656-0.96,1.083-1.739,1.083c-0.256-0.011-0.438,0.16-0.464,0.389
	c-0.069,0.603-0.069,1.216-0.005,1.819c0.027,0.224,0.299,0.395,0.528,0.395c0.694-0.016,1.366,0.411,1.643,1.094
	c0.283,0.683,0.101,1.478-0.448,1.979c-0.171,0.16-0.192,0.421-0.048,0.603c0.373,0.475,0.8,0.902,1.264,1.28
	c0.187,0.149,0.453,0.128,0.608-0.048c0.48-0.528,1.339-0.726,1.995-0.448c0.694,0.288,1.126,0.987,1.083,1.734
	c-0.011,0.235,0.16,0.443,0.395,0.469c0.304,0.037,0.614,0.053,0.918,0.053c0.293,0,0.587-0.016,0.88-0.048
	c0.229-0.027,0.405-0.229,0.395-0.459c-0.027-0.742,0.416-1.43,1.094-1.707c0.661-0.267,1.504-0.069,1.985,0.453
	c0.155,0.171,0.416,0.192,0.603,0.048c0.475-0.373,0.912-0.806,1.291-1.28C21.382,22.224,21.361,21.957,21.185,21.797z M14.5,20
	c-1.381,0-2.5-1.119-2.5-2.5c0-1.381,1.119-2.5,2.5-2.5s2.5,1.119,2.5,2.5C17,18.881,15.881,20,14.5,20z"/>
</svg>
