<svg version="1.1" xmlns="http://www.w3.org/2000/svg" xmlns:xlink="http://www.w3.org/1999/xlink" x="0px" y="0px" viewBox="0 0 44 44" enable-background="new 0 0 44 44" xml:space="preserve">
<circle fill="currentColor" cx="22" cy="22" r="22"/>
<g>
	<path d="M20.204,11h3.592C23.909,11,24,10.909,24,10.796v-1c0,0,0.142,0.009,0.108,0.204h-0.261
		C23.487,9.805,23.195,9.513,23,9.153v-0.26c0.195-0.36,0.487-0.651,0.847-0.893h0.261C24.142,8.241,24,8.25,24,8.25V7.204
		C24,7.091,23.909,7,23.796,7h-3.61C20.083,7,20,7.083,20,7.186v3.609C20,10.909,20.091,11,20.204,11L20.204,11z M20.746,10.847
		L20.746,10.847z"/>
	<path d="M28,15.35v17.924c0,0,0.587,0.594,0,0.964v0.292C28.587,35.335,27.128,36,27.128,36h-9.487
		c0,0-1.46-0.665-1.641-1.471v-0.292c0.181-0.37,0.319-0.706,0-0.964V15.35c0.319-0.257,0.181-0.594,0-0.964v-0.291
		C16.181,13.288,17.641,13,17.641,13h0.89c0,0,0.723-1.095,1.263-1h5.182c0.54-0.095,1.01,0.2,1.263,1h0.89
		c0.806-0.365,1.459,0.288,0.872,1.095v0.291C28.587,14.756,28,15.35,28,15.35z"/>
	<path d="M29.785,7.902c0.087-0.037,0.154-0.106,0.189-0.194c0.035-0.088,0.034-0.185-0.003-0.271
		c-0.056-0.131-0.184-0.215-0.326-0.215c-0.048,0-0.095,0.01-0.139,0.029l-4.908,2.104l5.146-1.437
		C29.749,7.915,29.767,7.909,29.785,7.902L29.785,7.902z M29.785,7.902L29.785,7.902z"/>
	<path d="M29.785,10.144c-0.013-0.006-0.029-0.011-0.047-0.016l-5.141-1.435l4.908,2.104
		c0.045,0.019,0.092,0.029,0.14,0.029c0.142,0,0.27-0.084,0.326-0.215c0.037-0.087,0.038-0.184,0.003-0.271
		C29.939,10.25,29.873,10.182,29.785,10.144L29.785,10.144z M29.785,10.144L29.785,10.144z"/>
</g>
</svg>
