<svg xmlns="http://www.w3.org/2000/svg" xmlns:xlink="http://www.w3.org/1999/xlink" preserveAspectRatio="xMidYMid" width="12" height="10" viewBox="0 0 12 10">
  <path d="M0.138,5.500 C0.046,5.400 -0.000,5.250 -0.000,5.150 C-0.000,5.050 0.046,4.900 0.138,4.800 L0.784,4.100 C0.969,3.900 1.246,3.900 1.430,4.100 L1.477,4.150 L4.015,7.100 C4.107,7.200 4.246,7.200 4.338,7.100 L10.523,0.149 L10.569,0.149 L10.569,0.149 L10.569,0.149 C10.753,-0.051 11.030,-0.051 11.215,0.149 L11.861,0.849 C12.046,1.049 12.046,1.350 11.861,1.549 L11.861,1.549 L11.861,1.549 L4.477,9.850 C4.384,9.950 4.292,10.000 4.153,10.000 C4.015,10.000 3.923,9.950 3.830,9.850 L0.230,5.650 L0.138,5.500 Z" class="cls-1"/>
</svg>
