<svg width="36" height="36" viewBox="0 0 36 36" fill="none" xmlns="http://www.w3.org/2000/svg">
<g clip-path="url(#clip0)">
<path d="M25.5929 25.5928H25.5097C25.1215 25.5928 24.8066 25.9075 24.8066 26.2958C24.8066 26.6841 25.1214 26.9989 25.5097 26.9989H25.5929C25.9811 26.9989 26.2959 26.6842 26.2959 26.2958C26.2959 25.9075 25.9811 25.5928 25.5929 25.5928Z" fill="#414141"/>
<path d="M35.2969 19.9687H26.5758V18.0352L29.4374 18.802C29.4983 18.8183 29.5595 18.8261 29.6198 18.8261C29.9301 18.8261 30.2143 18.6189 30.2984 18.3049C30.399 17.9298 30.1764 17.5443 29.8013 17.4438L18.936 14.5325C18.5607 14.4319 18.1755 14.6546 18.075 15.0296C17.9745 15.4046 18.1971 15.7901 18.5721 15.8906L21.7976 16.7548V19.9686H16.5916V19.828C16.5916 19.4397 16.2769 19.1249 15.8886 19.1249H13.7795V13.7819C13.7795 12.2313 12.5179 10.9697 10.9673 10.9697H2.81215C1.26155 10.9697 0 12.2313 0 13.7819V33.1856C0 34.7362 1.26155 35.9977 2.81215 35.9977H10.9673C12.5179 35.9977 13.7795 34.7362 13.7795 33.1856V27.8425H15.8886C16.2768 27.8425 16.5916 27.5278 16.5916 27.1395V26.9989H21.9581C22.3463 26.9989 22.6612 26.6841 22.6612 26.2958C22.6612 25.9075 22.3464 25.5928 21.9581 25.5928H16.5916V21.3746H34.594V25.5928H29.6194C29.2312 25.5928 28.9163 25.9075 28.9163 26.2958C28.9163 26.6841 29.2311 26.9989 29.6194 26.9989H35.297C35.6852 26.9989 36.0001 26.6841 36.0001 26.2958V20.6715C36 20.2834 35.6853 19.9687 35.2969 19.9687ZM2.81215 34.5918C2.03681 34.5918 1.40611 33.961 1.40611 33.1857V32.6451L3.35278 34.5918H2.81215V34.5918ZM12.3734 33.1857C12.3734 33.9611 11.7426 34.5918 10.9673 34.5918H10.4267L12.3734 32.6451V33.1857V33.1857ZM12.3734 16.6951C12.2665 16.7276 12.1658 16.7859 12.0814 16.8704L8.67164 20.2802C8.39714 20.5547 8.39714 20.9999 8.67164 21.2744C8.80896 21.4118 8.98882 21.4804 9.16875 21.4804C9.34868 21.4804 9.52854 21.4118 9.66586 21.2744L12.3734 18.5669V19.8281V21.3879C12.2665 21.4203 12.1658 21.4786 12.0814 21.5631L8.67164 24.9729C8.39714 25.2474 8.39714 25.6926 8.67164 25.9672C8.80896 26.1045 8.98882 26.1731 9.16875 26.1731C9.34868 26.1731 9.52854 26.1045 9.66586 25.9672L12.3734 23.2596V26.0807C12.2665 26.1132 12.1658 26.1715 12.0814 26.256L8.67164 29.6658C8.39714 29.9403 8.39714 30.3855 8.67164 30.66C8.80896 30.7974 8.98882 30.866 9.16875 30.866C9.34868 30.866 9.52854 30.7974 9.66586 30.66L12.3734 27.9524V30.7735C12.2665 30.806 12.1658 30.8643 12.0814 30.9488L8.67164 34.3585C8.60273 34.4275 8.5512 34.5071 8.51688 34.5921H5.26261C5.2283 34.507 5.17676 34.4275 5.10785 34.3585L1.69812 30.9488C1.6136 30.8643 1.51284 30.8061 1.40604 30.7735V27.9524L4.11356 30.66C4.25088 30.7973 4.43074 30.8659 4.61067 30.8659C4.7906 30.8659 4.97046 30.7973 5.10778 30.66C5.38228 30.3854 5.38228 29.9403 5.10778 29.6657L1.69805 26.2559C1.61353 26.1714 1.51277 26.1132 1.40597 26.0807V23.2595L4.11349 25.967C4.25081 26.1044 4.43067 26.173 4.6106 26.173C4.79053 26.173 4.97039 26.1044 5.10771 25.967C5.38221 25.6925 5.38221 25.2473 5.10771 24.9727L1.69798 21.563C1.61346 21.4785 1.5127 21.4203 1.4059 21.3877V18.5666L4.11342 21.2742C4.25074 21.4115 4.4306 21.4801 4.61053 21.4801C4.79046 21.4801 4.97032 21.4115 5.10764 21.2742C5.38214 20.9996 5.38214 20.5544 5.10764 20.2799L1.69819 16.8702C1.61367 16.7857 1.51291 16.7275 1.40611 16.6949V13.8738L4.11363 16.5814C4.25095 16.7187 4.43081 16.7873 4.61074 16.7873C4.79067 16.7873 4.97053 16.7187 5.10785 16.5814C5.38235 16.3069 5.38235 15.8616 5.10785 15.5871L2.09517 12.5747C2.30541 12.4493 2.55002 12.376 2.81215 12.376H10.9673V12.3759C11.2294 12.3759 11.4741 12.4493 11.6843 12.5746L8.67171 15.5872C8.39721 15.8617 8.39721 16.3069 8.67171 16.5815C8.80903 16.7188 8.98889 16.7875 9.16882 16.7875C9.34875 16.7875 9.52861 16.7188 9.66593 16.5815L12.3735 13.8741V16.6951H12.3734ZM15.1855 20.6717V26.296V26.4366H13.7795V20.5312H15.1855V20.6717V20.6717ZM25.1698 17.719V19.9687H23.2037V17.1316L25.1729 17.6593C25.1712 17.679 25.1698 17.6988 25.1698 17.719Z" fill="#414141"/>
<path d="M29.8012 11.5798L18.9359 8.66843C18.5607 8.56788 18.1754 8.79056 18.0749 9.16554C17.9744 9.54059 18.197 9.92611 18.572 10.0266L29.4374 12.9379C29.4983 12.9543 29.5595 12.9621 29.6198 12.9621C29.9301 12.9621 30.2142 12.7549 30.2984 12.4408C30.3988 12.0658 30.1763 11.6803 29.8012 11.5798Z" fill="#99AEC9"/>
<path d="M29.8012 14.5117L18.9359 11.6003C18.5607 11.4998 18.1754 11.7224 18.0749 12.0974C17.9744 12.4725 18.197 12.858 18.572 12.9585L29.4374 15.8698C29.4983 15.8861 29.5595 15.894 29.6198 15.894C29.9301 15.894 30.2142 15.6867 30.2984 15.3727C30.3988 14.9977 30.1763 14.6122 29.8012 14.5117Z" fill="#99AEC9"/>
<path d="M29.8012 8.64814L26.5758 7.78393V4.22063H28.4049C29.5679 4.22063 30.514 3.2745 30.514 2.11154C30.514 0.948566 29.5679 0.00244141 28.4049 0.00244141H19.9685C18.8055 0.00244141 17.8594 0.948566 17.8594 2.11154C17.8594 3.2745 18.8054 4.22063 19.9684 4.22063H21.7975V6.50354L18.9359 5.73678C18.5607 5.63623 18.1754 5.85891 18.075 6.23389C17.9744 6.60893 18.197 6.99446 18.5721 7.09493L29.4374 10.0063C29.4983 10.0226 29.5595 10.0304 29.6198 10.0304C29.9301 10.0304 30.2143 9.8232 30.2984 9.50918C30.3989 9.13414 30.1764 8.74861 29.8012 8.64814ZM19.9684 2.81452C19.5808 2.81452 19.2653 2.49917 19.2653 2.11146C19.2653 1.72383 19.5808 1.40841 19.9684 1.40841H28.4048C28.7924 1.40841 29.1078 1.72376 29.1078 2.11146C29.1078 2.4991 28.7925 2.81452 28.4048 2.81452H19.9684ZM25.1698 7.40712L23.2036 6.88027V4.22063H25.1698V7.40712Z" fill="#414141"/>
</g>
<defs>
<clipPath id="clip0">
<rect width="36" height="36" fill="white"/>
</clipPath>
</defs>
</svg>
