<svg xmlns="http://www.w3.org/2000/svg" xmlns:xlink="http://www.w3.org/1999/xlink" preserveAspectRatio="xMidYMid" width="10" height="10" viewBox="0 0 10 10">
  <path d="M9.995,7.891 C10.016,8.054 9.967,8.195 9.847,8.315 L8.439,9.713 C8.375,9.784 8.292,9.844 8.190,9.894 C8.088,9.943 7.987,9.975 7.888,9.989 C7.881,9.989 7.860,9.991 7.825,9.994 C7.790,9.998 7.744,9.999 7.687,9.999 C7.553,9.999 7.336,9.977 7.036,9.931 C6.736,9.885 6.369,9.772 5.935,9.592 C5.501,9.412 5.009,9.141 4.458,8.781 C3.908,8.421 3.322,7.927 2.701,7.298 C2.207,6.811 1.798,6.345 1.473,5.900 C1.148,5.455 0.887,5.044 0.690,4.666 C0.492,4.288 0.344,3.945 0.245,3.638 C0.146,3.331 0.079,3.066 0.044,2.844 C0.009,2.621 -0.005,2.447 0.002,2.320 C0.009,2.192 0.012,2.122 0.012,2.108 C0.026,2.009 0.058,1.908 0.107,1.806 C0.157,1.703 0.217,1.620 0.287,1.557 L1.695,0.148 C1.794,0.049 1.907,-0.001 2.034,-0.001 C2.126,-0.001 2.207,0.026 2.278,0.079 C2.348,0.132 2.408,0.197 2.458,0.275 L3.590,2.425 C3.654,2.539 3.671,2.662 3.643,2.796 C3.615,2.930 3.555,3.043 3.463,3.135 L2.945,3.654 C2.930,3.669 2.918,3.691 2.907,3.723 C2.897,3.755 2.892,3.782 2.892,3.802 C2.920,3.951 2.983,4.120 3.082,4.311 C3.167,4.480 3.297,4.687 3.474,4.931 C3.650,5.175 3.901,5.455 4.225,5.773 C4.543,6.098 4.825,6.350 5.072,6.530 C5.319,6.711 5.526,6.843 5.692,6.928 C5.858,7.012 5.985,7.063 6.073,7.081 L6.205,7.108 C6.219,7.108 6.242,7.102 6.274,7.092 C6.306,7.081 6.329,7.069 6.343,7.054 L6.946,6.440 C7.073,6.327 7.221,6.271 7.391,6.271 C7.511,6.271 7.606,6.292 7.677,6.334 L7.687,6.334 L9.730,7.542 C9.879,7.634 9.967,7.750 9.995,7.891 Z" class="cls-1"/>
</svg>
