<svg xmlns="http://www.w3.org/2000/svg" xmlns:xlink="http://www.w3.org/1999/xlink" preserveAspectRatio="xMidYMid" width="14" height="14" viewBox="0 0 14 14">
  <path d="M7.000,14.000 C3.140,14.000 0.000,10.859 0.000,6.999 C0.000,3.140 3.140,-0.001 7.000,-0.001 C10.860,-0.001 14.000,3.140 14.000,6.999 C14.000,10.859 10.860,14.000 7.000,14.000 ZM7.000,0.800 C3.581,0.800 0.800,3.581 0.800,6.999 C0.800,10.418 3.581,13.199 7.000,13.199 C10.418,13.199 13.200,10.418 13.200,6.999 C13.200,3.581 10.419,0.800 7.000,0.800 ZM9.147,9.546 C9.044,9.546 8.942,9.507 8.864,9.429 L6.717,7.282 C6.642,7.207 6.600,7.105 6.600,6.999 L6.600,2.458 C6.600,2.237 6.779,2.058 7.000,2.058 C7.221,2.058 7.400,2.237 7.400,2.458 L7.400,6.834 L9.429,8.863 C9.586,9.020 9.586,9.273 9.429,9.429 C9.351,9.507 9.249,9.546 9.147,9.546 Z" class="cls-1"/>
</svg>
