<svg width="36" height="36" viewBox="0 0 36 36" fill="none" xmlns="http://www.w3.org/2000/svg">
<path d="M18 4.2002C17.6 4.2002 17.3 4.5002 17.3 4.9002C17.3 5.3002 17.6 5.6002 18 5.6002C18.4 5.6002 18.7001 5.3002 18.7001 4.9002C18.7001 4.5002 18.4 4.2002 18 4.2002Z" fill="#99AEC9"/>
<path d="M18 0C8.3 0 0 8.2 0 18C0 27.7 8.3 36 18 36C27.7 36 36 27.7 36 18C36 8.3 27.7 0 18 0ZM32.6 25.8L32.2 25.6C31.9 25.4 31.4 25.5 31.2 25.9C31 26.2 31.1 26.7 31.5 26.9L31.9 27.1C30.6 29 29 30.7 27 32L26.8 31.6C26.6 31.3 26.2 31.1 25.8 31.3C25.5 31.5 25.3 31.9 25.5 32.3L25.7 32.7C23.5 33.9 21.1 34.6 18.6 34.7V34C18.6 33.6 18.3 33.3 17.9 33.3C17.5 33.3 17.2 33.6 17.2 34V34.7C14.7 34.6 12.3 33.9 10.1 32.7L10.3 32.3C10.5 32 10.4 31.5 10 31.3C9.7 31.1 9.2 31.2 9 31.6V31.9C7.1 30.6 5.4 29 4.1 27L4.5 26.8C4.8 26.6 5 26.2 4.8 25.8C4.6 25.5 4.2 25.3 3.8 25.5L3.4 25.7C2.2 23.6 1.5 21.2 1.4 18.6H2.1C2.5 18.6 2.8 18.3 2.8 17.9C2.8 17.5 2.5 17.2 2.1 17.2H1.4C1.5 14.7 2.2 12.3 3.4 10.1L3.8 10.3C4.1 10.5 4.6 10.4 4.8 10C5 9.7 4.9 9.2 4.5 9H4.2C5.4 7.1 7.1 5.5 9 4.2L9.2 4.6C9.4 4.9 9.8 5.1 10.2 4.9C10.5 4.7 10.7 4.3 10.5 3.9L10.3 3.5C12.5 2.3 14.9 1.6 17.4 1.5V2.2C17.4 2.6 17.7 2.9 18.1 2.9C18.5 2.9 18.8 2.6 18.8 2.2V1.4C21.2 1.5 23.7 2.2 25.9 3.4L25.7 3.8C25.5 4.1 25.6 4.6 26 4.8C26.3 5 26.8 4.9 27 4.5V4.2C29 5.5 30.6 7.2 31.9 9.1L31.5 9.3C31.2 9.5 31 9.9 31.2 10.3C31.4 10.6 31.8 10.8 32.2 10.6L32.6 10.4C33.8 12.6 34.5 15 34.6 17.5H33.9C33.5 17.5 33.2 17.8 33.2 18.2C33.2 18.6 33.5 18.9 33.9 18.9H34.6C34.5 21.2 33.8 23.6 32.6 25.8Z" fill="#99AEC9"/>
<path d="M21 4.50008C20.6 4.40008 20.2 4.70008 20.2 5.00008C20.1 5.40008 20.4 5.80008 20.7 5.80008C26.2 7.00008 30.4 12.3001 30.4 17.9001C30.4 18.3001 30.7 18.6001 31.1 18.6001C31.5 18.6001 31.8 18.3001 31.8 17.9001C31.8 11.7001 26.9 5.90008 21 4.50008Z" fill="#99AEC9"/>
<path d="M18.1 7.50007C12.2 7.40007 7.5 12.2001 7.5 18.0001C7.5 23.8001 12.2 28.5001 18 28.5001C23.8 28.5001 28.5 23.8001 28.5 18.0001C28.5 12.2001 23.9 7.50007 18.1 7.50007ZM24.6 11.7001L21.2 13.7001C20.9 13.9001 20.6 13.8001 20.5 13.7001C20.4 13.6001 20.1 13.5001 20.1 13.1001V9.10007C21.8 9.50007 23.4 10.4001 24.6 11.7001ZM15.9 9.10007V13.1001C15.9 13.5001 15.7 13.6001 15.5 13.7001C15.4 13.8001 15.1 13.9001 14.8 13.7001L11.4 11.7001C12.6 10.4001 14.2 9.50007 15.9 9.10007ZM8.9 18.0001C8.9 17.1001 9 16.2001 9.3 15.3001L12.8 17.4001C13.1 17.6001 13.1 17.9001 13.1 18.0001C13.1 18.1001 13.1 18.4001 12.8 18.6001L9.3 20.7001C9 19.8001 8.9 18.9001 8.9 18.0001ZM15.9 26.9001C14.2 26.5001 12.6 25.6001 11.4 24.3001L14.8 22.3001C15.1 22.1001 15.4 22.2001 15.5 22.3001C15.6 22.4001 15.9 22.5001 15.9 22.9001V26.9001ZM20.1 26.9001V22.9001C20.1 22.5001 20.3 22.4001 20.5 22.3001C20.6 22.2001 20.9 22.1001 21.2 22.3001L24.6 24.3001C23.4 25.6001 21.8 26.5001 20.1 26.9001ZM25.5 23.2001L21.9 21.1001C21.2 20.7001 20.4 20.7001 19.8 21.1001C19.1 21.5001 18.7 22.2001 18.7 22.9001V27.1001C18.2 27.1001 17.8 27.1001 17.3 27.1001V22.9001C17.3 22.1001 16.9 21.5001 16.2 21.1001C15.5 20.7001 14.7 20.7001 14.1 21.1001L10.5 23.2001C10.2 22.8001 10 22.4001 9.8 22.0001L13.5 19.8001C14.2 19.4001 14.5 18.7001 14.5 18.0001C14.5 17.2001 14.1 16.6001 13.5 16.2001L9.8 14.0001C10 13.6001 10.2 13.2001 10.5 12.8001L14.1 14.9001C14.4 15.1001 14.8 15.2001 15.2 15.2001C15.6 15.2001 15.9 15.1001 16.3 14.9001C17 14.5001 17.4 13.8001 17.4 13.1001V8.90007C17.6 8.90007 17.9 8.90007 18.1 8.90007C18.3 8.90007 18.6 8.90007 18.8 8.90007V13.1001C18.8 13.9001 19.2 14.5001 19.9 14.9001C20.2 15.1001 20.6 15.2001 21 15.2001C21.4 15.2001 21.7 15.1001 22.1 14.9001L25.7 12.8001C26 13.2001 26.2 13.6001 26.4 14.0001L22.7 16.2001C22 16.6001 21.7 17.3001 21.7 18.0001C21.7 18.8001 22.1 19.4001 22.7 19.8001L26.4 22.0001C26 22.4001 25.8 22.8001 25.5 23.2001ZM23.2 18.6001C22.9 18.4001 22.9 18.1001 22.9 18.0001C22.9 17.9001 22.9 17.6001 23.2 17.4001L26.7 15.3001C27 16.2001 27.1 17.0001 27.1 18.0001C27.1 19.0001 27 19.8001 26.7 20.7001L23.2 18.6001Z" fill="#414141"/>
<path d="M18 15.8999C16.8 15.8999 15.9 16.7999 15.9 17.9999C15.9 19.1999 16.8 20.0999 18 20.0999C19.2 20.0999 20.1 19.1999 20.1 17.9999C20.1 16.7999 19.2 15.8999 18 15.8999ZM18 18.6999C17.6 18.6999 17.3 18.3999 17.3 17.9999C17.3 17.5999 17.6 17.2999 18 17.2999C18.4 17.2999 18.7 17.5999 18.7 17.9999C18.7 18.3999 18.4 18.6999 18 18.6999Z" fill="#414141"/>
</svg>
