<svg xmlns="http://www.w3.org/2000/svg" xmlns:xlink="http://www.w3.org/1999/xlink" preserveAspectRatio="xMidYMid" width="30" height="27" viewBox="0 0 30 27">
  <path d="M24.599,12.560 C21.617,12.560 19.198,10.080 19.198,7.011 C19.198,3.948 21.611,1.462 24.599,1.462 C27.580,1.462 30.000,3.948 30.000,7.011 C30.000,10.074 27.580,12.560 24.599,12.560 ZM26.290,4.728 L23.907,7.163 L22.913,6.136 L21.876,7.195 L22.870,8.222 L23.901,9.288 L24.938,8.229 L27.321,5.794 L26.290,4.728 ZM14.975,3.219 L14.975,23.778 L24.574,20.810 L24.574,14.805 C24.580,14.805 24.586,14.805 24.599,14.805 C25.537,14.805 26.432,14.621 27.259,14.298 L27.259,21.825 C27.259,22.434 26.870,22.967 26.302,23.144 L14.018,26.943 C13.889,26.981 13.759,27.000 13.630,27.000 C13.500,27.000 13.364,26.981 13.241,26.943 L0.957,23.144 C0.389,22.973 -0.000,22.434 -0.000,21.825 L-0.000,5.147 C-0.000,4.538 0.389,4.005 0.957,3.828 L2.074,3.485 L4.728,2.667 L4.728,9.389 L7.765,8.800 L7.765,1.735 L10.494,0.892 L13.247,0.042 C13.272,0.029 13.296,0.029 13.321,0.023 C13.346,0.016 13.370,0.010 13.395,0.004 C13.555,-0.028 13.716,-0.028 13.877,0.004 C13.901,0.010 13.926,0.016 13.951,0.023 C13.975,0.029 14.000,0.036 14.025,0.042 L19.142,1.621 C18.494,2.319 17.963,3.130 17.599,4.031 L14.975,3.219 Z" class="cls-1"/>
</svg>
