<svg xmlns="http://www.w3.org/2000/svg" xmlns:xlink="http://www.w3.org/1999/xlink" preserveAspectRatio="xMidYMid" width="15" height="24" viewBox="0 0 15 24">
  <path d="M7.499,-0.003 C3.364,-0.003 -0.001,3.558 -0.001,7.936 C-0.001,9.698 1.063,12.573 3.250,16.724 C4.798,19.658 6.320,22.105 6.384,22.208 L7.499,23.998 L8.614,22.208 C8.678,22.105 10.200,19.658 11.747,16.724 C13.935,12.573 14.999,9.699 14.999,7.936 C14.999,3.558 11.634,-0.003 7.499,-0.003 ZM7.499,11.997 C5.352,11.997 3.611,10.155 3.611,7.883 C3.611,5.610 5.352,3.767 7.499,3.767 C9.646,3.767 11.387,5.610 11.387,7.883 C11.387,10.155 9.646,11.997 7.499,11.997 Z" class="cls-1"/>
</svg>
