<svg xmlns="http://www.w3.org/2000/svg" xmlns:xlink="http://www.w3.org/1999/xlink" preserveAspectRatio="xMidYMid" width="27" height="24" viewBox="0 0 27 24">
  <path d="M25.908,20.727 L22.300,20.106 L21.062,23.387 C20.797,24.088 19.786,24.178 19.392,23.529 L15.399,16.954 C15.296,16.784 15.394,16.567 15.596,16.523 C18.228,15.957 20.516,14.336 21.824,12.009 C21.938,11.805 22.242,11.798 22.363,11.998 L26.872,19.423 C27.265,20.070 26.680,20.859 25.908,20.727 ZM5.862,10.642 C4.862,8.240 5.179,5.527 6.711,3.384 C9.967,-1.171 17.030,-1.173 20.288,3.384 C21.819,5.527 22.136,8.240 21.135,10.642 C18.408,17.190 8.603,17.221 5.862,10.642 ZM17.500,6.075 L15.308,5.772 L14.327,3.884 C13.989,3.232 13.008,3.232 12.670,3.884 L11.690,5.772 L9.497,6.075 C8.741,6.180 8.438,7.066 8.985,7.573 L10.572,9.043 L10.197,11.119 C10.068,11.835 10.861,12.383 11.538,12.045 L13.499,11.065 L15.460,12.045 C16.130,12.380 16.930,11.841 16.800,11.119 L16.426,9.043 L18.012,7.573 C18.559,7.066 18.256,6.180 17.500,6.075 ZM11.401,16.523 C11.603,16.567 11.702,16.784 11.599,16.954 L7.605,23.529 C7.211,24.179 6.201,24.088 5.936,23.387 L4.697,20.106 L1.090,20.727 C0.317,20.859 -0.267,20.069 0.125,19.423 L4.635,11.998 C4.756,11.799 5.060,11.805 5.174,12.009 C6.481,14.335 8.768,15.957 11.401,16.523 Z" class="cls-1"/>
</svg>
