<svg xmlns="http://www.w3.org/2000/svg" xmlns:xlink="http://www.w3.org/1999/xlink" preserveAspectRatio="xMidYMid" width="15" height="11" viewBox="0 0 15 11">
  <path d="M14.414,0.953 C13.873,0.282 12.874,0.009 10.965,0.009 L4.039,0.009 C2.088,0.009 1.072,0.300 0.532,1.014 C0.007,1.710 0.007,2.736 0.007,4.156 L0.007,6.861 C0.007,9.611 0.631,11.008 4.039,11.008 L10.965,11.008 C12.620,11.008 13.537,10.766 14.130,10.174 C14.738,9.568 14.998,8.576 14.998,6.861 L14.998,4.156 C14.998,2.658 14.957,1.627 14.414,0.953 ZM9.631,5.882 L6.486,7.596 C6.416,7.634 6.339,7.653 6.262,7.653 C6.175,7.653 6.088,7.628 6.012,7.580 C5.867,7.489 5.779,7.325 5.779,7.149 L5.779,3.732 C5.779,3.556 5.867,3.393 6.011,3.301 C6.155,3.210 6.335,3.204 6.485,3.285 L9.630,4.987 C9.790,5.074 9.891,5.246 9.891,5.434 C9.891,5.622 9.791,5.795 9.631,5.882 Z" class="cls-1"/>
</svg>
