<svg xmlns="http://www.w3.org/2000/svg" xmlns:xlink="http://www.w3.org/1999/xlink" preserveAspectRatio="xMidYMid" width="15.47" height="8.59" viewBox="0 0 15.47 8.59">
  <path d="M7.578,8.487 L8.504,8.487 C8.504,8.487 8.784,8.457 8.927,8.309 C9.059,8.173 9.055,7.918 9.055,7.918 C9.055,7.918 9.036,6.708 9.613,6.531 C10.183,6.358 10.913,7.688 11.687,8.200 C12.273,8.587 12.718,8.487 12.718,8.487 L14.788,8.489 C14.788,8.489 15.871,8.410 15.358,7.590 C15.316,7.523 15.059,6.984 13.818,5.876 C12.520,4.716 12.694,4.903 14.258,2.897 C15.210,1.675 15.591,0.929 15.472,0.610 C15.359,0.306 14.663,0.358 14.663,0.358 L12.327,0.357 C12.327,0.357 12.154,0.341 12.026,0.415 C11.901,0.487 11.820,0.674 11.820,0.674 C11.820,0.674 11.451,1.637 10.959,2.441 C9.921,4.138 9.506,4.228 9.336,4.122 C8.941,3.876 9.040,3.136 9.040,2.610 C9.040,0.965 9.299,0.279 8.535,0.102 C8.282,0.043 8.095,0.004 7.447,-0.002 C6.616,-0.010 5.912,0.000 5.513,0.188 C5.248,0.313 5.043,0.592 5.168,0.608 C5.322,0.628 5.671,0.699 5.856,0.941 C6.095,1.254 6.086,1.956 6.086,1.956 C6.086,1.956 6.224,3.892 5.766,4.132 C5.452,4.297 5.021,3.961 4.095,2.421 C3.621,1.633 3.263,0.745 3.263,0.745 C3.263,0.745 3.194,0.582 3.071,0.495 C2.921,0.389 2.713,0.356 2.713,0.356 L0.497,0.356 C0.497,0.356 0.165,0.365 0.043,0.505 C-0.066,0.629 0.034,0.885 0.034,0.885 C0.034,0.885 1.768,4.819 3.732,6.788 C5.533,8.593 7.578,8.487 7.578,8.487 Z" class="cls-1"/>
</svg>
