<svg xmlns="http://www.w3.org/2000/svg" xmlns:xlink="http://www.w3.org/1999/xlink" preserveAspectRatio="xMidYMid" width="39.719" height="40" viewBox="0 0 39.719 40">
  <path d="M19.852,40.000 C8.888,40.000 -0.000,31.045 -0.000,20.000 C-0.000,8.954 8.888,-0.000 19.852,-0.000 C30.817,-0.000 39.705,8.954 39.705,20.000 C39.705,31.045 30.817,40.000 19.852,40.000 ZM19.852,0.857 C9.632,0.857 0.851,9.704 0.851,20.000 C0.851,30.296 9.632,39.142 19.852,39.142 C30.073,39.142 38.854,30.296 38.854,20.000 C38.854,9.704 30.073,0.857 19.852,0.857 ZM25.818,21.376 C27.059,22.484 27.316,23.023 27.358,23.090 C27.871,23.910 26.788,23.989 26.788,23.989 L24.718,23.987 C24.718,23.987 24.273,24.087 23.687,23.700 C22.913,23.188 22.183,21.858 21.614,22.031 C21.037,22.208 21.055,23.418 21.055,23.418 C21.055,23.418 21.059,23.673 20.927,23.809 C20.784,23.958 20.505,23.987 20.505,23.987 L19.578,23.987 C19.578,23.987 17.533,24.093 15.732,22.288 C13.768,20.319 12.034,16.385 12.034,16.385 C12.034,16.385 11.934,16.129 12.043,16.005 C12.165,15.865 12.497,15.856 12.497,15.856 L14.713,15.856 C14.713,15.856 14.921,15.889 15.071,15.995 C15.194,16.082 15.263,16.245 15.263,16.245 C15.263,16.245 15.621,17.133 16.095,17.921 C17.021,19.461 17.452,19.797 17.766,19.632 C18.224,19.392 18.086,17.456 18.086,17.456 C18.086,17.456 18.095,16.754 17.856,16.441 C17.671,16.199 17.322,16.128 17.168,16.108 C17.043,16.092 17.248,15.814 17.513,15.688 C17.912,15.500 18.616,15.490 19.447,15.498 C20.096,15.504 20.282,15.543 20.536,15.602 C21.299,15.780 21.040,16.465 21.040,18.110 C21.040,18.636 20.942,19.377 21.336,19.622 C21.506,19.728 21.921,19.638 22.959,17.941 C23.451,17.137 23.820,16.174 23.820,16.174 C23.820,16.174 23.901,15.987 24.026,15.915 C24.154,15.841 24.327,15.857 24.327,15.857 L26.663,15.858 C26.663,15.858 27.359,15.806 27.472,16.110 C27.591,16.429 27.210,17.175 26.258,18.397 C24.694,20.404 24.520,20.216 25.818,21.376 Z" class="cls-1"/>
</svg>
