<svg xmlns="http://www.w3.org/2000/svg" xmlns:xlink="http://www.w3.org/1999/xlink" preserveAspectRatio="xMidYMid" width="24" height="24" viewBox="0 0 24 24">
  <path d="M22.869,10.829 L22.872,10.827 L24.000,11.955 L22.872,13.083 L22.870,13.081 C22.792,13.838 22.636,14.573 22.411,15.276 L22.999,16.723 L21.521,17.323 L21.518,17.316 C21.213,17.855 20.863,18.366 20.474,18.843 L20.474,20.418 L18.899,20.418 C18.340,20.873 17.736,21.275 17.095,21.614 L16.487,23.053 L15.041,22.444 C14.410,22.626 13.756,22.753 13.083,22.819 L13.136,22.872 L12.008,24.000 L10.880,22.872 L10.932,22.819 C10.221,22.750 9.530,22.611 8.865,22.411 L8.879,22.447 L7.401,23.048 L6.800,21.570 L6.823,21.561 C6.247,21.249 5.702,20.887 5.194,20.480 L5.194,20.507 L3.599,20.507 L3.599,18.912 C3.121,18.336 2.702,17.711 2.349,17.045 L0.916,16.441 L1.522,15.004 C1.340,14.379 1.212,13.731 1.145,13.066 L1.128,13.083 L-0.000,11.955 L1.128,10.827 L1.145,10.844 C1.216,10.151 1.351,9.477 1.546,8.828 L1.529,8.835 L0.928,7.357 L2.405,6.756 L2.407,6.761 C2.741,6.146 3.133,5.567 3.574,5.031 L3.574,3.459 L5.161,3.459 C5.711,3.016 6.304,2.625 6.933,2.293 L6.933,2.293 L7.553,0.824 L9.023,1.443 L9.017,1.457 C9.629,1.283 10.262,1.161 10.912,1.096 L12.008,-0.000 L13.104,1.096 C13.847,1.170 14.568,1.319 15.260,1.535 L16.736,0.935 L17.338,2.413 L17.318,2.421 C17.875,2.732 18.403,3.091 18.895,3.492 L18.895,3.492 L20.490,3.492 L20.490,5.087 L20.487,5.087 C20.935,5.637 21.330,6.232 21.664,6.864 L23.100,7.469 L22.494,8.907 C22.674,9.527 22.801,10.170 22.869,10.829 ZM12.008,4.204 C7.725,4.204 4.253,7.675 4.253,11.957 C4.253,16.238 7.725,19.709 12.008,19.709 C16.291,19.709 19.763,16.238 19.763,11.957 C19.763,7.675 16.291,4.204 12.008,4.204 ZM12.008,18.945 C8.153,18.945 5.017,15.810 5.017,11.957 C5.017,8.103 8.153,4.968 12.008,4.968 C15.863,4.968 19.000,8.103 19.000,11.957 C19.000,15.810 15.863,18.945 12.008,18.945 ZM12.447,18.051 C13.805,17.954 15.041,17.412 16.010,16.571 L13.609,14.170 C13.270,14.414 12.875,14.583 12.447,14.652 L12.447,18.051 ZM11.569,18.051 L11.569,14.652 C11.141,14.583 10.746,14.414 10.408,14.170 L8.005,16.571 C8.975,17.412 10.212,17.954 11.569,18.051 ZM7.386,15.950 L9.787,13.550 C9.543,13.212 9.373,12.817 9.304,12.388 L5.911,12.388 C6.006,13.745 6.546,14.980 7.386,15.950 ZM5.912,11.511 L9.304,11.511 C9.373,11.082 9.543,10.687 9.787,10.349 L7.392,7.955 C6.552,8.924 6.010,10.156 5.912,11.511 ZM11.569,5.862 C10.215,5.959 8.982,6.498 8.013,7.336 L10.408,9.729 C10.746,9.485 11.141,9.316 11.569,9.246 L11.569,5.862 ZM11.569,10.149 L11.569,10.142 C11.380,10.189 11.202,10.263 11.041,10.362 L11.044,10.366 C10.792,10.521 10.578,10.733 10.425,10.987 L10.420,10.982 C10.321,11.144 10.247,11.322 10.200,11.511 L10.207,11.511 C10.172,11.652 10.152,11.798 10.152,11.949 C10.152,12.101 10.172,12.247 10.207,12.388 L10.200,12.388 C10.247,12.577 10.321,12.755 10.420,12.916 L10.425,12.912 C10.578,13.166 10.792,13.378 11.044,13.532 L11.041,13.537 C11.202,13.636 11.380,13.710 11.569,13.756 L11.569,13.750 C11.710,13.785 11.857,13.804 12.008,13.804 C12.159,13.804 12.306,13.784 12.447,13.750 L12.447,13.756 C12.636,13.710 12.814,13.636 12.975,13.537 L12.971,13.532 C13.224,13.378 13.437,13.166 13.592,12.912 L13.596,12.917 C13.695,12.755 13.770,12.577 13.816,12.388 L13.810,12.388 C13.844,12.247 13.864,12.101 13.864,11.949 C13.864,11.798 13.844,11.652 13.810,11.511 L13.816,11.511 C13.770,11.322 13.695,11.144 13.596,10.982 L13.592,10.987 C13.437,10.733 13.225,10.520 12.971,10.366 L12.975,10.362 C12.814,10.263 12.636,10.189 12.447,10.142 L12.447,10.149 C12.306,10.115 12.159,10.094 12.008,10.094 C11.857,10.094 11.710,10.115 11.569,10.149 ZM12.447,5.862 L12.447,9.246 C12.875,9.316 13.270,9.485 13.609,9.729 L16.003,7.336 C15.034,6.498 13.801,5.959 12.447,5.862 ZM16.624,7.955 L14.229,10.349 C14.473,10.687 14.643,11.082 14.712,11.511 L18.104,11.511 C18.006,10.156 17.464,8.923 16.624,7.955 ZM14.712,12.388 C14.643,12.817 14.473,13.212 14.229,13.550 L16.630,15.950 C17.470,14.980 18.010,13.745 18.105,12.388 L14.712,12.388 Z" class="cls-1"/>
</svg>
