<svg width="36" height="36" viewBox="0 0 36 36" fill="none" xmlns="http://www.w3.org/2000/svg"  xmlns:xlink="http://www.w3.org/1999/xlink" >
<path d="M35.6 20.9002C35 17.5002 33.9 14.0002 33.5 12.7002C32.7 10.4002 31.2 8.8002 28.7 8.0002C26.5 7.3002 23.6 7.2002 20.9 7.2002C20.4 7.2002 20 7.2002 19.5 7.2002C18.5 7.2002 17.5 7.2002 16.6 7.2002C16.1 7.2002 15.7 7.2002 15.2 7.2002C12.5 7.2002 9.59997 7.3002 7.39997 8.0002C4.99997 8.8002 3.39997 10.3002 2.59997 12.7002C2.19997 14.0002 1.09997 17.5002 0.499972 20.9002C-0.100028 24.4002 -2.7895e-05 26.7002 0.799972 27.8002C1.19997 28.3002 1.79997 28.6002 2.39997 28.6002C2.69997 28.6002 2.89997 28.6002 3.19997 28.5002C4.79997 28.2002 6.39997 28.1002 8.69997 28.1002C9.69997 28.1002 10.7 28.1002 11.9 28.1002C13.5 28.1002 15.2 28.2002 17.3 28.2002H18.7C20.8 28.2002 22.6 28.2002 24.1 28.1002C25.3 28.1002 26.3 28.1002 27.3 28.1002C29.5 28.1002 31.1 28.2002 32.8 28.5002C33.1 28.6002 33.4 28.6002 33.6 28.6002C34.3 28.6002 34.9 28.3002 35.2 27.8002C36.1 26.7002 36.2 24.4002 35.6 20.9002ZM34.4 27.2002C34.2 27.5002 34 27.6002 33.7 27.6002C33.5 27.6002 33.4 27.6002 33.2 27.5002C33.2 27.5002 33.2 27.5002 33.1 27.5002C31.4 27.2002 29.7 27.1002 27.4 27.1002C26.4 27.1002 25.4 27.1002 24.2 27.1002C22.7 27.1002 20.9 27.2002 18.8 27.2002H17.4C15.3 27.2002 13.5 27.2002 12 27.1002C10.8 27.1002 9.69997 27.1002 8.79997 27.1002C6.49997 27.1002 4.79997 27.2002 3.09997 27.5002C3.09997 27.5002 3.09997 27.5002 2.99997 27.5002C2.79997 27.6002 2.59997 27.6002 2.49997 27.6002C2.19997 27.6002 1.89997 27.5002 1.79997 27.2002C1.39997 26.7002 0.999972 25.3002 1.69997 21.1002C2.29997 17.8002 3.29997 14.4002 3.79997 13.1002C4.99997 8.8002 9.29997 8.4002 15.1 8.4002C15.6 8.4002 16 8.4002 16.5 8.4002C17.5 8.4002 18.5 8.4002 19.5 8.4002C20 8.4002 20.4 8.4002 20.9 8.4002C26.8 8.4002 31 8.7002 32.5 13.1002C32.9 14.4002 34 17.8002 34.6 21.1002C35.2 25.3002 34.7 26.7002 34.4 27.2002Z" fill="#99AEC9"/>
<path d="M33.1 21.6003C33 21.3003 32.8 21.1003 32.5 21.1003C32.2 21.2003 32 21.4003 32 21.7003C32.2 23.1003 32.3 24.0003 32.3 24.6003C30.9 24.4003 29.4 24.3003 27.4 24.3003C26.4 24.3003 25.3 24.3003 24.1 24.3003C22.6 24.3003 20.8 24.4003 18.7 24.4003H17.3C16.4 24.4003 15.6 24.4003 14.8 24.4003L18.2 23.1003C18.3 23.0003 18.5 22.9003 18.5 22.8003L19.5 20.1003L26.5 19.3003C26.8 19.3003 27 19.0003 27 18.7003V18.6003C26.8 16.3003 26.2 13.5003 25.3 11.2003C26.1 11.3003 26.9 11.4003 27.5 11.6003C28.8 12.0003 29.5 12.7003 29.9 13.9003C30.2 14.8003 30.9 17.1003 31.5 19.6003C31.6 19.9003 31.8 20.0003 32 20.0003H32.1C32.4 19.9003 32.6 19.6003 32.5 19.3003C31.9 16.8003 31.2 14.4003 30.9 13.5003C30.4 11.9003 29.5 11.1003 27.8 10.5003C26.8 10.2003 25.7 10.0003 24.4 9.90029C23.2 9.80029 22 9.80029 20.7 9.80029C18.8 9.80029 16.9 9.80029 15 9.80029C12.5 9.80029 9.80003 9.90029 8.00003 10.5003C6.30003 11.0003 5.40003 11.9003 4.90003 13.5003C4.80003 13.9003 4.60003 14.4003 4.40003 15.1003C4.30003 15.4003 4.50003 15.7003 4.80003 15.8003C5.10003 15.9003 5.40003 15.7003 5.50003 15.4003C5.70003 14.7003 5.90003 14.1003 6.00003 13.8003C6.00003 13.8003 6.00003 13.8003 6.00003 13.7003C9.00003 14.1003 11.3 16.6003 11.3 19.7003C11.3 19.9003 11.3 20.1003 11.3 20.4003C11.3 20.7003 11.6 21.1003 11.9 21.0003L18.3 20.2003L17.6 22.2003L11.9 24.4003C10.7 24.4003 9.70003 24.4003 8.70003 24.4003C6.80003 24.4003 5.30003 24.5003 3.80003 24.7003C3.80003 24.0003 3.90003 22.8003 4.20003 21.2003C4.40003 20.1003 4.70003 19.0003 5.00003 17.8003C5.10003 17.5003 4.90003 17.2003 4.60003 17.1003C4.30003 17.0003 4.00003 17.2003 3.90003 17.5003C3.50003 18.7003 3.20003 19.9003 3.00003 21.0003C2.60003 23.3003 2.50003 24.7003 2.60003 25.4003C2.60003 25.7003 2.90003 26.0003 3.20003 25.9003C4.80003 25.7003 6.40003 25.6003 8.50003 25.6003C8.60003 25.6003 8.80003 25.6003 8.90003 25.6003H8.80003C8.50003 25.7003 8.40003 26.0003 8.50003 26.3003C8.60003 26.5003 8.80003 26.7003 9.00003 26.7003C9.10003 26.7003 9.10003 26.7003 9.20003 26.7003L11.9 25.7003C13.4 25.7003 15.1 25.8003 17.1 25.8003H18.5C20.6 25.8003 22.3 25.8003 23.9 25.7003C25.1 25.7003 26.2 25.7003 27.2 25.7003C29.4 25.7003 31 25.8003 32.5 26.0003C32.8 26.0003 33.1 25.8003 33.1 25.5003C33.4 24.7003 33.4 23.6003 33.1 21.6003ZM12.5 19.9003C12.5 19.9003 12.5 19.8003 12.5 19.9003C12.5 16.3003 10 13.4003 6.70003 12.8003C7.10003 12.3003 7.70003 11.9003 8.50003 11.7003C10.2 11.1003 12.8 11.1003 15.2 11.1003C17.1 11.1003 19 11.1003 20.9 11.1003C22 11.1003 23.1 11.1003 24.1 11.2003C25 13.4003 25.6 16.1003 25.8 18.4003L19 19.2003L12.5 19.9003Z" fill="#414141"/>
<path d="M21.5999 14.1002C21.3999 13.4002 21.0999 12.7002 20.8999 12.1002C20.7999 11.8002 20.4999 11.7002 20.1999 11.8002C19.8999 11.9002 19.7999 12.2002 19.8999 12.5002C20.0999 13.1002 20.3999 13.7002 20.5999 14.4002C20.6999 14.6002 20.8999 14.8002 21.0999 14.8002C21.1999 14.8002 21.1999 14.8002 21.2999 14.8002C21.4999 14.7002 21.6999 14.4002 21.5999 14.1002Z" fill="#99AEC9"/>
<path d="M22.2999 17.1C22.1999 16.7 22.0999 16.3 21.9999 15.8C21.8999 15.5 21.5999 15.3 21.2999 15.4C20.9999 15.5 20.7999 15.8 20.8999 16.1C20.9999 16.5 21.0999 16.9 21.0999 17.3C21.0999 17.6 21.3999 17.8 21.6999 17.8H21.7999C22.1999 17.7 22.3999 17.4 22.2999 17.1Z" fill="#414141"/>
<path d="M15.9 15.0004C15.5 14.1004 14.9 13.2004 14.3 12.4004C14.1 12.2004 13.7 12.1004 13.5 12.3004C13.3 12.5004 13.2 12.9004 13.4 13.1004C14 13.8004 14.5 14.6004 14.9 15.5004C15 15.7004 15.2 15.8004 15.4 15.8004C15.5 15.8004 15.6 15.8004 15.6 15.7004C15.9 15.6004 16 15.3004 15.9 15.0004Z" fill="#99AEC9"/>
<path d="M14.5999 18.5004C14.3999 17.2004 13.9999 16.0004 13.2999 14.9004C13.0999 14.6004 12.7999 14.6004 12.4999 14.7004C12.1999 14.9004 12.1999 15.2004 12.2999 15.5004C12.8999 16.5004 13.2999 17.6004 13.4999 18.7004C13.4999 19.0004 13.7999 19.2004 14.0999 19.2004H14.1999C14.4999 19.1004 14.6999 18.8004 14.5999 18.5004Z" fill="#414141"/>
<path d="M11.8 13.1004C11.5 12.8004 11.1 12.5004 10.7 12.2004C10.5 12.0004 10.1 12.0004 10 12.3004C9.80001 12.6004 9.90001 12.9004 10.1 13.1004C10.4 13.3004 10.8 13.6004 11.1 13.9004C11.2 14.0004 11.4 14.1004 11.5 14.1004C11.6 14.1004 11.8 14.0004 11.9 13.9004C12.1 13.6004 12.1 13.3004 11.8 13.1004Z" fill="#414141"/>
</svg>
