<svg xmlns="http://www.w3.org/2000/svg" xmlns:xlink="http://www.w3.org/1999/xlink" preserveAspectRatio="xMidYMid" width="13" height="13" viewBox="0 0 13 13">
  <path d="M6.500,12.999 C2.916,12.999 -0.000,10.083 -0.000,6.499 C-0.000,2.915 2.916,-0.001 6.500,-0.001 C10.084,-0.001 13.000,2.915 13.000,6.499 C13.000,10.083 10.084,12.999 6.500,12.999 ZM6.500,1.181 C3.567,1.181 1.182,3.566 1.182,6.499 C1.182,9.431 3.567,11.817 6.500,11.817 C9.432,11.817 11.818,9.431 11.818,6.499 C11.818,3.566 9.432,1.181 6.500,1.181 ZM6.500,4.332 C6.065,4.332 5.712,3.979 5.712,3.545 C5.712,3.110 6.065,2.756 6.500,2.756 C6.934,2.756 7.287,3.110 7.287,3.545 C7.287,3.979 6.934,4.332 6.500,4.332 ZM6.500,5.514 C6.826,5.514 7.091,5.779 7.091,6.105 L7.091,9.650 C7.091,9.977 6.826,10.241 6.500,10.241 C6.173,10.241 5.909,9.977 5.909,9.650 L5.909,6.105 C5.909,5.779 6.173,5.514 6.500,5.514 Z" class="cls-1"/>
</svg>
